{
.appVersion = "3529";
.formatVersion = 3;
DisplayStrings = (
"ABCDEFGHIJKLMN
OPQRSTUVWXYZ
abcdefghijklmn
opqrstuvwxyz

HHyHH"
);
axes = (
{
name = Weight;
tag = wght;
},
{
name = Width;
tag = wdth;
}
);
customParameters = (
{
name = "Enforce Compatibility Check";
value = 1;
},
{
name = fsType;
value = (
);
}
);
date = "2026-06-07 07:11:36 +0000";
familyName = "M PLUS F Latin";
featurePrefixes = (
{
automatic = 1;
code = "languagesystem DFLT dflt;
";
name = Languagesystems;
}
);
fontMaster = (
{
axesValues = (
100,
200
);
customParameters = (
{
name = typoAscender;
value = 880;
},
{
name = typoDescender;
value = -120;
},
{
name = typoLineGap;
value = 0;
},
{
name = winAscent;
value = 1160;
},
{
name = winDescent;
value = 288;
},
{
name = hheaAscender;
value = 1160;
},
{
name = hheaDescender;
value = -288;
},
{
name = hheaLineGap;
value = 0;
}
);
iconName = Light;
id = m01;
metricValues = (
{
over = 16;
pos = 860;
},
{
over = 11;
pos = 730;
},
{
over = 11;
pos = 520;
},
{
over = -11;
},
{
over = -15;
pos = -140;
},
{
}
);
name = "Thin F1";
stemValues = (
20,
20,
20,
20
);
userData = {
GSOffsetHorizontal = -20;
GSOffsetProportional = 1;
GSOffsetVertical = -20;
};
},
{
axesValues = (
500,
200
);
customParameters = (
{
name = typoAscender;
value = 880;
},
{
name = typoDescender;
value = -120;
},
{
name = typoLineGap;
value = 0;
},
{
name = winAscent;
value = 1160;
},
{
name = winDescent;
value = 288;
},
{
name = hheaAscender;
value = 1160;
},
{
name = hheaDescender;
value = -288;
},
{
name = hheaLineGap;
value = 0;
}
);
id = m002;
metricValues = (
{
over = 16;
pos = 860;
},
{
over = 11;
pos = 730;
},
{
over = 11;
pos = 520;
},
{
over = -11;
},
{
over = -15;
pos = -140;
},
{
}
);
name = "Medium F1";
stemValues = (
100,
90,
110,
108
);
},
{
axesValues = (
900,
200
);
customParameters = (
{
name = typoAscender;
value = 880;
},
{
name = typoDescender;
value = -120;
},
{
name = typoLineGap;
value = 0;
},
{
name = winAscent;
value = 1160;
},
{
name = winDescent;

glyphs = (
{
color = 4;
glyphname = A;
kernLeft = A;
kernRight = A;
lastChange = "2026-06-22 13:07:49 +0000";
layers = (
{
layerId = m01;
shapes = (
{
closed = 1;
nodes = (
(38,0,l),
(328,669,l),
(345,710,l),
(347,710,l),
(364,669,l),
(654,0,l),
(676,0,l),
(359,730,l),
(333,730,l),
(16,0,l)
);
},
{
closed = 1;
nodes = (
(536,290,l),
(536,310,l),
(156,310,l),
(156,290,l)
);
}
);
width = 692;
},
{
layerId = m002;
shapes = (
{
closed = 1;
nodes = (
(136,0,l),
(345,560,l),
(368,623,l),
(370,623,l),
(393,560,l),
(602,0,l),
(724,0,l),
(444,730,l),
(294,730,l),
(14,0,l)
);
},
{
closed = 1;
nodes = (
(559,221,l),
(559,319,l),
(179,319,l),
(179,221,l)
);
}
);
width = 738;
},
{
layerId = m003;
shapes = (
{
closed = 1;
nodes = (
(230,0,l),
(362,450,l),
(391,552,l),
(393,552,l),
(422,450,l),
(554,0,l),
(772,0,l),
(517,730,l),
(267,730,l),
(12,0,l)
);
},
{
closed = 1;
nodes = (
(582,153,l),
(582,327,l),
(202,327,l),
(202,153,l)
);
}
);
width = 784;
},
{
layerId = m004;
shapes = (
{
closed = 1;
nodes = (
(38,0,l),
(282,669,l),
(295,707,l),
(297,707,l),
(310,669,l),
(554,0,l),
(576,0,l),
(309,730,l),
(283,730,l),
(16,0,l)
);
},
{
closed = 1;
nodes = (
(471,260,l),
(471,280,l),
(121,280,l),
(121,260,l)
);
}
);
width = 592;
},
{
layerId = m005;
shapes = (
{
closed = 1;
nodes = (
(134,0,l),
(300,550,l),
(318,613,l),
(320,613,l),
(338,550,l),
(504,0,l),
(624,0,l),
(394,730,l),
(244,730,l),
(14,0,l)
);
},
{
closed = 1;
nodes = (
(494,191,l),
(494,289,l),
(144,289,l),
(144,191,l)
);
}
);
width = 638;
},
{
layerId = m006;
shapes = (
{
closed = 1;
nodes = (
(226,0,l),
(319,430,l),
(341,536,l),
(343,536,l),
(365,430,l),
(458,0,l),
(672,0,l),
(467,730,l),
(217,730,l),
(12,0,l)
);
},
{
closed = 1;
nodes = (
(517,123,l),
(517,297,l),
(167,297,l),
(167,123,l)
);
}
);
width = 684;
}
);
metricLeft = "=H*.2";
metricRight = "=|";
unicode = 65;
},
{
color = 4;
glyphname = B;
kernLeft = H;
kernRight = B;
lastChange = "2026-06-25 11:43:33 +0000";
layers = (
{
layerId = m01;
metricRight = "=H*.6";
shapes = (
{
closed = 1;
nodes = (
(426,-10,o),
(530,57,o),
(530,195,cs),
(530,303,o),
(468,369,o),
(353,391,c),
(353,393,l),
(437,417,o),
(484,474,o),
(484,560,cs),
(484,677,o),
(393,740,o),
(234,740,cs),
(194,740,o),
(157,736,o),
(80,726,c),
(80,4,l),
(137,-6,o),
(178,-10,o),
(227,-10,cs)
);
},
{
closed = 1;
nodes = (
(179,10,o),
(141,14,o),
(84,24,c),
(100,14,l),
(100,716,l),
(83,706,l),
(177,718,o),
(206,720,o),
(234,720,cs),
(384,720,o),
(464,664,o),
(464,560,cs),
(464,457,o),
(389,400,o),
(254,400,cs),
(90,400,l),
(90,380,l),
(254,380,ls),
(423,380,o),
(510,317,o),
(510,195,cs),
(510,71,o),
(417,10,o),
(227,10,cs)
);
}
);
width = 578;
},
{
associatedMasterId = m01;
attr = {
coordinates = (
200,
200
);
};
layerId = "045BF7CD-F08D-414D-A7F3-96A78B5CF3C8";
metricRight = "=H*.6";
name = "Jun 9, 26 at 21:10";
shapes = (
{
closed = 1;
nodes = (
(438,-10,o),
(543,57,o),
(543,196,cs),
(543,300,o),
(485,369,o),
(380,390,c),
(380,392,l),
(455,416,o),
(498,477,o),
(498,559,cs),
(498,678,o),
(407,740,o),
(239,740,cs),
(194,740,o),
(154,736,o),
(78,726,c),
(78,4,l),
(135,-6,o),
(179,-10,o),
(230,-10,cs)
);
},
{
closed = 1;
nodes = (
(191,30,o),
(143,34,o),
(94,42,c),
(120,19,l),
(120,712,l),
(93,688,l),
(170,698,o),
(213,701,o),
(243,701,cs),
(381,701,o),
(454,650,o),
(454,554,cs),
(454,459,o),
(386,407,o),
(261,407,cs),
(99,407,l),
(99,368,l),
(262,368,ls),
(419,368,o),
(499,311,o),
(499,199,cs),
(499,85,o),
(414,30,o),
(238,30,cs)
);
}
);
width = 590;
},
{
associatedMasterId = m01;
attr = {
axisRules = (
{
},
{
max = 150;
min = 100;
}
);
};
layerId = "0A0012AC-723E-4655-B905-BB0008F0DE8C";
metricRight = "=H*.6";
name = "Thin F1 [100‹wd‹150] Jun 15, 26 at 20:59";
shapes = (
{
closed = 1;
nodes = (
(429,0,o),
(530,65,o),
(530,195,cs),
(530,299,o),
(467,369,o),
(353,391,c),
(353,393,l),
(436,417,o),
(482,477,o),
(482,560,cs),
(482,672,o),
(398,730,o),
(234,730,cs),
(194,730,o),
(157,730,o),
(80,730,c),
(80,0,l),
(137,0,o),
(179,0,o),
(227,0,cs)
);
},
{
closed = 1;
nodes = (
(181,20,o),
(141,20,o),
(84,20,c),
(100,14,l),
(100,716,l),
(83,710,l),
(160,710,o),
(195,710,o),
(234,710,cs),
(389,710,o),
(462,659,o),
(462,560,cs),
(462,486,o),
(421,400,o),
(254,400,cs),
(90,400,l),
(90,380,l),
(254,380,ls),
(453,380,o),
(510,289,o),
(510,195,cs),
(510,79,o),
(420,20,o),
(227,20,cs)
);
}
);
width = 578;
},
{
associatedMasterId = m01;
attr = {
axisRules = (
{
},
{
max = 150;
min = 100;
}
);
coordinates = (
200,
200
);
};
layerId = "352600B3-56CE-4747-BD4F-228B2749AAB0";
metricRight = "=H*.6";
name = "Jun 15, 26 at 20:58";
shapes = (
{
closed = 1;
nodes = (
(441,0,o),
(543,64,o),
(543,196,cs),
(543,298,o),
(483,369,o),
(380,390,c),
(380,392,l),
(454,416,o),
(497,478,o),
(497,559,cs),
(497,673,o),
(412,730,o),
(242,730,cs),
(196,730,o),
(154,730,o),
(78,730,c),
(78,0,l),
(136,0,o),
(182,0,o),
(233,0,cs)
);
},
{
closed = 1;
nodes = (
(193,40,o),
(144,40,o),
(94,40,c),
(120,19,l),
(120,712,l),
(93,691,l),
(157,691,o),
(205,691,o),
(243,691,cs),
(385,691,o),
(453,644,o),
(453,552,cs),
(453,480,o),
(410,407,o),
(261,407,cs),
(99,407,l),
(99,368,l),
(262,368,ls),
(442,368,o),
(499,291,o),
(499,200,cs),
(499,93,o),
(416,40,o),
(238,40,cs)
);
}
);
width = 590;
},
{
layerId = m002;
metricRight = "=H*.5";
shapes = (
{
closed = 1;
nodes = (
(472,-10,o),
(580,56,o),
(580,198,cs),
(580,300,o),
(524,367,o),
(421,385,c),
(421,387,l),
(500,413,o),
(540,471,o),
(540,555,cs),
(540,682,o),
(449,740,o),
(252,740,cs),
(194,740,o),
(141,735,o),
(70,726,c),
(70,4,l),
(128,-6,o),
(181,-10,o),
(239,-10,cs)
);
},
{
closed = 1;
nodes = (
(228,88,o),
(154,92,o),
(124,96,c),
(179,32,l),
(179,699,l),
(124,634,l),
(149,638,o),
(235,642,o),
(270,642,cs),
(373,642,o),
(425,606,o),
(425,534,cs),
(425,464,o),
(376,428,o),
(280,428,cs),
(125,428,l),
(125,332,l),
(285,332,ls),
(407,332,o),
(465,293,o),
(465,211,cs),
(465,127,o),
(404,88,o),
(271,88,cs)
);
}
);
width = 615;
},
{
layerId = m003;
metricRight = "=H*.4";
shapes = (
{
closed = 1;
nodes = (
(518,-10,o),
(630,51,o),
(630,200,cs),
(630,303,o),
(577,364,o),
(475,378,c),
(475,380,l),
(562,409,o),
(600,460,o),
(600,550,cs),
(600,688,o),
(509,740,o),
(266,740,cs),
(191,740,o),
(125,735,o),
(60,726,c),
(60,4,l),
(137,-6,o),
(176,-10,o),
(246,-10,cs)
);
},
{
closed = 1;
nodes = (
(253,147,o),
(220,147,o),
(159,147,c),
(258,48,l),
(258,682,l),
(159,583,l),
(219,583,o),
(256,583,o),
(311,583,cs),
(366,583,o),
(390,562,o),
(390,513,cs),
(390,466,o),
(368,447,o),
(311,447,cs),
(159,447,l),
(159,293,l),
(321,293,ls),
(394,293,o),
(420,274,o),
(420,222,cs),
(420,168,o),
(392,147,o),
(321,147,cs)
);
}
);
width = 654;
},
{
layerId = m004;
metricRight = "=H*.6";
shapes = (
{
closed = 1;
nodes = (
(445,-10,o),
(550,58,o),
(550,195,cs),
(550,302,o),
(486,369,o),
(365,391,c),
(365,393,l),
(453,417,o),
(500,476,o),
(500,560,cs),
(500,677,o),
(409,740,o),
(241,740,cs),
(199,740,o),
(160,736,o),
(80,726,c),
(80,4,l),
(140,-6,o),
(183,-10,o),
(234,-10,cs)
);
},
{
closed = 1;
nodes = (
(184,10,o),
(143,14,o),
(83,24,c),
(100,14,l),
(100,716,l),
(82,706,l),
(162,716,o),
(200,720,o),
(241,720,cs),
(400,720,o),
(480,664,o),
(480,560,cs),
(480,457,o),
(402,400,o),
(262,400,cs),
(90,400,l),
(90,380,l),
(262,380,ls),
(438,380,o),
(530,316,o),
(530,195,cs),
(530,72,o),
(436,10,o),
(234,10,cs)
);
}
);
width = 598;
},
{
associatedMasterId = m004;
attr = {
coordinates = (
200,
100
);
};
layerId = "6536ABDB-027F-41C3-A38C-CA501C79773F";
metricRight = "=H*.6";
name = "{200} Jun 14, 26 at 17:39";
shapes = (
{
closed = 1;
nodes = (
(454,-10,o),
(560,58,o),
(560,196,cs),
(560,300,o),
(500,369,o),
(391,390,c),
(391,392,l),
(469,416,o),
(513,476,o),
(513,559,cs),
(513,678,o),
(421,740,o),
(245,740,cs),
(198,740,o),
(156,736,o),
(78,726,c),
(78,4,l),
(138,-6,o),
(183,-10,o),
(236,-10,cs)
);
},
{
closed = 1;
nodes = (
(196,30,o),
(147,33,o),
(93,42,c),
(120,19,l),
(120,712,l),
(92,688,l),
(158,696,o),
(209,701,o),
(249,701,cs),
(395,701,o),
(469,650,o),
(469,554,cs),
(469,459,o),
(398,407,o),
(268,407,cs),
(99,407,l),
(99,368,l),
(269,368,ls),
(432,368,o),
(516,310,o),
(516,199,cs),
(516,86,o),
(430,30,o),
(244,30,cs)
);
}
);
width = 607;
},
{
associatedMasterId = m004;
attr = {
axisRules = (
{
},
{
max = 150;
min = 100;
}
);
};
layerId = "2CD06F6B-4F8F-4796-94F0-062F0D0B15DF";
metricRight = "=H*.6";
name = "Jun 14, 26 at 17:45";
shapes = (
{
closed = 1;
nodes = (
(445,0,o),
(550,65,o),
(550,195,cs),
(550,299,o),
(484,369,o),
(365,391,c),
(365,393,l),
(452,417,o),
(500,477,o),
(500,560,cs),
(500,672,o),
(412,730,o),
(241,730,cs),
(199,730,o),
(160,730,o),
(80,730,c),
(80,0,l),
(140,0,o),
(183,0,o),
(234,0,cs)
);
},
{
closed = 1;
nodes = (
(184,20,o),
(143,20,o),
(83,20,c),
(100,14,l),
(100,716,l),
(82,710,l),
(162,710,o),
(200,710,o),
(241,710,cs),
(403,710,o),
(480,658,o),
(480,560,cs),
(480,486,o),
(437,400,o),
(262,400,cs),
(90,400,l),
(90,380,l),
(262,380,ls),
(470,380,o),
(530,289,o),
(530,195,cs),
(530,79,o),
(437,20,o),
(234,20,cs)
);
}
);
width = 598;
},
{
associatedMasterId = m004;
attr = {
axisRules = (
{
},
{
max = 150;
min = 100;
}
);
coordinates = (
200,
100
);
};
layerId = "4F1B4BE8-EDDA-468F-8D03-044AB595CA70";
metricRight = "=H*.6";
name = "Jun 9, 26 at 21:16";
shapes = (
{
closed = 1;
nodes = (
(455,0,o),
(560,64,o),
(560,196,cs),
(560,298,o),
(498,369,o),
(391,390,c),
(391,392,l),
(468,416,o),
(513,478,o),
(513,559,cs),
(513,673,o),
(425,730,o),
(248,730,cs),
(201,730,o),
(157,730,o),
(78,730,c),
(78,0,l),
(138,0,o),
(185,0,o),
(239,0,cs)
);
},
{
closed = 1;
nodes = (
(196,40,o),
(146,40,o),
(93,40,c),
(120,19,l),
(120,712,l),
(92,691,l),
(159,691,o),
(209,691,o),
(249,691,cs),
(398,691,o),
(469,643,o),
(469,552,cs),
(469,480,o),
(424,407,o),
(268,407,cs),
(99,407,l),
(99,368,l),
(269,368,ls),
(456,368,o),
(516,291,o),
(516,200,cs),
(516,93,o),
(431,40,o),
(244,40,cs)
);
}
);
width = 607;
},
{
layerId = m005;
metricRight = "=H*.5";
shapes = (
{
closed = 1;
nodes = (
(480,-10,o),
(590,56,o),
(590,198,cs),
(590,300,o),
(533,367,o),
(428,385,c),
(428,387,l),
(509,413,o),
(550,471,o),
(550,555,cs),
(550,682,o),
(457,740,o),
(256,740,cs),
(196,740,o),
(142,735,o),
(70,726,c),
(70,4,l),
(129,-6,o),
(183,-10,o),
(242,-10,cs)
);
},
{
closed = 1;
nodes = (
(231,88,o),
(154,92,o),
(123,96,c),
(179,32,l),
(179,699,l),
(123,634,l),
(149,637,o),
(234,642,o),
(274,642,cs),
(381,642,o),
(435,606,o),
(435,534,cs),
(435,464,o),
(384,428,o),
(284,428,cs),
(124,428,l),
(124,332,l),
(289,332,ls),
(415,332,o),
(475,293,o),
(475,211,cs),
(475,127,o),
(412,88,o),
(275,88,cs)
);
}
);
width = 625;
},
{
associatedMasterId = m005;
attr = {
axisRules = (
{
},
{
max = 150;
min = 100;
}
);
};
layerId = "8060C201-5DEE-4975-A598-B4EB239F2D66";
metricRight = "=H*.5";
name = "Jun 14, 26 at 17:28";
shapes = (
{
closed = 1;
nodes = (
(485,0,o),
(590,62,o),
(590,198,cs),
(590,300,o),
(531,367,o),
(428,385,c),
(428,387,l),
(507,413,o),
(550,470,o),
(550,555,cs),
(550,676,o),
(463,730,o),
(269,730,cs),
(205,730,o),
(147,730,o),
(70,730,c),
(70,0,l),
(133,0,o),
(192,0,o),
(255,0,cs)
);
},
{
closed = 1;
nodes = (
(230,98,o),
(154,98,o),
(123,98,c),
(179,32,l),
(179,699,l),
(123,632,l),
(149,632,o),
(237,632,o),
(274,632,cs),
(381,632,o),
(435,598,o),
(435,529,cs),
(435,462,o),
(384,428,o),
(284,428,cs),
(124,428,l),
(124,332,l),
(289,332,ls),
(415,332,o),
(475,295,o),
(475,216,cs),
(475,135,o),
(412,98,o),
(275,98,cs)
);
}
);
width = 625;
},
{
layerId = m006;
metricRight = "=H*.4";
shapes = (
{
closed = 1;
nodes = (
(518,-10,o),
(630,51,o),
(630,200,cs),
(630,303,o),
(577,364,o),
(475,378,c),
(475,380,l),
(562,409,o),
(600,460,o),
(600,550,cs),
(600,688,o),
(509,740,o),
(266,740,cs),
(191,740,o),
(125,735,o),
(60,726,c),
(60,4,l),
(137,-6,o),
(176,-10,o),
(246,-10,cs)
);
},
{
closed = 1;
nodes = (
(253,147,o),
(220,147,o),
(159,147,c),
(258,48,l),
(258,682,l),
(159,583,l),
(219,583,o),
(256,583,o),
(311,583,cs),
(366,583,o),
(390,562,o),
(390,513,cs),
(390,466,o),
(368,447,o),
(311,447,cs),
(159,447,l),
(159,293,l),
(321,293,ls),
(394,293,o),
(420,274,o),
(420,222,cs),
(420,168,o),
(392,147,o),
(321,147,cs)
);
}
);
width = 654;
},
{
associatedMasterId = m006;
attr = {
axisRules = (
{
},
{
max = 150;
min = 100;
}
);
};
layerId = "8D11030C-BE9D-4093-894E-515C8C7DF80E";
metricRight = "=H*.4";
name = "Jun 14, 26 at 17:14";
shapes = (
{
closed = 1;
nodes = (
(528,0,o),
(630,58,o),
(630,200,cs),
(630,303,o),
(576,364,o),
(475,378,c),
(475,380,l),
(562,409,o),
(600,461,o),
(600,550,cs),
(600,681,o),
(518,730,o),
(296,730,cs),
(210,730,o),
(134,730,o),
(60,730,c),
(60,0,l),
(149,0,o),
(195,0,o),
(276,0,cs)
);
},
{
closed = 1;
nodes = (
(253,157,o),
(220,157,o),
(159,157,c),
(258,48,l),
(258,682,l),
(159,573,l),
(219,573,o),
(256,573,o),
(311,573,cs),
(366,573,o),
(390,553,o),
(390,508,cs),
(390,464,o),
(368,447,o),
(311,447,cs),
(159,447,l),
(159,293,l),
(321,293,ls),
(394,293,o),
(420,275,o),
(420,227,cs),
(420,177,o),
(392,157,o),
(321,157,cs)
);
}
);
width = 654;
},
{
associatedMasterId = m002;
attr = {
axisRules = (
{
},
{
max = 150;
min = 100;
}
);
};
layerId = "2802B45B-26D9-4ABF-839D-724F2B009C71";
metricRight = "=H*.5";
name = "Jun 15, 26 at 20:59";
shapes = (
{
closed = 1;
nodes = (
(477,0,o),
(580,62,o),
(580,198,cs),
(580,300,o),
(522,367,o),
(421,385,c),
(421,387,l),
(499,413,o),
(541,470,o),
(541,555,cs),
(541,676,o),
(455,730,o),
(265,730,cs),
(202,730,o),
(146,730,o),
(70,730,c),
(70,0,l),
(132,0,o),
(190,0,o),
(251,0,cs)
);
},
{
closed = 1;
nodes = (
(228,98,o),
(154,98,o),
(124,98,c),
(179,32,l),
(179,699,l),
(124,632,l),
(149,632,o),
(235,632,o),
(270,632,cs),
(374,632,o),
(426,598,o),
(426,529,cs),
(426,462,o),
(377,428,o),
(280,428,cs),
(125,428,l),
(125,332,l),
(285,332,ls),
(407,332,o),
(465,295,o),
(465,216,cs),
(465,135,o),
(404,98,o),
(271,98,cs)
);
}
);
width = 615;
},
{
associatedMasterId = m003;
attr = {
axisRules = (
{
},
{
max = 150;
min = 100;
}
);
};
layerId = "6B768C5E-A1D0-4819-A003-44E97986E5A1";
metricRight = "=H*.4";
name = "Jun 15, 26 at 20:59";
shapes = (
{
closed = 1;
nodes = (
(528,0,o),
(630,58,o),
(630,200,cs),
(630,303,o),
(576,364,o),
(475,378,c),
(475,380,l),
(562,409,o),
(600,461,o),
(600,550,cs),
(600,681,o),
(518,730,o),
(296,730,cs),
(210,730,o),
(134,730,o),
(60,730,c),
(60,0,l),
(149,0,o),
(195,0,o),
(276,0,cs)
);
},
{
closed = 1;
nodes = (
(253,157,o),
(220,157,o),
(159,157,c),
(258,48,l),
(258,682,l),
(159,573,l),
(219,573,o),
(256,573,o),
(311,573,cs),
(366,573,o),
(390,553,o),
(390,508,cs),
(390,464,o),
(368,447,o),
(311,447,cs),
(159,447,l),
(159,293,l),
(321,293,ls),
(394,293,o),
(420,275,o),
(420,227,cs),
(420,177,o),
(392,157,o),
(321,157,cs)
);
}
);
width = 654;
}
);
metricLeft = "=H";
metricRight = "=H*.6";
unicode = 66;
},
{
color = 4;
glyphname = C;
kernLeft = O;
kernRight = C;
lastChange = "2026-06-23 09:17:09 +0000";
layers = (
{
layerId = m01;
shapes = (
{
closed = 1;
nodes = (
(522,-20,o),
(618,1,o),
(690,36,c),
(681,54,l),
(611,20,o),
(520,0,o),
(435,0,cs),
(209,0,o),
(60,145,o),
(60,365,cs),
(60,585,o),
(209,730,o),
(435,730,cs),
(520,730,o),
(611,710,o),
(681,676,c),
(690,694,l),
(618,729,o),
(522,750,o),
(435,750,cs),
(198,750,o),
(40,596,o),
(40,365,cs),
(40,134,o),
(198,-20,o),
(435,-20,cs)
);
}
);
width = 754;
},
{
layerId = m002;
shapes = (
{
closed = 1;
nodes = (
(525,-20,o),
(622,1,o),
(695,36,c),
(673,134,l),
(609,104,o),
(521,85,o),
(446,85,cs),
(265,85,o),
(150,194,o),
(150,365,cs),
(150,536,o),
(265,645,o),
(446,645,cs),
(521,645,o),
(609,626,o),
(673,596,c),
(695,694,l),
(622,729,o),
(525,750,o),
(436,750,cs),
(196,750,o),
(35,596,o),
(35,365,cs),
(35,134,o),
(196,-20,o),
(436,-20,cs)
);
}
);
width = 751;
},
{
layerId = m005;
shapes = (
{
closed = 1;
nodes = (
(472,-20,o),
(568,2,o),
(635,36,c),
(613,134,l),
(556,105,o),
(470,85,o),
(402,85,cs),
(246,85,o),
(150,192,o),
(150,365,cs),
(150,538,o),
(246,645,o),
(402,645,cs),
(470,645,o),
(556,625,o),
(613,596,c),
(635,694,l),
(568,728,o),
(472,750,o),
(391,750,cs),
(177,750,o),
(35,596,o),
(35,365,cs),
(35,134,o),
(177,-20,o),
(391,-20,cs)
);
}
);
width = 691;
},
{
layerId = m003;
name = Black;
shapes = (
{
closed = 1;
nodes = (
(527,-20,o),
(626,1,o),
(700,36,c),
(664,214,l),
(607,188,o),
(525,170,o),
(457,170,cs),
(320,170,o),
(240,242,o),
(240,365,cs),
(240,488,o),
(320,560,o),
(457,560,cs),
(525,560,o),
(607,542,o),
(664,516,c),
(700,694,l),
(626,729,o),
(527,750,o),
(437,750,cs),
(193,750,o),
(30,596,o),
(30,365,cs),
(30,134,o),
(193,-20,o),
(437,-20,cs)
);
}
);
width = 748;
},
{
background = {
shapes = (
{
closed = 0;
nodes = (
(638,535,l),
(670,695,l)
);
}
);
};
layerId = m006;
name = "Black F2";
shapes = (
{
closed = 1;
nodes = (
(495,-20,o),
(598,2,o),
(670,36,c),
(634,214,l),
(582,189,o),
(495,170,o),
(432,170,cs),
(310,170,o),
(240,241,o),
(240,365,cs),
(240,489,o),
(310,560,o),
(432,560,cs),
(495,560,o),
(582,541,o),
(634,516,c),
(670,694,l),
(598,728,o),
(495,750,o),
(409,750,cs),
(182,750,o),
(30,596,o),
(30,365,cs),
(30,134,o),
(182,-20,o),
(409,-20,cs)
);
}
);
width = 718;
},
{
background = {
shapes = (
{
closed = 1;
nodes = (
(389,-20,o),
(472,1,o),
(530,36,c),
(518,53,l),
(463,20,o),
(386,0,o),
(309,0,cs),
(112,0,o),
(-10,137,o),
(-10,365,cs),
(-10,593,o),
(112,730,o),
(309,730,cs),
(386,730,o),
(463,710,o),
(518,677,c),
(530,694,l),
(472,729,o),
(389,750,o),
(309,750,cs),
(99,750,o),
(-30,603,o),
(-30,365,cs),
(-30,127,o),
(99,-20,o),
(309,-20,cs)
);
}
);
};
layerId = m004;
name = "Thin F2";
shapes = (
{
closed = 1;
nodes = (
(447,-20,o),
(537,2,o),
(600,36,c),
(591,54,l),
(530,21,o),
(444,0,o),
(372,0,cs),
(185,0,o),
(60,144,o),
(60,365,cs),
(60,586,o),
(185,730,o),
(372,730,cs),
(444,730,o),
(530,709,o),
(591,676,c),
(600,694,l),
(537,728,o),
(447,750,o),
(372,750,cs),
(173,750,o),
(40,596,o),
(40,365,cs),
(40,134,o),
(173,-20,o),
(372,-20,cs)
);
}
);
width = 664;
}
);
metricLeft = "=O";
metricRight = "=H*.8";
unicode = 67;
},
{
color = 4;
glyphname = D;
kernLeft = H;
kernRight = O;
lastChange = "2026-06-26 07:59:38 +0000";
layers = (
{
layerId = m01;
shapes = (
{
closed = 1;
nodes = (
(456,-10,o),
(570,119,o),
(570,365,cs),
(570,611,o),
(456,740,o),
(240,740,cs),
(193,740,o),
(129,734,o),
(80,726,c),
(80,4,l),
(129,-4,o),
(193,-10,o),
(240,-10,cs)
);
},
{
closed = 1;
nodes = (
(194,10,o),
(132,16,o),
(83,24,c),
(100,5,l),
(100,725,l),
(83,706,l),
(132,714,o),
(194,720,o),
(240,720,cs),
(444,720,o),
(550,601,o),
(550,365,cs),
(550,129,o),
(444,10,o),
(240,10,cs)
);
}
);
width = 610;
},
{
layerId = m002;
shapes = (
{
closed = 1;
nodes = (
(485,-10,o),
(610,119,o),
(610,365,cs),
(610,611,o),
(485,740,o),
(247,740,cs),
(200,740,o),
(139,735,o),
(70,726,c),
(70,4,l),
(139,-5,o),
(200,-10,o),
(247,-10,cs)
);
},
{
closed = 1;
nodes = (
(228,88,o),
(161,91,o),
(122,95,c),
(180,38,l),
(180,693,l),
(122,635,l),
(161,639,o),
(228,642,o),
(258,642,cs),
(419,642,o),
(497,552,o),
(497,365,cs),
(497,178,o),
(420,88,o),
(258,88,cs)
);
}
);
width = 645;
},
{
layerId = m003;
shapes = (
{
closed = 1;
nodes = (
(513,-10,o),
(650,119,o),
(650,365,cs),
(650,611,o),
(513,740,o),
(253,740,cs),
(207,740,o),
(149,736,o),
(60,726,c),
(60,4,l),
(149,-6,o),
(207,-10,o),
(253,-10,cs)
);
},
{
closed = 1;
nodes = (
(249,166,o),
(200,166,o),
(160,166,c),
(260,70,l),
(260,660,l),
(160,564,l),
(200,564,o),
(249,564,o),
(275,564,cs),
(393,564,o),
(444,504,o),
(444,365,cs),
(444,226,o),
(393,166,o),
(275,166,cs)
);
}
);
width = 680;
},
{
layerId = m004;
shapes = (
{
closed = 1;
nodes = (
(464,-10,o),
(580,119,o),
(580,365,cs),
(580,611,o),
(464,740,o),
(243,740,cs),
(195,740,o),
(130,734,o),
(80,726,c),
(80,4,l),
(130,-4,o),
(195,-10,o),
(243,-10,cs)
);
},
{
closed = 1;
nodes = (
(196,10,o),
(133,16,o),
(83,24,c),
(100,5,l),
(100,725,l),
(83,706,l),
(133,714,o),
(196,720,o),
(243,720,cs),
(452,720,o),
(560,601,o),
(560,365,cs),
(560,129,o),
(452,10,o),
(243,10,cs)
);
}
);
width = 620;
},
{
layerId = m005;
shapes = (
{
closed = 1;
nodes = (
(493,-10,o),
(620,119,o),
(620,365,cs),
(620,611,o),
(493,740,o),
(250,740,cs),
(202,740,o),
(140,735,o),
(70,726,c),
(70,4,l),
(140,-5,o),
(202,-10,o),
(250,-10,cs)
);
},
{
closed = 1;
nodes = (
(230,88,o),
(161,91,o),
(121,95,c),
(180,38,l),
(180,693,l),
(121,635,l),
(161,639,o),
(230,642,o),
(260,642,cs),
(427,642,o),
(507,552,o),
(507,365,cs),
(507,178,o),
(427,88,o),
(260,88,cs)
);
}
);
width = 655;
},
{
associatedMasterId = m006;
attr = {
axisRules = (
{
},
{
max = 150;
min = 100;
}
);
};
layerId = "917F88B9-AC39-4EB0-AEDC-ED192323635B";
name = "Jun 14, 26 at 20:14";
shapes = (
{
closed = 1;
nodes = (
(532,0,o),
(660,125,o),
(660,365,cs),
(660,605,o),
(532,730,o),
(287,730,cs),
(233,730,o),
(165,730,o),
(60,730,c),
(60,0,l),
(165,0,o),
(233,0,o),
(287,0,cs)
);
},
{
closed = 1;
nodes = (
(258,176,o),
(203,176,o),
(159,176,c),
(260,70,l),
(260,660,l),
(159,554,l),
(203,554,o),
(258,554,o),
(287,554,cs),
(404,554,o),
(454,497,o),
(454,365,cs),
(454,233,o),
(404,176,o),
(287,176,cs)
);
}
);
width = 690;
},
{
layerId = m006;
name = "Black F2";
shapes = (
{
closed = 1;
nodes = (
(521,-10,o),
(660,119,o),
(660,365,cs),
(660,611,o),
(521,740,o),
(256,740,cs),
(209,740,o),
(151,736,o),
(60,726,c),
(60,4,l),
(151,-6,o),
(209,-10,o),
(256,-10,cs)
);
},
{
closed = 1;
nodes = (
(251,166,o),
(200,166,o),
(159,166,c),
(260,70,l),
(260,660,l),
(159,564,l),
(200,564,o),
(251,564,o),
(278,564,cs),
(401,564,o),
(454,504,o),
(454,365,cs),
(454,226,o),
(401,166,o),
(278,166,cs)
);
}
);
width = 690;
},
{
associatedMasterId = m004;
attr = {
axisRules = (
{
},
{
max = 150;
min = 100;
}
);
};
layerId = "2C313F7F-C172-496B-8618-15F2998ADFC4";
name = "Jun 14, 26 at 20:18";
shapes = (
{
closed = 1;
nodes = (
(474,0,o),
(580,125,o),
(580,365,cs),
(580,605,o),
(474,730,o),
(269,730,cs),
(224,730,o),
(168,730,o),
(80,730,c),
(80,0,l),
(168,0,o),
(224,0,o),
(269,0,cs)
);
},
{
closed = 1;
nodes = (
(224,20,o),
(178,20,o),
(90,20,c),
(100,10,l),
(100,720,l),
(90,710,l),
(178,710,o),
(224,710,o),
(269,710,cs),
(462,710,o),
(560,595,o),
(560,365,cs),
(560,135,o),
(462,20,o),
(269,20,cs)
);
}
);
width = 620;
},
{
associatedMasterId = m005;
attr = {
axisRules = (
{
},
{
max = 150;
min = 100;
}
);
};
layerId = "0B885725-F10F-4644-9827-EA65289D82C3";
name = "Jun 14, 26 at 20:30";
shapes = (
{
closed = 1;
nodes = (
(502,0,o),
(620,126,o),
(620,365,cs),
(620,604,o),
(502,730,o),
(278,730,cs),
(223,730,o),
(151,730,o),
(70,730,c),
(70,0,l),
(151,0,o),
(223,0,o),
(278,0,cs)
);
},
{
closed = 1;
nodes = (
(244,98,o),
(166,98,o),
(121,98,c),
(180,38,l),
(180,693,l),
(121,632,l),
(166,632,o),
(244,632,o),
(278,632,cs),
(433,632,o),
(507,546,o),
(507,365,cs),
(507,184,o),
(433,98,o),
(278,98,cs)
);
}
);
width = 655;
},
{
associatedMasterId = m01;
attr = {
axisRules = (
{
},
{
max = 150;
min = 100;
}
);
};
layerId = "08845D47-9C10-4CC7-8019-E07738689642";
name = "Jun 15, 26 at 20:56";
shapes = (
{
closed = 1;
nodes = (
(466,0,o),
(570,125,o),
(570,365,cs),
(570,605,o),
(466,730,o),
(265,730,cs),
(221,730,o),
(166,730,o),
(80,730,c),
(80,0,l),
(166,0,o),
(221,0,o),
(265,0,cs)
);
},
{
closed = 1;
nodes = (
(221,20,o),
(176,20,o),
(90,20,c),
(100,10,l),
(100,720,l),
(90,710,l),
(176,710,o),
(221,710,o),
(265,710,cs),
(454,710,o),
(550,595,o),
(550,365,cs),
(550,135,o),
(454,20,o),
(265,20,cs)
);
}
);
width = 610;
},
{
associatedMasterId = m002;
attr = {
axisRules = (
{
},
{
max = 150;
min = 100;
}
);
};
layerId = "0A29775C-4A36-4DE7-8E65-A7018B973283";
name = "Jun 15, 26 at 20:56";
shapes = (
{
closed = 1;
nodes = (
(494,0,o),
(610,126,o),
(610,365,cs),
(610,604,o),
(494,730,o),
(274,730,cs),
(220,730,o),
(150,730,o),
(70,730,c),
(70,0,l),
(150,0,o),
(220,0,o),
(274,0,cs)
);
},
{
closed = 1;
nodes = (
(242,98,o),
(166,98,o),
(122,98,c),
(180,38,l),
(180,693,l),
(122,632,l),
(166,632,o),
(242,632,o),
(274,632,cs),
(425,632,o),
(497,546,o),
(497,365,cs),
(497,184,o),
(425,98,o),
(274,98,cs)
);
}
);
width = 645;
},
{
associatedMasterId = m003;
attr = {
axisRules = (
{
},
{
max = 150;
min = 100;
}
);
};
layerId = "DC3B71D2-4A19-40D9-869C-876F9570803E";
name = "Jun 15, 26 at 20:56";
shapes = (
{
closed = 1;
nodes = (
(524,0,o),
(650,125,o),
(650,365,cs),
(650,605,o),
(524,730,o),
(283,730,cs),
(230,730,o),
(163,730,o),
(60,730,c),
(60,0,l),
(163,0,o),
(230,0,o),
(283,0,cs)
);
},
{
closed = 1;
nodes = (
(256,176,o),
(203,176,o),
(162,176,c),
(260,70,l),
(260,660,l),
(162,554,l),
(203,554,o),
(256,554,o),
(284,554,cs),
(396,554,o),
(444,497,o),
(444,365,cs),
(444,233,o),
(396,176,o),
(284,176,cs)
);
}
);
width = 680;
}
);
metricLeft = "=H";
metricRight = "=O";
unicode = 68;
},
{
color = 4;
glyphname = E;
kernLeft = H;
kernRight = E;
lastChange = "2026-06-26 07:53:42 +0000";
layers = (
{
layerId = m01;
shapes = (
{
closed = 1;
nodes = (
(460,0,l),
(460,20,l),
(100,20,l),
(100,380,l),
(440,380,l),
(440,400,l),
(100,400,l),
(100,710,l),
(460,710,l),
(460,730,l),
(80,730,l),
(80,0,l)
);
}
);
width = 532;
},
{
layerId = m002;
shapes = (
{
closed = 1;
nodes = (
(490,0,l),
(490,98,l),
(180,98,l),
(180,331,l),
(470,331,l),
(470,429,l),
(180,429,l),
(180,632,l),
(490,632,l),
(490,730,l),
(70,730,l),
(70,0,l)
);
}
);
width = 553;
},
{
layerId = m003;
shapes = (
{
closed = 1;
nodes = (
(520,0,l),
(520,172,l),
(260,172,l),
(260,285,l),
(500,285,l),
(500,455,l),
(260,455,l),
(260,558,l),
(520,558,l),
(520,730,l),
(60,730,l),
(60,0,l)
);
}
);
width = 574;
},
{
layerId = m004;
shapes = (
{
closed = 1;
nodes = (
(480,0,l),
(480,20,l),
(100,20,l),
(100,380,l),
(460,380,l),
(460,400,l),
(100,400,l),
(100,710,l),
(480,710,l),
(480,730,l),
(80,730,l),
(80,0,l)
);
}
);
width = 552;
},
{
layerId = m005;
shapes = (
{
closed = 1;
nodes = (
(520,0,l),
(520,98,l),
(180,98,l),
(180,331,l),
(500,331,l),
(500,429,l),
(180,429,l),
(180,632,l),
(520,632,l),
(520,730,l),
(70,730,l),
(70,0,l)
);
}
);
width = 583;
},
{
layerId = m006;
shapes = (
{
closed = 1;
nodes = (
(560,0,l),
(560,172,l),
(260,172,l),
(260,285,l),
(540,285,l),
(540,455,l),
(260,455,l),
(260,558,l),
(560,558,l),
(560,730,l),
(60,730,l),
(60,0,l)
);
}
);
width = 614;
}
);
metricLeft = "=H";
metricRight = "=H*.9";
unicode = 69;
},
{
color = 4;
glyphname = F;
kernLeft = H;
kernRight = F;
lastChange = "2026-06-26 07:54:30 +0000";
layers = (
{
layerId = m01;
shapes = (
{
closed = 1;
nodes = (
(100,0,l),
(100,380,l),
(440,380,l),
(440,400,l),
(100,400,l),
(100,710,l),
(460,710,l),
(460,730,l),
(80,730,l),
(80,0,l)
);
}
);
width = 508;
},
{
layerId = m002;
shapes = (
{
closed = 1;
nodes = (
(180,0,l),
(180,326,l),
(475,326,l),
(475,424,l),
(180,424,l),
(180,632,l),
(495,632,l),
(495,730,l),
(70,730,l),
(70,0,l)
);
}
);
width = 537;
},
{
layerId = m003;
shapes = (
{
closed = 1;
nodes = (
(260,0,l),
(260,272,l),
(510,272,l),
(510,448,l),
(260,448,l),
(260,554,l),
(530,554,l),
(530,730,l),
(60,730,l),
(60,0,l)
);
}
);
width = 566;
},
{
layerId = m004;
shapes = (
{
closed = 1;
nodes = (
(100,0,l),
(100,380,l),
(480,380,l),
(480,400,l),
(100,400,l),
(100,710,l),
(500,710,l),
(500,730,l),
(80,730,l),
(80,0,l)
);
}
);
width = 548;
},
{
layerId = m005;
shapes = (
{
closed = 1;
nodes = (
(180,0,l),
(180,326,l),
(515,326,l),
(515,424,l),
(180,424,l),
(180,632,l),
(535,632,l),
(535,730,l),
(70,730,l),
(70,0,l)
);
}
);
width = 577;
},
{
layerId = m006;
shapes = (
{
closed = 1;
nodes = (
(260,0,l),
(260,272,l),
(550,272,l),
(550,448,l),
(260,448,l),
(260,554,l),
(570,554,l),
(570,730,l),
(60,730,l),
(60,0,l)
);
}
);
width = 606;
}
);
metricLeft = "=H";
metricRight = "=H*.6";
unicode = 70;
},
{
color = 4;
glyphname = G;
kernLeft = O;
kernRight = G;
lastChange = "2026-06-26 07:49:32 +0000";
layers = (
{
layerId = m003;
name = "Black F1";
shapes = (
{
closed = 1;
nodes = (
(553,-20,o),
(675,5,o),
(750,42,c),
(750,449,l),
(384,449,l),
(384,271,l),
(550,271,l),
(550,156,l),
(565,181,l),
(529,166,o),
(499,160,o),
(459,160,cs),
(316,160,o),
(236,233,o),
(236,365,cs),
(236,495,o),
(313,570,o),
(447,570,cs),
(518,570,o),
(605,549,o),
(659,519,c),
(701,693,l),
(630,730,o),
(541,750,o),
(446,750,cs),
(188,750,o),
(30,603,o),
(30,365,cs),
(30,127,o),
(188,-20,o),
(446,-20,cs)
);
}
);
width = 804;
},
{
layerId = m002;
name = "Medium F1";
shapes = (
{
closed = 1;
nodes = (
(550,-20,o),
(662,3,o),
(735,39,c),
(735,419,l),
(381,419,l),
(381,321,l),
(625,321,l),
(625,81,l),
(638,117,l),
(586,93,o),
(522,80,o),
(455,80,cs),
(263,80,o),
(148,186,o),
(148,365,cs),
(148,543,o),
(261,650,o),
(449,650,cs),
(530,650,o),
(608,630,o),
(672,593,c),
(696,691,l),
(626,730,o),
(543,750,o),
(449,750,cs),
(193,750,o),
(35,603,o),
(35,365,cs),
(35,127,o),
(194,-20,o),
(449,-20,cs)
);
}
);
width = 798;
},
{
layerId = m01;
name = "Thin F1";
shapes = (
{
closed = 1;
nodes = (
(546,-20,o),
(649,1,o),
(720,35,c),
(720,390,l),
(378,390,l),
(378,370,l),
(700,370,l),
(700,36,l),
(711,53,l),
(642,20,o),
(544,0,o),
(451,0,cs),
(209,0,o),
(60,139,o),
(60,365,cs),
(60,591,o),
(209,730,o),
(451,730,cs),
(541,730,o),
(614,711,o),
(680,671,c),
(690,688,l),
(621,730,o),
(544,750,o),
(451,750,cs),
(198,750,o),
(40,602,o),
(40,365,cs),
(40,128,o),
(198,-20,o),
(451,-20,cs)
);
}
);
width = 792;
},
{
layerId = m005;
name = "Medium F2";
shapes = (
{
closed = 1;
nodes = (
(513,-20,o),
(617,3,o),
(685,39,c),
(685,419,l),
(356,419,l),
(356,321,l),
(575,321,l),
(575,96,l),
(593,117,l),
(543,92,o),
(486,80,o),
(427,80,cs),
(252,80,o),
(148,186,o),
(148,365,cs),
(148,543,o),
(251,650,o),
(422,650,cs),
(496,650,o),
(567,630,o),
(623,595,c),
(648,691,l),
(583,730,o),
(506,750,o),
(419,750,cs),
(182,750,o),
(35,603,o),
(35,365,cs),
(35,127,o),
(182,-20,o),
(419,-20,cs)
);
}
);
width = 748;
},
{
layerId = m004;
name = "Thin F2";
shapes = (
{
closed = 1;
nodes = (
(494,-20,o),
(586,1,o),
(650,35,c),
(650,390,l),
(343,390,l),
(343,370,l),
(630,370,l),
(630,36,l),
(641,53,l),
(579,20,o),
(491,0,o),
(409,0,cs),
(193,0,o),
(60,139,o),
(60,365,cs),
(60,591,o),
(193,730,o),
(409,730,cs),
(489,730,o),
(553,711,o),
(612,671,c),
(623,688,l),
(561,730,o),
(492,750,o),
(409,750,cs),
(182,750,o),
(40,602,o),
(40,365,cs),
(40,128,o),
(182,-20,o),
(409,-20,cs)
);
}
);
width = 722;
},
{
layerId = m006;
name = "Black F2";
shapes = (
{
closed = 1;
nodes = (
(531,-20,o),
(648,5,o),
(720,42,c),
(720,449,l),
(369,449,l),
(369,271,l),
(520,271,l),
(520,156,l),
(545,181,l),
(511,166,o),
(483,160,o),
(445,160,cs),
(311,160,o),
(236,233,o),
(236,365,cs),
(236,495,o),
(308,570,o),
(435,570,cs),
(502,570,o),
(580,549,o),
(633,519,c),
(673,693,l),
(605,730,o),
(520,750,o),
(429,750,cs),
(182,750,o),
(30,604,o),
(30,365,cs),
(30,126,o),
(182,-20,o),
(429,-20,cs)
);
}
);
width = 774;
}
);
metricLeft = "=O";
metricRight = "=H*.9";
unicode = 71;
},
{
color = 4;
glyphname = H;
kernLeft = H;
kernRight = H;
lastChange = "2026-06-26 07:45:33 +0000";
layers = (
{
layerId = m01;
shapes = (
{
closed = 1;
nodes = (
(100,0,l),
(100,400,l),
(620,400,l),
(620,0,l),
(640,0,l),
(640,730,l),
(620,730,l),
(620,420,l),
(100,420,l),
(100,730,l),
(80,730,l),
(80,0,l)
);
}
);
width = 720;
},
{
layerId = m002;
shapes = (
{
closed = 1;
nodes = (
(180,0,l),
(180,350,l),
(570,350,l),
(570,0,l),
(680,0,l),
(680,730,l),
(570,730,l),
(570,450,l),
(180,450,l),
(180,730,l),
(70,730,l),
(70,0,l)
);
}
);
width = 750;
},
{
layerId = m003;
shapes = (
{
closed = 1;
nodes = (
(260,0,l),
(260,300,l),
(520,300,l),
(520,0,l),
(720,0,l),
(720,730,l),
(520,730,l),
(520,480,l),
(260,480,l),
(260,730,l),
(60,730,l),
(60,0,l)
);
}
);
width = 780;
},
{
layerId = m004;
shapes = (
{
closed = 1;
nodes = (
(100,0,l),
(100,380,l),
(560,380,l),
(560,0,l),
(580,0,l),
(580,730,l),
(560,730,l),
(560,400,l),
(100,400,l),
(100,730,l),
(80,730,l),
(80,0,l)
);
}
);
width = 660;
},
{
layerId = m005;
shapes = (
{
closed = 1;
nodes = (
(180,0,l),
(180,330,l),
(510,330,l),
(510,0,l),
(620,0,l),
(620,730,l),
(510,730,l),
(510,430,l),
(180,430,l),
(180,730,l),
(70,730,l),
(70,0,l)
);
}
);
width = 690;
},
{
layerId = m006;
shapes = (
{
closed = 1;
nodes = (
(260,0,l),
(260,280,l),
(460,280,l),
(460,0,l),
(660,0,l),
(660,730,l),
(460,730,l),
(460,460,l),
(260,460,l),
(260,730,l),
(60,730,l),
(60,0,l)
);
}
);
width = 720;
}
);
metricRight = "=|";
unicode = 72;
},
{
color = 4;
glyphname = I;
kernLeft = I;
kernRight = I;
lastChange = "2026-06-23 09:36:47 +0000";
layers = (
{
layerId = m01;
shapes = (
{
closed = 1;
nodes = (
(100,0,l),
(100,730,l),
(80,730,l),
(80,0,l)
);
}
);
width = 180;
},
{
layerId = m002;
shapes = (
{
closed = 1;
nodes = (
(184,0,l),
(184,730,l),
(70,730,l),
(70,0,l)
);
}
);
width = 254;
},
{
layerId = m003;
shapes = (
{
closed = 1;
nodes = (
(270,0,l),
(270,730,l),
(60,730,l),
(60,0,l)
);
}
);
width = 330;
},
{
layerId = m004;
shapes = (
{
closed = 1;
nodes = (
(100,0,l),
(100,730,l),
(80,730,l),
(80,0,l)
);
}
);
width = 180;
},
{
layerId = m005;
shapes = (
{
closed = 1;
nodes = (
(184,0,l),
(184,730,l),
(70,730,l),
(70,0,l)
);
}
);
width = 254;
},
{
layerId = m006;
shapes = (
{
closed = 1;
nodes = (
(270,0,l),
(270,730,l),
(60,730,l),
(60,0,l)
);
}
);
width = 330;
}
);
metricLeft = "=H";
metricRight = "=|";
unicode = 73;
},
{
color = 4;
glyphname = J;
kernLeft = I;
kernRight = I;
lastChange = "2026-07-02 11:54:29 +0000";
layers = (
{
layerId = m01;
metricLeft = "=I-160";
shapes = (
{
closed = 1;
nodes = (
(63,-151,o),
(110,-64,o),
(110,104,cs),
(110,730,l),
(90,730,l),
(90,104,ls),
(90,-57,o),
(46,-138,o),
(-80,-213,c),
(-70,-230,l)
);
}
);
width = 190;
},
{
layerId = m002;
metricLeft = "=I-155";
shapes = (
{
closed = 1;
nodes = (
(143,-123,o),
(195,-21,o),
(195,174,cs),
(195,730,l),
(81,730,l),
(81,174,ls),
(81,21,o),
(42,-53,o),
(-85,-139,c),
(-11,-230,l)
);
}
);
width = 265;
},
{
layerId = m003;
metricLeft = "=I-150";
shapes = (
{
closed = 1;
nodes = (
(223,-94,o),
(280,23,o),
(280,244,cs),
(280,730,l),
(72,730,l),
(72,244,ls),
(72,91,o),
(39,26,o),
(-90,-74,c),
(48,-230,l)
);
}
);
width = 340;
},
{
layerId = m004;
metricLeft = "=I-200";
shapes = (
{
closed = 1;
nodes = (
(43,-174,o),
(110,-74,o),
(110,104,cs),
(110,730,l),
(90,730,l),
(90,104,ls),
(90,-66,o),
(28,-158,o),
(-120,-211,c),
(-113,-230,l)
);
}
);
width = 190;
},
{
layerId = m005;
metricLeft = "=I-195";
shapes = (
{
closed = 1;
nodes = (
(125,-139,o),
(195,-30,o),
(195,174,cs),
(195,730,l),
(81,730,l),
(81,174,ls),
(81,12,o),
(29,-66,o),
(-125,-136,c),
(-65,-230,l)
);
}
);
width = 265;
},
{
layerId = m006;
metricLeft = "=I-190";
shapes = (
{
closed = 1;
nodes = (
(210,-104,o),
(280,13,o),
(280,244,cs),
(280,730,l),
(72,730,l),
(72,244,ls),
(72,81,o),
(31,16,o),
(-130,-74,c),
(-4,-230,l)
);
}
);
width = 340;
}
);
metricLeft = "=I-210";
metricRight = "=I";
unicode = 74;
},
{
color = 4;
glyphname = K;
kernLeft = H;
kernRight = X;
lastChange = "2026-06-29 00:01:30 +0000";
layers = (
{
layerId = m01;
metricRight = "=H*.2";
shapes = (
{
closed = 1;
nodes = (
(100,0,l),
(100,365,l),
(102,365,l),
(102,395,l),
(100,395,l),
(100,730,l),
(80,730,l),
(80,0,l)
);
},
{
closed = 1;
nodes = (
(108,374,l),
(108,374,l),
(108,374,l),
(580,730,l),
(547,730,l),
(86,383,l)
);
},
{
closed = 1;
nodes = (
(590,0,l),
(111,384,l),
(87,377,l),
(557,0,l)
);
}
);
width = 606;
},
{
layerId = m002;
metricRight = "=H*.14";
shapes = (
{
closed = 1;
nodes = (
(180,0,l),
(180,356,l),
(182,356,l),
(182,410,l),
(180,410,l),
(180,730,l),
(70,730,l),
(70,0,l)
);
},
{
closed = 1;
nodes = (
(265,353,l),
(265,353,l),
(265,353,l),
(630,730,l),
(492,730,l),
(131,362,l)
);
},
{
closed = 1;
nodes = (
(640,0,l),
(274,405,l),
(141,397,l),
(500,0,l)
);
}
);
width = 650;
},
{
layerId = m003;
metricRight = "=H*.08";
name = Black;
shapes = (
{
closed = 1;
nodes = (
(260,0,l),
(260,336,l),
(262,336,l),
(262,416,l),
(260,416,l),
(260,730,l),
(60,730,l),
(60,0,l)
);
},
{
closed = 1;
nodes = (
(434,336,l),
(434,336,l),
(434,336,l),
(710,730,l),
(480,730,l),
(219,354,l)
);
},
{
closed = 1;
nodes = (
(720,0,l),
(427,427,l),
(227,389,l),
(484,0,l)
);
}
);
width = 725;
},
{
layerId = m004;
metricRight = "=H*.2";
shapes = (
{
closed = 1;
nodes = (
(100,0,l),
(100,365,l),
(102,365,l),
(102,395,l),
(100,395,l),
(100,730,l),
(80,730,l),
(80,0,l)
);
},
{
closed = 1;
nodes = (
(108,374,l),
(108,374,l),
(108,374,l),
(570,730,l),
(537,730,l),
(86,383,l)
);
},
{
closed = 1;
nodes = (
(580,0,l),
(112,383,l),
(89,376,l),
(548,0,l)
);
}
);
width = 596;
},
{
background = {
shapes = (
{
closed = 0;
nodes = (
(620,730,l),
(284,369,l)
);
},
{
closed = 0;
nodes = (
(292,383,l),
(630,0,l)
);
}
);
};
layerId = m005;
metricRight = "=H*.14";
shapes = (
{
closed = 1;
nodes = (
(180,0,l),
(180,358,l),
(182,358,l),
(182,406,l),
(180,406,l),
(180,730,l),
(70,730,l),
(70,0,l)
);
},
{
closed = 1;
nodes = (
(268,355,l),
(268,355,l),
(268,355,l),
(620,730,l),
(484,730,l),
(148,369,l)
);
},
{
closed = 1;
nodes = (
(630,0,l),
(270,405,l),
(160,383,l),
(498,0,l)
);
}
);
width = 640;
},
{
layerId = m006;
metricRight = "=H*.08";
shapes = (
{
closed = 1;
nodes = (
(260,0,l),
(260,350,l),
(262,350,l),
(262,417,l),
(260,417,l),
(260,730,l),
(60,730,l),
(60,0,l)
);
},
{
closed = 1;
nodes = (
(440,336,l),
(440,336,l),
(434,336,l),
(670,730,l),
(446,730,l),
(225,354,l)
);
},
{
closed = 1;
nodes = (
(680,0,l),
(424,427,l),
(240,389,l),
(460,0,l)
);
}
);
width = 685;
}
);
metricLeft = "=H";
metricRight = "=H*.3";
unicode = 75;
},
{
color = 4;
glyphname = L;
kernLeft = I;
kernRight = L;
lastChange = "2026-06-26 11:45:48 +0000";
layers = (
{
layerId = m01;
shapes = (
{
closed = 1;
nodes = (
(460,0,l),
(460,20,l),
(100,20,l),
(100,730,l),
(80,730,l),
(80,0,l)
);
}
);
width = 492;
},
{
layerId = m002;
shapes = (
{
closed = 1;
nodes = (
(500,0,l),
(500,100,l),
(184,100,l),
(184,730,l),
(70,730,l),
(70,0,l)
);
}
);
width = 528;
},
{
layerId = m003;
shapes = (
{
closed = 1;
nodes = (
(540,0,l),
(540,180,l),
(268,180,l),
(268,730,l),
(60,730,l),
(60,0,l)
);
}
);
width = 564;
},
{
layerId = m004;
shapes = (
{
closed = 1;
nodes = (
(520,0,l),
(520,20,l),
(100,20,l),
(100,730,l),
(80,730,l),
(80,0,l)
);
}
);
width = 552;
},
{
layerId = m005;
shapes = (
{
closed = 1;
nodes = (
(550,0,l),
(550,100,l),
(184,100,l),
(184,730,l),
(70,730,l),
(70,0,l)
);
}
);
width = 578;
},
{
layerId = m006;
shapes = (
{
closed = 1;
nodes = (
(580,0,l),
(580,180,l),
(268,180,l),
(268,730,l),
(60,730,l),
(60,0,l)
);
}
);
width = 604;
}
);
metricLeft = "=H";
metricRight = "=H*.4";
unicode = 76;
},
{
color = 4;
glyphname = M;
kernLeft = H;
kernRight = H;
lastChange = "2026-06-26 11:45:48 +0000";
layers = (
{
layerId = m01;
shapes = (
{
closed = 1;
nodes = (
(100,0,l),
(100,649,l),
(100,709,l),
(102,709,l),
(434,155,l),
(466,155,l),
(798,709,l),
(800,709,l),
(800,649,l),
(800,0,l),
(820,0,l),
(820,730,l),
(784,730,l),
(451,174,l),
(449,174,l),
(116,730,l),
(80,730,l),
(80,0,l)
);
}
);
width = 900;
},
{
layerId = m002;
shapes = (
{
closed = 1;
nodes = (
(180,0,l),
(180,485,l),
(178,565,l),
(180,565,l),
(407,155,l),
(513,155,l),
(740,565,l),
(742,565,l),
(740,485,l),
(740,0,l),
(850,0,l),
(850,730,l),
(704,730,l),
(461,291,l),
(459,291,l),
(216,730,l),
(70,730,l),
(70,0,l)
);
}
);
width = 920;
},
{
layerId = m004;
shapes = (
{
closed = 1;
nodes = (
(100,0,l),
(100,649,l),
(100,709,l),
(102,709,l),
(378,155,l),
(402,155,l),
(678,709,l),
(680,709,l),
(680,649,l),
(680,0,l),
(700,0,l),
(700,730,l),
(668,730,l),
(391,174,l),
(389,174,l),
(112,730,l),
(80,730,l),
(80,0,l)
);
}
);
width = 780;
},
{
layerId = m005;
shapes = (
{
closed = 1;
nodes = (
(180,0,l),
(180,485,l),
(178,565,l),
(180,565,l),
(362,155,l),
(468,155,l),
(650,565,l),
(652,565,l),
(650,485,l),
(650,0,l),
(760,0,l),
(760,730,l),
(602,730,l),
(416,310,l),
(414,310,l),
(228,730,l),
(70,730,l),
(70,0,l)
);
}
);
width = 830;
},
{
layerId = m006;
shapes = (
{
closed = 1;
nodes = (
(260,0,l),
(260,320,l),
(258,420,l),
(260,420,l),
(350,155,l),
(530,155,l),
(620,420,l),
(622,420,l),
(620,320,l),
(620,0,l),
(820,0,l),
(820,730,l),
(560,730,l),
(441,380,l),
(439,380,l),
(320,730,l),
(60,730,l),
(60,0,l)
);
}
);
width = 880;
},
{
layerId = m003;
name = Black;
shapes = (
{
closed = 1;
nodes = (
(260,0,l),
(260,320,l),
(258,420,l),
(260,420,l),
(380,155,l),
(560,155,l),
(680,420,l),
(682,420,l),
(680,320,l),
(680,0,l),
(880,0,l),
(880,730,l),
(624,730,l),
(471,390,l),
(469,390,l),
(316,730,l),
(60,730,l),
(60,0,l)
);
}
);
width = 940;
}
);
metricLeft = "=H";
metricRight = "=|";
unicode = 77;
},
{
color = 4;
glyphname = N;
kernLeft = H;
kernRight = H;
lastChange = "2026-06-26 11:45:48 +0000";
layers = (
{
layerId = m01;
shapes = (
{
closed = 1;
nodes = (
(100,0,l),
(100,627,l),
(100,707,l),
(102,707,l),
(610,0,l),
(640,0,l),
(640,730,l),
(620,730,l),
(620,103,l),
(620,23,l),
(618,23,l),
(110,730,l),
(80,730,l),
(80,0,l)
);
}
);
width = 720;
},
{
layerId = m002;
shapes = (
{
closed = 1;
nodes = (
(180,0,l),
(180,463,l),
(178,553,l),
(180,553,l),
(560,0,l),
(680,0,l),
(680,730,l),
(570,730,l),
(570,267,l),
(572,177,l),
(570,177,l),
(190,730,l),
(70,730,l),
(70,0,l)
);
}
);
width = 750;
},
{
layerId = m003;
shapes = (
{
closed = 1;
nodes = (
(260,0,l),
(260,314,l),
(258,414,l),
(260,414,l),
(500,0,l),
(720,0,l),
(720,730,l),
(520,730,l),
(520,416,l),
(522,316,l),
(520,316,l),
(280,730,l),
(60,730,l),
(60,0,l)
);
}
);
width = 780;
},
{
layerId = m004;
shapes = (
{
closed = 1;
nodes = (
(100,0,l),
(100,625,l),
(100,705,l),
(102,705,l),
(530,0,l),
(560,0,l),
(560,730,l),
(540,730,l),
(540,105,l),
(540,25,l),
(538,25,l),
(110,730,l),
(80,730,l),
(80,0,l)
);
}
);
width = 640;
},
{
layerId = m005;
shapes = (
{
closed = 1;
nodes = (
(180,0,l),
(180,450,l),
(178,540,l),
(180,540,l),
(490,0,l),
(610,0,l),
(610,730,l),
(500,730,l),
(500,280,l),
(502,190,l),
(500,190,l),
(190,730,l),
(70,730,l),
(70,0,l)
);
}
);
width = 680;
},
{
layerId = m006;
shapes = (
{
closed = 1;
nodes = (
(260,0,l),
(260,280,l),
(258,380,l),
(260,380,l),
(450,0,l),
(660,0,l),
(660,730,l),
(460,730,l),
(460,450,l),
(462,350,l),
(460,350,l),
(270,730,l),
(60,730,l),
(60,0,l)
);
}
);
width = 720;
}
);
metricLeft = "=H";
metricRight = "=|";
unicode = 78;
},
{
color = 4;
glyphname = O;
kernLeft = O;
kernRight = O;
lastChange = "2026-06-19 15:12:53 +0000";
layers = (
{
layerId = m01;
shapes = (
{
closed = 1;
nodes = (
(657,-20,o),
(820,141,o),
(820,365,cs),
(820,589,o),
(657,750,o),
(430,750,cs),
(203,750,o),
(40,589,o),
(40,365,cs),
(40,141,o),
(203,-20,o),
(430,-20,cs)
);
},
{
closed = 1;
nodes = (
(214,0,o),
(60,152,o),
(60,365,cs),
(60,578,o),
(214,730,o),
(430,730,cs),
(646,730,o),
(800,578,o),
(800,365,cs),
(800,152,o),
(646,0,o),
(430,0,cs)
);
}
);
width = 860;
},
{
layerId = m002;
shapes = (
{
closed = 1;
nodes = (
(660,-20,o),
(825,141,o),
(825,365,cs),
(825,589,o),
(660,750,o),
(430,750,cs),
(200,750,o),
(35,589,o),
(35,365,cs),
(35,141,o),
(200,-20,o),
(430,-20,cs)
);
},
{
closed = 1;
nodes = (
(265,85,o),
(149,201,o),
(149,365,cs),
(149,529,o),
(265,645,o),
(430,645,cs),
(595,645,o),
(711,529,o),
(711,365,cs),
(711,201,o),
(595,85,o),
(430,85,cs)
);
}
);
width = 860;
},
{
layerId = m003;
shapes = (
{
closed = 1;
nodes = (
(663,-20,o),
(830,141,o),
(830,365,cs),
(830,589,o),
(663,750,o),
(430,750,cs),
(197,750,o),
(30,589,o),
(30,365,cs),
(30,141,o),
(197,-20,o),
(430,-20,cs)
);
},
{
closed = 1;
nodes = (
(317,170,o),
(238,250,o),
(238,365,cs),
(238,480,o),
(317,560,o),
(430,560,cs),
(543,560,o),
(622,480,o),
(622,365,cs),
(622,250,o),
(543,170,o),
(430,170,cs)
);
}
);
width = 860;
},
{
layerId = m005;
shapes = (
{
closed = 1;
nodes = (
(621,-20,o),
(765,133,o),
(765,365,cs),
(765,598,o),
(621,750,o),
(400,750,cs),
(180,750,o),
(35,598,o),
(35,365,cs),
(35,133,o),
(180,-20,o),
(400,-20,cs)
);
},
{
closed = 1;
nodes = (
(245,85,o),
(149,192,o),
(149,365,cs),
(149,538,o),
(245,645,o),
(400,645,cs),
(555,645,o),
(651,538,o),
(651,365,cs),
(651,192,o),
(555,85,o),
(400,85,cs)
);
}
);
width = 800;
},
{
layerId = m006;
name = "Black F2";
shapes = (
{
closed = 1;
nodes = (
(636,-20,o),
(790,136,o),
(790,365,cs),
(790,594,o),
(636,750,o),
(410,750,cs),
(184,750,o),
(30,594,o),
(30,365,cs),
(30,136,o),
(184,-20,o),
(410,-20,cs)
);
},
{
closed = 1;
nodes = (
(304,170,o),
(238,245,o),
(238,365,cs),
(238,485,o),
(304,560,o),
(410,560,cs),
(516,560,o),
(582,485,o),
(582,365,cs),
(582,245,o),
(516,170,o),
(410,170,cs)
);
}
);
width = 820;
},
{
layerId = m004;
name = "Thin F2";
shapes = (
{
closed = 1;
nodes = (
(605,-20,o),
(740,129,o),
(740,365,cs),
(740,601,o),
(605,750,o),
(390,750,cs),
(175,750,o),
(40,601,o),
(40,365,cs),
(40,129,o),
(175,-20,o),
(390,-20,cs)
);
},
{
closed = 1;
nodes = (
(186,0,o),
(60,139,o),
(60,365,cs),
(60,591,o),
(186,730,o),
(390,730,cs),
(594,730,o),
(720,591,o),
(720,365,cs),
(720,139,o),
(594,0,o),
(390,0,cs)
);
}
);
width = 780;
}
);
metricLeft = "=H*.5";
metricRight = "=|";
unicode = 79;
},
{
color = 4;
glyphname = P;
kernLeft = H;
kernRight = P;
lastChange = "2026-06-27 03:20:08 +0000";
layers = (
{
layerId = m01;
shapes = (
{
closed = 1;
nodes = (
(100,0,l),
(100,715,l),
(82,706,l),
(176,717,o),
(208,720,o),
(248,720,cs),
(426,720,o),
(500,663,o),
(500,535,cs),
(500,407,o),
(426,350,o),
(248,350,cs),
(209,350,o),
(178,353,o),
(91,363,c),
(89,343,l),
(176,333,o),
(208,330,o),
(248,330,cs),
(435,330,o),
(520,394,o),
(520,535,cs),
(520,676,o),
(435,740,o),
(248,740,cs),
(207,740,o),
(174,737,o),
(80,726,c),
(80,0,l)
);
}
);
width = 552;
},
{
layerId = m002;
shapes = (
{
closed = 1;
nodes = (
(181,0,l),
(181,688,l),
(119,630,l),
(185,638,o),
(230,642,o),
(269,642,cs),
(394,642,o),
(446,602,o),
(446,506,cs),
(446,410,o),
(394,370,o),
(269,370,cs),
(235,370,o),
(195,373,o),
(124,382,c),
(123,282,l),
(197,274,o),
(224,272,o),
(257,272,cs),
(461,272,o),
(560,349,o),
(560,506,cs),
(560,663,o),
(461,740,o),
(257,740,cs),
(205,740,o),
(140,735,o),
(70,726,c),
(70,0,l)
);
}
);
width = 588;
},
{
layerId = m003;
shapes = (
{
closed = 1;
nodes = (
(262,0,l),
(262,660,l),
(156,554,l),
(210,560,o),
(259,564,o),
(289,564,cs),
(364,564,o),
(392,540,o),
(392,477,cs),
(392,414,o),
(364,390,o),
(289,390,cs),
(259,390,o),
(210,394,o),
(156,400,c),
(156,220,l),
(199,216,o),
(233,214,o),
(266,214,cs),
(487,214,o),
(600,303,o),
(600,477,cs),
(600,650,o),
(486,740,o),
(266,740,cs),
(209,740,o),
(117,734,o),
(60,726,c),
(60,0,l)
);
}
);
width = 624;
},
{
layerId = m004;
shapes = (
{
closed = 1;
nodes = (
(100,0,l),
(100,715,l),
(82,706,l),
(180,717,o),
(215,720,o),
(256,720,cs),
(443,720,o),
(520,661,o),
(520,525,cs),
(520,389,o),
(443,330,o),
(256,330,cs),
(215,330,o),
(174,333,o),
(91,343,c),
(89,323,l),
(172,313,o),
(214,310,o),
(256,310,cs),
(453,310,o),
(540,376,o),
(540,525,cs),
(540,674,o),
(453,740,o),
(256,740,cs),
(214,740,o),
(178,737,o),
(80,726,c),
(80,0,l)
);
}
);
width = 572;
},
{
layerId = m005;
shapes = (
{
closed = 1;
nodes = (
(181,0,l),
(181,688,l),
(123,630,l),
(204,639,o),
(249,642,o),
(285,642,cs),
(421,642,o),
(476,601,o),
(476,499,cs),
(476,398,o),
(419,355,o),
(285,355,cs),
(249,355,o),
(210,358,o),
(127,367,c),
(126,267,l),
(192,260,o),
(226,257,o),
(269,257,cs),
(487,257,o),
(590,335,o),
(590,499,cs),
(590,662,o),
(487,740,o),
(269,740,cs),
(214,740,o),
(146,735,o),
(70,726,c),
(70,0,l)
);
}
);
width = 618;
},
{
layerId = m006;
shapes = (
{
closed = 1;
nodes = (
(262,0,l),
(262,660,l),
(163,554,l),
(220,560,o),
(279,564,o),
(314,564,cs),
(401,564,o),
(432,540,o),
(432,472,cs),
(432,404,o),
(401,380,o),
(314,380,cs),
(279,380,o),
(220,384,o),
(163,390,c),
(163,210,l),
(219,205,o),
(255,204,o),
(281,204,cs),
(523,204,o),
(640,292,o),
(640,472,cs),
(640,652,o),
(523,740,o),
(281,740,cs),
(213,740,o),
(110,733,o),
(60,726,c),
(60,0,l)
);
}
);
width = 664;
},
{
associatedMasterId = m006;
attr = {
axisRules = (
{
},
{
max = 150;
min = 100;
}
);
};
layerId = "C2F37F2E-F1FA-4B5A-A169-3627F8CF03A4";
name = "Jun 15, 26 at 11:41";
shapes = (
{
closed = 1;
nodes = (
(262,0,l),
(262,660,l),
(163,554,l),
(220,554,o),
(279,554,o),
(314,554,cs),
(401,554,o),
(432,531,o),
(432,467,cs),
(432,403,o),
(401,380,o),
(314,380,cs),
(279,380,o),
(220,380,o),
(163,380,c),
(163,204,l),
(219,204,o),
(254,204,o),
(280,204,cs),
(527,204,o),
(640,286,o),
(640,467,cs),
(640,648,o),
(528,730,o),
(281,730,cs),
(213,730,o),
(110,730,o),
(60,730,c),
(60,0,l)
);
}
);
width = 664;
},
{
associatedMasterId = m004;
attr = {
axisRules = (
{
},
{
max = 150;
min = 100;
}
);
};
layerId = "190FF0EF-8281-4F64-A8C5-C406AC696CA8";
name = "Jun 15, 26 at 11:44";
shapes = (
{
closed = 1;
nodes = (
(100,0,l),
(100,720,l),
(90,710,l),
(188,710,o),
(214,710,o),
(256,710,cs),
(444,710,o),
(520,653,o),
(520,520,cs),
(520,387,o),
(444,330,o),
(256,330,cs),
(214,330,o),
(173,330,o),
(90,330,c),
(90,310,l),
(173,310,o),
(214,310,o),
(256,310,cs),
(453,310,o),
(540,374,o),
(540,520,cs),
(540,666,o),
(453,730,o),
(256,730,cs),
(214,730,o),
(178,730,o),
(80,730,c),
(80,0,l)
);
}
);
width = 572;
},
{
associatedMasterId = m005;
attr = {
axisRules = (
{
},
{
max = 150;
min = 100;
}
);
};
layerId = "4B8B41D0-6C23-456E-9863-169414F35D9E";
name = "Jun 15, 26 at 11:47";
shapes = (
{
closed = 1;
nodes = (
(181,0,l),
(181,690,l),
(127,632,l),
(204,632,o),
(247,632,o),
(285,632,cs),
(422,632,o),
(476,593,o),
(476,494,cs),
(476,395,o),
(422,356,o),
(285,356,cs),
(247,356,o),
(197,356,o),
(127,356,c),
(127,258,l),
(196,258,o),
(235,258,o),
(269,258,cs),
(491,258,o),
(590,331,o),
(590,494,cs),
(590,657,o),
(491,730,o),
(269,730,cs),
(214,730,o),
(144,730,o),
(70,730,c),
(70,0,l)
);
}
);
width = 618;
},
{
associatedMasterId = m01;
attr = {
axisRules = (
{
},
{
max = 150;
min = 100;
}
);
};
layerId = "3C33BAB6-008D-44BB-ABF1-03F02741D686";
name = "Jun 15, 26 at 21:01";
shapes = (
{
closed = 1;
nodes = (
(100,0,l),
(100,720,l),
(90,710,l),
(184,710,o),
(208,710,o),
(248,710,cs),
(428,710,o),
(500,656,o),
(500,530,cs),
(500,404,o),
(428,350,o),
(248,350,cs),
(208,350,o),
(169,350,o),
(90,350,c),
(90,330,l),
(169,330,o),
(208,330,o),
(248,330,cs),
(437,330,o),
(520,391,o),
(520,530,cs),
(520,669,o),
(437,730,o),
(248,730,cs),
(208,730,o),
(174,730,o),
(80,730,c),
(80,0,l)
);
}
);
width = 552;
},
{
associatedMasterId = m002;
attr = {
axisRules = (
{
},
{
max = 150;
min = 100;
}
);
};
layerId = "312D0A1D-0B74-4630-8A3F-2145FEFC06CA";
name = "Jun 15, 26 at 21:01";
shapes = (
{
closed = 1;
nodes = (
(181,0,l),
(181,690,l),
(123,632,l),
(195,632,o),
(233,632,o),
(269,632,cs),
(396,632,o),
(446,595,o),
(446,501,cs),
(446,407,o),
(396,370,o),
(269,370,cs),
(233,370,o),
(188,370,o),
(123,370,c),
(123,272,l),
(189,272,o),
(225,272,o),
(257,272,cs),
(467,272,o),
(560,342,o),
(560,501,cs),
(560,660,o),
(467,730,o),
(257,730,cs),
(205,730,o),
(141,730,o),
(70,730,c),
(70,0,l)
);
}
);
width = 588;
},
{
associatedMasterId = m003;
attr = {
axisRules = (
{
},
{
max = 150;
min = 100;
}
);
};
layerId = "6207D0E1-E8E0-49F7-8968-0B272C5B9462";
name = "Jun 15, 26 at 21:02";
shapes = (
{
closed = 1;
nodes = (
(262,0,l),
(262,660,l),
(156,554,l),
(206,554,o),
(258,554,o),
(289,554,cs),
(365,554,o),
(392,532,o),
(392,472,cs),
(392,412,o),
(365,390,o),
(289,390,cs),
(258,390,o),
(206,390,o),
(156,390,c),
(156,214,l),
(209,214,o),
(241,214,o),
(266,214,cs),
(496,214,o),
(600,294,o),
(600,472,cs),
(600,650,o),
(496,730,o),
(266,730,cs),
(202,730,o),
(107,730,o),
(60,730,c),
(60,0,l)
);
}
);
width = 624;
}
);
metricLeft = "=H";
metricRight = "=H*.4";
unicode = 80;
},
{
color = 4;
glyphname = Q;
kernLeft = O;
kernRight = O;
lastChange = "2026-06-21 12:00:41 +0000";
layers = (
{
layerId = m01;
shapes = (
{
closed = 1;
nodes = (
(578,-20,o),
(691,-68,o),
(760,-160,c),
(776,-148,l),
(721,-75,o),
(637,-27,o),
(534,-9,c),
(534,-7,l),
(705,34,o),
(820,178,o),
(820,365,cs),
(820,589,o),
(657,750,o),
(430,750,cs),
(203,750,o),
(40,589,o),
(40,365,cs),
(40,141,o),
(203,-20,o),
(430,-20,cs)
);
},
{
closed = 1;
nodes = (
(214,0,o),
(60,152,o),
(60,365,cs),
(60,578,o),
(214,730,o),
(430,730,cs),
(646,730,o),
(800,578,o),
(800,365,cs),
(800,152,o),
(646,0,o),
(430,0,cs)
);
}
);
width = 860;
},
{
layerId = m002;
shapes = (
{
closed = 1;
nodes = (
(562,-20,o),
(640,-57,o),
(710,-160,c),
(798,-90,l),
(756,-36,o),
(703,3,o),
(635,29,c),
(635,31,l),
(752,95,o),
(825,216,o),
(825,365,cs),
(825,589,o),
(660,750,o),
(430,750,cs),
(200,750,o),
(35,589,o),
(35,365,cs),
(35,141,o),
(200,-20,o),
(430,-20,cs)
);
},
{
closed = 1;
nodes = (
(264,85,o),
(147,201,o),
(147,365,cs),
(147,529,o),
(264,645,o),
(430,645,cs),
(596,645,o),
(713,529,o),
(713,365,cs),
(713,201,o),
(596,85,o),
(430,85,cs)
);
}
);
width = 860;
},
{
layerId = m003;
shapes = (
{
closed = 1;
nodes = (
(546,-20,o),
(589,-46,o),
(660,-160,c),
(820,-50,l),
(782,0,o),
(738,37,o),
(687,62,c),
(687,64,l),
(779,135,o),
(830,242,o),
(830,365,cs),
(830,589,o),
(663,750,o),
(430,750,cs),
(197,750,o),
(30,589,o),
(30,365,cs),
(30,141,o),
(197,-20,o),
(430,-20,cs)
);
},
{
closed = 1;
nodes = (
(316,170,o),
(236,250,o),
(236,365,cs),
(236,480,o),
(316,560,o),
(430,560,cs),
(544,560,o),
(624,480,o),
(624,365,cs),
(624,250,o),
(544,170,o),
(430,170,cs)
);
}
);
width = 860;
},
{
layerId = m004;
shapes = (
{
closed = 1;
nodes = (
(526,-20,o),
(651,-74,o),
(714,-160,c),
(730,-148,l),
(675,-76,o),
(590,-28,o),
(486,-10,c),
(486,-8,l),
(644,30,o),
(740,167,o),
(740,365,cs),
(740,601,o),
(605,750,o),
(390,750,cs),
(175,750,o),
(40,601,o),
(40,365,cs),
(40,129,o),
(175,-20,o),
(390,-20,cs)
);
},
{
closed = 1;
nodes = (
(186,0,o),
(60,139,o),
(60,365,cs),
(60,591,o),
(186,730,o),
(390,730,cs),
(594,730,o),
(720,591,o),
(720,365,cs),
(720,139,o),
(594,0,o),
(390,0,cs)
);
}
);
width = 780;
},
{
layerId = m005;
shapes = (
{
closed = 1;
nodes = (
(529,-20,o),
(605,-59,o),
(672,-160,c),
(760,-90,l),
(716,-35,o),
(663,3,o),
(595,29,c),
(595,31,l),
(702,93,o),
(765,212,o),
(765,365,cs),
(765,598,o),
(621,750,o),
(400,750,cs),
(180,750,o),
(35,598,o),
(35,365,cs),
(35,133,o),
(180,-20,o),
(400,-20,cs)
);
},
{
closed = 1;
nodes = (
(245,85,o),
(149,192,o),
(149,365,cs),
(149,538,o),
(245,645,o),
(400,645,cs),
(555,645,o),
(651,538,o),
(651,365,cs),
(651,192,o),
(555,85,o),
(400,85,cs)
);
}
);
width = 800;
},
{
layerId = m006;
shapes = (
{
closed = 1;
nodes = (
(522,-20,o),
(563,-46,o),
(631,-160,c),
(790,-50,l),
(757,-4,o),
(709,35,o),
(655,60,c),
(655,62,l),
(740,129,o),
(790,235,o),
(790,365,cs),
(790,594,o),
(636,750,o),
(410,750,cs),
(184,750,o),
(30,594,o),
(30,365,cs),
(30,136,o),
(184,-20,o),
(410,-20,cs)
);
},
{
closed = 1;
nodes = (
(304,170,o),
(238,245,o),
(238,365,cs),
(238,485,o),
(304,560,o),
(410,560,cs),
(516,560,o),
(582,485,o),
(582,365,cs),
(582,245,o),
(516,170,o),
(410,170,cs)
);
}
);
width = 820;
}
);
metricLeft = "=H*.5";
metricRight = "=|";
unicode = 81;
},
{
color = 4;
glyphname = R;
kernLeft = H;
kernRight = R;
lastChange = "2026-06-27 06:38:30 +0000";
layers = (
{
layerId = m002;
metricRight = "=H*.3";
shapes = (
{
closed = 1;
nodes = (
(179,0,l),
(179,688,l),
(119,630,l),
(175,638,o),
(227,642,o),
(269,642,cs),
(395,642,o),
(446,606,o),
(446,518,cs),
(446,430,o),
(395,394,o),
(269,394,cs),
(239,394,o),
(215,396,o),
(124,406,c),
(123,310,l),
(191,302,o),
(223,300,o),
(257,300,cs),
(461,300,o),
(560,372,o),
(560,520,cs),
(560,668,o),
(461,740,o),
(257,740,cs),
(209,740,o),
(146,736,o),
(70,726,c),
(70,0,l)
);
},
{
closed = 1;
nodes = (
(590,0,l),
(270,353,l),
(146,353,l),
(464,0,l)
);
}
);
width = 611;
},
{
layerId = m003;
metricRight = "=H*.2";
shapes = (
{
closed = 1;
nodes = (
(258,0,l),
(258,660,l),
(156,559,l),
(213,566,o),
(258,570,o),
(289,570,cs),
(364,570,o),
(392,547,o),
(392,487,cs),
(392,427,o),
(364,404,o),
(289,404,cs),
(258,404,o),
(213,408,o),
(156,415,c),
(156,246,l),
(199,242,o),
(232,240,o),
(266,240,cs),
(486,240,o),
(600,324,o),
(600,487,cs),
(600,654,o),
(486,740,o),
(266,740,cs),
(207,740,o),
(117,734,o),
(60,726,c),
(60,0,l)
);
},
{
closed = 1;
nodes = (
(640,0,l),
(420,327,l),
(218,327,l),
(422,0,l)
);
}
);
width = 652;
},
{
layerId = m006;
metricRight = "=H*.2";
shapes = (
{
closed = 1;
nodes = (
(262,0,l),
(262,660,l),
(163,559,l),
(220,566,o),
(276,570,o),
(314,570,cs),
(401,570,o),
(432,549,o),
(432,489,cs),
(432,429,o),
(401,408,o),
(314,408,cs),
(276,408,o),
(220,412,o),
(163,419,c),
(163,250,l),
(219,245,o),
(254,244,o),
(281,244,cs),
(523,244,o),
(640,325,o),
(640,492,cs),
(640,659,o),
(523,740,o),
(281,740,cs),
(210,740,o),
(110,733,o),
(60,726,c),
(60,0,l)
);
},
{
closed = 1;
nodes = (
(660,0,l),
(461,327,l),
(253,327,l),
(440,0,l)
);
}
);
width = 672;
},
{
layerId = m004;
metricRight = "=H*.4";
name = "Thin Eve";
shapes = (
{
closed = 1;
nodes = (
(100,0,l),
(100,715,l),
(82,706,l),
(179,717,o),
(213,720,o),
(256,720,cs),
(444,720,o),
(520,666,o),
(520,540,cs),
(520,414,o),
(444,360,o),
(256,360,cs),
(213,360,o),
(172,363,o),
(91,373,c),
(89,353,l),
(170,343,o),
(212,340,o),
(256,340,cs),
(453,340,o),
(540,401,o),
(540,540,cs),
(540,679,o),
(453,740,o),
(256,740,cs),
(212,740,o),
(177,737,o),
(80,726,c),
(80,0,l)
);
},
{
closed = 1;
nodes = (
(560,0,l),
(260,351,l),
(234,351,l),
(534,0,l)
);
}
);
width = 592;
},
{
layerId = m005;
metricRight = "=H*.3";
name = "Medium Eve";
shapes = (
{
closed = 1;
nodes = (
(181,0,l),
(181,688,l),
(123,629,l),
(200,639,o),
(245,642,o),
(285,642,cs),
(422,642,o),
(476,606,o),
(476,515,cs),
(476,424,o),
(422,388,o),
(285,388,cs),
(239,388,o),
(181,392,o),
(127,399,c),
(126,302,l),
(195,294,o),
(232,292,o),
(269,292,cs),
(488,292,o),
(590,363,o),
(590,516,cs),
(590,669,o),
(488,740,o),
(269,740,cs),
(211,740,o),
(144,735,o),
(70,726,c),
(70,0,l)
);
},
{
closed = 1;
nodes = (
(610,0,l),
(361,339,l),
(239,339,l),
(486,0,l)
);
}
);
width = 631;
},
{
layerId = m01;
metricRight = "=H*.4";
name = Thin;
shapes = (
{
closed = 1;
nodes = (
(100,0,l),
(100,715,l),
(82,706,l),
(176,717,o),
(207,720,o),
(248,720,cs),
(426,720,o),
(500,668,o),
(500,550,cs),
(500,432,o),
(426,380,o),
(248,380,cs),
(215,380,o),
(185,382,o),
(91,393,c),
(89,373,l),
(183,362,o),
(214,360,o),
(248,360,cs),
(435,360,o),
(520,419,o),
(520,550,cs),
(520,681,o),
(435,740,o),
(248,740,cs),
(206,740,o),
(174,737,o),
(80,726,c),
(80,0,l)
);
},
{
closed = 1;
nodes = (
(540,0,l),
(123,379,l),
(94,379,l),
(510,0,l)
);
}
);
width = 572;
},
{
associatedMasterId = m004;
attr = {
axisRules = (
{
},
{
max = 150;
min = 100;
}
);
};
layerId = "AD341BE5-1D86-416D-BE90-BF446D902AD7";
metricRight = "=H*.3";
name = "Jun 15, 26 at 13:02";
shapes = (
{
closed = 1;
nodes = (
(100,0,l),
(100,720,l),
(90,710,l),
(198,710,o),
(227,710,o),
(276,710,cs),
(450,710,o),
(520,659,o),
(520,540,cs),
(520,421,o),
(450,370,o),
(276,370,cs),
(227,370,o),
(181,370,o),
(90,370,c),
(90,350,l),
(181,350,o),
(227,350,o),
(276,350,cs),
(459,350,o),
(540,408,o),
(540,540,cs),
(540,672,o),
(459,730,o),
(276,730,cs),
(227,730,o),
(188,730,o),
(80,730,c),
(80,0,l)
);
},
{
closed = 1;
nodes = (
(560,0,l),
(260,361,l),
(234,361,l),
(534,0,l)
);
}
);
width = 584;
},
{
associatedMasterId = m005;
attr = {
axisRules = (
{
},
{
max = 150;
min = 100;
}
);
};
layerId = "9CD70E61-86FD-46F2-9DDD-2820588FA83A";
metricRight = "=H*.2";
name = "Jun 15, 26 at 13:02";
shapes = (
{
closed = 1;
nodes = (
(181,0,l),
(181,690,l),
(127,632,l),
(209,632,o),
(252,632,o),
(295,632,cs),
(425,632,o),
(476,598,o),
(476,512,cs),
(476,426,o),
(425,392,o),
(295,392,cs),
(252,392,o),
(201,392,o),
(127,392,c),
(127,296,l),
(207,296,o),
(252,296,o),
(294,296,cs),
(496,296,o),
(590,365,o),
(590,513,cs),
(590,661,o),
(496,730,o),
(294,730,cs),
(229,730,o),
(153,730,o),
(70,730,c),
(70,0,l)
);
},
{
closed = 1;
nodes = (
(610,0,l),
(361,339,l),
(239,339,l),
(486,0,l)
);
}
);
width = 624;
},
{
associatedMasterId = m006;
attr = {
axisRules = (
{
},
{
max = 150;
min = 100;
}
);
};
layerId = "9B7AE8BE-55EB-41B3-8837-5119F823B4C2";
metricRight = "=H*.1";
name = "Jun 15, 26 at 13:02";
shapes = (
{
closed = 1;
nodes = (
(262,0,l),
(262,660,l),
(163,560,l),
(220,560,o),
(276,560,o),
(314,560,cs),
(401,560,o),
(432,540,o),
(432,484,cs),
(432,428,o),
(401,408,o),
(314,408,cs),
(276,408,o),
(220,408,o),
(163,408,c),
(163,244,l),
(233,244,o),
(277,244,o),
(311,244,cs),
(533,244,o),
(640,323,o),
(640,487,cs),
(640,651,o),
(533,730,o),
(311,730,cs),
(230,730,o),
(117,730,o),
(60,730,c),
(60,0,l)
);
},
{
closed = 1;
nodes = (
(660,0,l),
(461,327,l),
(253,327,l),
(440,0,l)
);
}
);
width = 666;
},
{
associatedMasterId = m01;
attr = {
axisRules = (
{
},
{
max = 150;
min = 100;
}
);
};
layerId = "E93DFEED-F193-4190-850B-2E94B8BF9895";
name = "Jun 15, 26 at 21:03";
shapes = (
{
closed = 1;
nodes = (
(100,0,l),
(100,720,l),
(90,710,l),
(194,710,o),
(221,710,o),
(268,710,cs),
(434,710,o),
(501,659,o),
(501,540,cs),
(501,421,o),
(434,370,o),
(268,370,cs),
(221,370,o),
(177,370,o),
(90,370,c),
(90,350,l),
(177,350,o),
(221,350,o),
(268,350,cs),
(443,350,o),
(521,408,o),
(521,540,cs),
(521,672,o),
(443,730,o),
(268,730,cs),
(221,730,o),
(184,730,o),
(80,730,c),
(80,0,l)
);
},
{
closed = 1;
nodes = (
(540,0,l),
(253,361,l),
(227,361,l),
(514,0,l)
);
}
);
width = 548;
},
{
associatedMasterId = m002;
attr = {
axisRules = (
{
},
{
max = 150;
min = 100;
}
);
};
layerId = "B2077651-A66E-46DF-A37B-806F64CE9DBA";
name = "Jun 15, 26 at 21:03";
shapes = (
{
closed = 1;
nodes = (
(181,0,l),
(181,690,l),
(125,632,l),
(204,632,o),
(244,632,o),
(285,632,cs),
(407,632,o),
(457,597,o),
(457,512,cs),
(457,427,o),
(407,392,o),
(285,392,cs),
(244,392,o),
(195,392,o),
(125,392,c),
(125,296,l),
(202,296,o),
(246,296,o),
(286,296,cs),
(480,296,o),
(571,365,o),
(571,513,cs),
(571,661,o),
(480,730,o),
(286,730,cs),
(223,730,o),
(150,730,o),
(70,730,c),
(70,0,l)
);
},
{
closed = 1;
nodes = (
(590,0,l),
(351,344,l),
(229,344,l),
(466,0,l)
);
}
);
width = 597;
},
{
associatedMasterId = m003;
attr = {
axisRules = (
{
},
{
max = 150;
min = 100;
}
);
};
layerId = "EFC19211-A3D4-408A-81A3-CD70C1F73641";
name = "Jun 15, 26 at 21:03";
shapes = (
{
closed = 1;
nodes = (
(262,0,l),
(262,660,l),
(160,560,l),
(213,560,o),
(266,560,o),
(302,560,cs),
(382,560,o),
(412,539,o),
(412,482,cs),
(412,425,o),
(382,404,o),
(302,404,cs),
(266,404,o),
(213,404,o),
(160,404,c),
(160,240,l),
(227,240,o),
(270,240,o),
(303,240,cs),
(516,240,o),
(620,320,o),
(620,485,cs),
(620,650,o),
(516,730,o),
(303,730,cs),
(224,730,o),
(115,730,o),
(60,730,c),
(60,0,l)
);
},
{
closed = 1;
nodes = (
(640,0,l),
(448,327,l),
(240,327,l),
(420,0,l)
);
}
);
width = 646;
}
);
metricLeft = "=H";
metricRight = "=H*.1";
unicode = 82;
},
{
color = 4;
glyphname = S;
kernLeft = S;
kernRight = S;
lastChange = "2026-06-27 11:52:19 +0000";
layers = (
{
layerId = m01;
shapes = (
{
closed = 1;
nodes = (
(414,-10,o),
(498,60,o),
(498,187,cs),
(498,286,o),
(429,344,o),
(272,389,cs),
(120,432,o),
(70,482,o),
(70,568,cs),
(70,668,o),
(138,720,o),
(278,720,cs),
(356,720,o),
(421,704,o),
(474,677,c),
(483,695,l),
(428,723,o),
(359,740,o),
(278,740,cs),
(128,740,o),
(50,681,o),
(50,568,cs),
(50,471,o),
(108,415,o),
(267,370,cs),
(417,327,o),
(478,275,o),
(478,187,cs),
(478,72,o),
(404,10,o),
(262,10,cs),
(189,10,o),
(115,26,o),
(56,53,c),
(48,35,l),
(109,7,o),
(187,-10,o),
(262,-10,cs)
);
}
);
width = 546;
},
{
layerId = m002;
shapes = (
{
closed = 1;
nodes = (
(444,-10,o),
(542,68,o),
(542,199,cs),
(542,307,o),
(475,370,o),
(321,413,cs),
(201,447,o),
(157,485,o),
(157,544,cs),
(157,608,o),
(204,640,o),
(300,640,cs),
(372,640,o),
(445,622,o),
(499,593,c),
(525,693,l),
(466,723,o),
(389,740,o),
(302,740,cs),
(131,740,o),
(43,674,o),
(43,545,cs),
(43,436,o),
(105,370,o),
(255,330,cs),
(375,298,o),
(428,259,o),
(428,199,cs),
(428,129,o),
(378,90,o),
(285,90,cs),
(215,90,o),
(130,112,o),
(68,146,c),
(42,46,l),
(103,11,o),
(193,-10,o),
(279,-10,cs)
);
}
);
width = 584;
},
{
layerId = m004;
shapes = (
{
closed = 1;
nodes = (
(430,-10,o),
(518,60,o),
(518,187,cs),
(518,287,o),
(446,344,o),
(282,389,cs),
(123,432,o),
(70,482,o),
(70,568,cs),
(70,668,o),
(141,720,o),
(288,720,cs),
(370,720,o),
(438,704,o),
(493,677,c),
(502,695,l),
(445,723,o),
(373,740,o),
(288,740,cs),
(132,740,o),
(50,681,o),
(50,568,cs),
(50,471,o),
(111,415,o),
(277,370,cs),
(434,327,o),
(498,275,o),
(498,187,cs),
(498,72,o),
(420,10,o),
(272,10,cs),
(195,10,o),
(118,26,o),
(56,53,c),
(48,35,l),
(112,7,o),
(193,-10,o),
(272,-10,cs)
);
}
);
width = 566;
},
{
layerId = m005;
shapes = (
{
closed = 1;
nodes = (
(460,-10,o),
(562,68,o),
(562,199,cs),
(562,307,o),
(490,370,o),
(330,413,cs),
(203,447,o),
(157,485,o),
(157,544,cs),
(157,608,o),
(206,640,o),
(308,640,cs),
(384,640,o),
(461,622,o),
(518,593,c),
(544,693,l),
(483,723,o),
(403,740,o),
(312,740,cs),
(135,740,o),
(43,674,o),
(43,545,cs),
(43,436,o),
(110,370,o),
(266,330,cs),
(392,298,o),
(448,259,o),
(448,199,cs),
(448,129,o),
(396,90,o),
(298,90,cs),
(219,90,o),
(128,115,o),
(68,146,c),
(42,46,l),
(106,11,o),
(199,-10,o),
(288,-10,cs)
);
}
);
width = 604;
},
{
layerId = m006;
shapes = (
{
closed = 1;
nodes = (
(500,-10,o),
(606,67,o),
(606,211,cs),
(606,327,o),
(533,396,o),
(378,437,cs),
(285,461,o),
(244,487,o),
(244,520,cs),
(244,547,o),
(271,560,o),
(327,560,cs),
(397,560,o),
(482,540,o),
(541,509,c),
(585,691,l),
(521,723,o),
(432,740,o),
(336,740,cs),
(137,740,o),
(36,667,o),
(36,522,cs),
(36,401,o),
(111,324,o),
(254,290,cs),
(352,268,o),
(398,242,o),
(398,210,cs),
(398,185,o),
(371,170,o),
(324,170,cs),
(254,170,o),
(138,203,o),
(80,238,c),
(36,56,l),
(99,15,o),
(194,-10,o),
(304,-10,cs)
);
}
);
width = 642;
},
{
layerId = m003;
name = "Black F1";
shapes = (
{
closed = 1;
nodes = (
(484,-10,o),
(586,67,o),
(586,211,cs),
(586,327,o),
(520,396,o),
(370,437,cs),
(283,461,o),
(244,487,o),
(244,520,cs),
(244,547,o),
(270,560,o),
(322,560,cs),
(388,560,o),
(469,540,o),
(524,509,c),
(566,691,l),
(504,723,o),
(418,740,o),
(325,740,cs),
(133,740,o),
(36,667,o),
(36,522,cs),
(36,401,o),
(104,324,o),
(242,290,cs),
(334,268,o),
(378,242,o),
(378,210,cs),
(378,185,o),
(352,170,o),
(308,170,cs),
(242,170,o),
(133,203,o),
(78,238,c),
(36,56,l),
(97,15,o),
(188,-10,o),
(295,-10,cs)
);
}
);
width = 622;
}
);
metricLeft = "=H*.6";
metricRight = "=|";
unicode = 83;
},
{
color = 4;
glyphname = T;
kernLeft = T;
kernRight = T;
lastChange = "2026-06-27 11:55:32 +0000";
layers = (
{
layerId = m01;
metricLeft = "=H*.1";
shapes = (
{
closed = 1;
nodes = (
(288,0,l),
(288,710,l),
(548,710,l),
(548,730,l),
(8,730,l),
(8,710,l),
(268,710,l),
(268,0,l)
);
}
);
width = 556;
},
{
layerId = m002;
metricLeft = "=H*.2";
shapes = (
{
closed = 1;
nodes = (
(350,0,l),
(350,630,l),
(574,630,l),
(574,730,l),
(14,730,l),
(14,630,l),
(238,630,l),
(238,0,l)
);
}
);
width = 588;
},
{
layerId = m003;
metricLeft = "=H*.3";
shapes = (
{
closed = 1;
nodes = (
(412,0,l),
(412,550,l),
(598,550,l),
(598,730,l),
(18,730,l),
(18,550,l),
(204,550,l),
(204,0,l)
);
}
);
width = 616;
},
{
layerId = m004;
metricLeft = "=H*.1";
shapes = (
{
closed = 1;
nodes = (
(298,0,l),
(298,710,l),
(568,710,l),
(568,730,l),
(8,730,l),
(8,710,l),
(278,710,l),
(278,0,l)
);
}
);
width = 576;
},
{
layerId = m005;
metricLeft = "=H*.2";
shapes = (
{
closed = 1;
nodes = (
(360,0,l),
(360,630,l),
(594,630,l),
(594,730,l),
(14,730,l),
(14,630,l),
(248,630,l),
(248,0,l)
);
}
);
width = 608;
},
{
layerId = m006;
metricLeft = "=H*.3";
shapes = (
{
closed = 1;
nodes = (
(422,0,l),
(422,550,l),
(618,550,l),
(618,730,l),
(18,730,l),
(18,550,l),
(214,550,l),
(214,0,l)
);
}
);
width = 636;
}
);
metricLeft = "=H*.1";
metricRight = "=|";
unicode = 84;
},
{
color = 4;
glyphname = U;
kernLeft = U;
kernRight = U;
lastChange = "2026-06-27 23:36:50 +0000";
layers = (
{
layerId = m01;
shapes = (
{
closed = 1;
nodes = (
(478,-20,o),
(556,84,o),
(556,300,cs),
(556,730,l),
(536,730,l),
(536,300,ls),
(536,93,o),
(465,0,o),
(316,0,cs),
(167,0,o),
(96,93,o),
(96,300,cs),
(96,730,l),
(76,730,l),
(76,300,ls),
(76,84,o),
(154,-20,o),
(316,-20,cs)
);
}
);
width = 632;
},
{
layerId = m002;
shapes = (
{
closed = 1;
nodes = (
(518,-20,o),
(607,88,o),
(607,305,cs),
(607,730,l),
(497,730,l),
(497,335,ls),
(497,154,o),
(451,81,o),
(337,81,cs),
(223,81,o),
(177,154,o),
(177,335,cs),
(177,730,l),
(67,730,l),
(67,305,ls),
(67,88,o),
(157,-20,o),
(337,-20,cs)
);
}
);
width = 674;
},
{
layerId = m003;
shapes = (
{
closed = 1;
nodes = (
(556,-20,o),
(657,91,o),
(657,310,cs),
(657,730,l),
(457,730,l),
(457,370,ls),
(457,210,o),
(434,162,o),
(357,162,cs),
(280,162,o),
(257,210,o),
(257,370,cs),
(257,730,l),
(57,730,l),
(57,310,ls),
(57,91,o),
(158,-20,o),
(357,-20,cs)
);
}
);
width = 714;
},
{
layerId = m004;
shapes = (
{
closed = 1;
nodes = (
(495,-20,o),
(576,84,o),
(576,300,cs),
(576,730,l),
(556,730,l),
(556,300,ls),
(556,94,o),
(482,0,o),
(326,0,cs),
(170,0,o),
(96,94,o),
(96,300,cs),
(96,730,l),
(76,730,l),
(76,300,ls),
(76,84,o),
(157,-20,o),
(326,-20,cs)
);
}
);
width = 652;
},
{
layerId = m005;
shapes = (
{
closed = 1;
nodes = (
(534,-20,o),
(627,88,o),
(627,305,cs),
(627,730,l),
(517,730,l),
(517,335,ls),
(517,153,o),
(469,81,o),
(347,81,cs),
(225,81,o),
(177,153,o),
(177,335,cs),
(177,730,l),
(67,730,l),
(67,305,ls),
(67,88,o),
(160,-20,o),
(347,-20,cs)
);
}
);
width = 694;
},
{
layerId = m006;
shapes = (
{
closed = 1;
nodes = (
(573,-20,o),
(677,91,o),
(677,310,cs),
(677,730,l),
(477,730,l),
(477,370,ls),
(477,209,o),
(452,162,o),
(367,162,cs),
(282,162,o),
(257,209,o),
(257,370,cs),
(257,730,l),
(57,730,l),
(57,310,ls),
(57,91,o),
(161,-20,o),
(367,-20,cs)
);
}
);
width = 734;
}
);
metricLeft = "=H*.95";
metricRight = "=|";
unicode = 85;
},
{
color = 4;
glyphname = V;
kernLeft = V;
kernRight = V;
lastChange = "2026-06-27 23:36:50 +0000";
layers = (
{
layerId = m002;
shapes = (
{
closed = 1;
nodes = (
(444,0,l),
(724,730,l),
(602,730,l),
(393,170,l),
(370,107,l),
(368,107,l),
(345,170,l),
(136,730,l),
(14,730,l),
(294,0,l)
);
}
);
width = 738;
},
{
layerId = m003;
shapes = (
{
closed = 1;
nodes = (
(517,0,l),
(772,730,l),
(554,730,l),
(422,280,l),
(393,178,l),
(391,178,l),
(362,280,l),
(230,730,l),
(12,730,l),
(267,0,l)
);
}
);
width = 784;
},
{
layerId = m004;
shapes = (
{
closed = 1;
nodes = (
(309,0,l),
(576,730,l),
(554,730,l),
(310,61,l),
(297,23,l),
(295,23,l),
(282,61,l),
(38,730,l),
(16,730,l),
(283,0,l)
);
}
);
width = 592;
},
{
layerId = m005;
shapes = (
{
closed = 1;
nodes = (
(394,0,l),
(624,730,l),
(504,730,l),
(338,180,l),
(320,117,l),
(318,117,l),
(300,180,l),
(134,730,l),
(14,730,l),
(244,0,l)
);
}
);
width = 638;
},
{
layerId = m006;
shapes = (
{
closed = 1;
nodes = (
(467,0,l),
(672,730,l),
(458,730,l),
(365,300,l),
(343,194,l),
(341,194,l),
(319,300,l),
(226,730,l),
(12,730,l),
(217,0,l)
);
}
);
width = 684;
},
{
associatedMasterId = m003;
layerId = "073B8499-A2BD-4C2F-AFAF-33828D8F29CE";
name = "A width";
shapes = (
{
closed = 1;
nodes = (
(512,0,l),
(772,730,l),
(554,730,l),
(422,280,l),
(393,170,l),
(391,170,l),
(362,280,l),
(230,730,l),
(12,730,l),
(272,0,l)
);
}
);
width = 784;
},
{
associatedMasterId = m002;
layerId = "937254B9-A304-4BC3-ADF3-1481D60FDA01";
name = "A width";
shapes = (
{
closed = 1;
nodes = (
(436,0,l),
(724,730,l),
(604,730,l),
(393,171,l),
(370,95,l),
(368,95,l),
(345,171,l),
(134,730,l),
(14,730,l),
(302,0,l)
);
}
);
width = 738;
},
{
layerId = m01;
name = "Thin F1";
shapes = (
{
closed = 1;
nodes = (
(359,0,l),
(676,730,l),
(654,730,l),
(364,61,l),
(347,20,l),
(345,20,l),
(328,61,l),
(38,730,l),
(16,730,l),
(333,0,l)
);
}
);
width = 692;
}
);
metricLeft = "=A";
metricRight = "=|";
unicode = 86;
},
{
color = 4;
glyphname = W;
kernLeft = V;
kernRight = V;
lastChange = "2026-07-02 04:41:54 +0000";
layers = (
{
layerId = m002;
shapes = (
{
closed = 1;
nodes = (
(337,0,l),
(488,595,l),
(490,595,l),
(641,0,l),
(777,0,l),
(964,730,l),
(848,730,l),
(725,206,l),
(708,132,l),
(706,132,l),
(688,206,l),
(557,730,l),
(557,730,l),
(557,730,l),
(421,730,l),
(421,730,l),
(421,730,l),
(290,206,l),
(272,132,l),
(270,132,l),
(253,206,l),
(130,730,l),
(14,730,l),
(201,0,l)
);
}
);
width = 978;
},
{
layerId = m004;
shapes = (
{
closed = 1;
nodes = (
(258,0,l),
(450,710,l),
(452,710,l),
(644,0,l),
(676,0,l),
(886,730,l),
(865,730,l),
(671,55,l),
(661,18,l),
(659,18,l),
(650,53,l),
(467,730,l),
(467,730,l),
(467,730,l),
(435,730,l),
(435,730,l),
(435,730,l),
(252,53,l),
(243,18,l),
(241,18,l),
(231,55,l),
(37,730,l),
(16,730,l),
(226,0,l)
);
}
);
width = 902;
},
{
layerId = m005;
shapes = (
{
closed = 1;
nodes = (
(337,0,l),
(488,595,l),
(490,595,l),
(641,0,l),
(777,0,l),
(964,730,l),
(848,730,l),
(725,206,l),
(708,132,l),
(706,132,l),
(688,206,l),
(557,730,l),
(557,730,l),
(557,730,l),
(421,730,l),
(421,730,l),
(421,730,l),
(290,206,l),
(272,132,l),
(270,132,l),
(253,206,l),
(130,730,l),
(14,730,l),
(201,0,l)
);
}
);
width = 978;
},
{
layerId = m006;
shapes = (
{
closed = 1;
nodes = (
(452,0,l),
(526,510,l),
(528,510,l),
(602,0,l),
(862,0,l),
(1042,730,l),
(828,730,l),
(753,305,l),
(738,215,l),
(736,215,l),
(724,305,l),
(667,730,l),
(667,730,l),
(667,730,l),
(387,730,l),
(387,730,l),
(387,730,l),
(330,305,l),
(318,215,l),
(316,215,l),
(301,305,l),
(226,730,l),
(12,730,l),
(192,0,l)
);
}
);
width = 1054;
},
{
layerId = m003;
name = "Black F1";
shapes = (
{
closed = 1;
nodes = (
(452,0,l),
(526,510,l),
(528,510,l),
(602,0,l),
(862,0,l),
(1042,730,l),
(828,730,l),
(753,305,l),
(738,215,l),
(736,215,l),
(724,305,l),
(667,730,l),
(667,730,l),
(667,730,l),
(387,730,l),
(387,730,l),
(387,730,l),
(330,305,l),
(318,215,l),
(316,215,l),
(301,305,l),
(226,730,l),
(12,730,l),
(192,0,l)
);
}
);
width = 1054;
},
{
layerId = m01;
name = "Thin F1";
shapes = (
{
closed = 1;
nodes = (
(258,0,l),
(450,710,l),
(452,710,l),
(644,0,l),
(676,0,l),
(886,730,l),
(865,730,l),
(671,55,l),
(661,18,l),
(659,18,l),
(650,53,l),
(467,730,l),
(467,730,l),
(467,730,l),
(435,730,l),
(435,730,l),
(435,730,l),
(252,53,l),
(243,18,l),
(241,18,l),
(231,55,l),
(37,730,l),
(16,730,l),
(226,0,l)
);
}
);
width = 902;
},
{
associatedMasterId = m004;
attr = {
axisRules = (
{
max = 300;
min = 100;
},
{
max = 200;
min = 150;
}
);
};
background = {
shapes = (
{
closed = 1;
nodes = (
(318,0,l),
(636,730,l),
(614,730,l),
(334,86,l),
(308,25,l),
(306,25,l),
(281,91,l),
(38,730,l),
(16,730,l),
(294,0,l)
);
},
{
closed = 1;
nodes = (
(658,0,l),
(936,730,l),
(914,730,l),
(671,91,l),
(646,25,l),
(644,25,l),
(618,86,l),
(338,730,l),
(316,730,l),
(634,0,l)
);
}
);
};
layerId = "E192F69A-8E5D-4218-A70D-FAE34409CC58";
name = "Jun 11, 26 at 17:53";
shapes = (
{
closed = 1;
nodes = (
(318,0,l),
(476,363,l),
(634,0,l),
(658,0,l),
(936,730,l),
(914,730,l),
(671,91,l),
(646,25,l),
(644,25,l),
(618,86,l),
(487,388,l),
(636,730,l),
(614,730,l),
(476,413,l),
(338,730,l),
(316,730,l),
(465,388,l),
(334,86,l),
(308,25,l),
(306,25,l),
(281,91,l),
(38,730,l),
(16,730,l),
(294,0,l)
);
}
);
width = 952;
},
{
associatedMasterId = m005;
attr = {
axisRules = (
{
max = 300;
min = 100;
},
{
max = 200;
min = 150;
}
);
};
background = {
shapes = (
{
closed = 1;
nodes = (
(406,0,l),
(714,730,l),
(598,730,l),
(371,192,l),
(347,132,l),
(345,132,l),
(322,198,l),
(134,730,l),
(14,730,l),
(272,0,l)
);
},
{
closed = 1;
nodes = (
(736,0,l),
(994,730,l),
(874,730,l),
(686,198,l),
(663,132,l),
(661,132,l),
(637,192,l),
(410,730,l),
(294,730,l),
(602,0,l)
);
}
);
};
layerId = "1250F801-1661-428B-A33C-769B7A1F763A";
name = "Jun 11, 26 at 17:53";
shapes = (
{
closed = 1;
nodes = (
(406,0,l),
(504,252,l),
(602,0,l),
(736,0,l),
(994,730,l),
(874,730,l),
(686,198,l),
(663,132,l),
(661,132,l),
(637,192,l),
(562,370,l),
(714,730,l),
(598,730,l),
(504,487,l),
(410,730,l),
(294,730,l),
(446,370,l),
(371,192,l),
(347,132,l),
(345,132,l),
(322,198,l),
(134,730,l),
(14,730,l),
(272,0,l)
);
}
);
width = 1008;
},
{
associatedMasterId = m01;
attr = {
axisRules = (
{
max = 300;
min = 100;
},
{
max = 200;
min = 150;
}
);
};
background = {
shapes = (
{
closed = 1;
nodes = (
(338,0,l),
(696,730,l),
(674,730,l),
(350,69,l),
(328,22,l),
(326,22,l),
(303,79,l),
(38,730,l),
(16,730,l),
(314,0,l)
);
},
{
closed = 1;
nodes = (
(698,0,l),
(996,730,l),
(974,730,l),
(709,79,l),
(686,22,l),
(684,22,l),
(662,69,l),
(338,730,l),
(316,730,l),
(674,0,l)
);
}
);
};
layerId = "84745874-0A59-4090-B506-B8B038283198";
name = "Thin F1 [100‹wg‹300, 150‹wd‹200] Jul 2, 26 at 12:49";
shapes = (
{
closed = 1;
nodes = (
(338,0,l),
(506,343,l),
(674,0,l),
(698,0,l),
(996,730,l),
(974,730,l),
(709,79,l),
(686,22,l),
(684,22,l),
(662,69,l),
(517,365,l),
(696,730,l),
(674,730,l),
(506,387,l),
(338,730,l),
(316,730,l),
(495,365,l),
(350,69,l),
(328,22,l),
(326,22,l),
(303,79,l),
(38,730,l),
(16,730,l),
(314,0,l)
);
}
);
width = 1012;
},
{
associatedMasterId = m002;
attr = {
axisRules = (
{
max = 300;
min = 100;
},
{
max = 200;
min = 150;
}
);
};
background = {
shapes = (
{
closed = 1;
nodes = (
(416,0,l),
(764,730,l),
(648,730,l),
(382,172,l),
(359,121,l),
(357,121,l),
(337,177,l),
(134,730,l),
(14,730,l),
(282,0,l)
);
},
{
closed = 1;
nodes = (
(786,0,l),
(1054,730,l),
(934,730,l),
(731,177,l),
(711,121,l),
(709,121,l),
(686,172,l),
(420,730,l),
(304,730,l),
(652,0,l)
);
}
);
};
layerId = "995D3563-4519-49B2-A080-A616EDADFC3D";
name = "Medium F1 [100‹wg‹300, 150‹wd‹200] Jul 2, 26 at 12:56";
shapes = (
{
closed = 1;
nodes = (
(416,0,l),
(534,268,l),
(652,0,l),
(786,0,l),
(1054,730,l),
(934,730,l),
(731,177,l),
(711,121,l),
(709,121,l),
(686,172,l),
(592,369,l),
(764,730,l),
(648,730,l),
(534,471,l),
(420,730,l),
(304,730,l),
(476,369,l),
(382,172,l),
(359,121,l),
(357,121,l),
(337,177,l),
(134,730,l),
(14,730,l),
(282,0,l)
);
}
);
width = 1068;
}
);
metricLeft = "=V";
metricRight = "=|";
unicode = 87;
},
{
color = 4;
glyphname = X;
kernLeft = X;
kernRight = X;
lastChange = "2026-06-27 23:36:50 +0000";
layers = (
{
background = {
shapes = (
{
closed = 0;
nodes = (
(624,730,l),
(600,730,l),
(32,0,l),
(57,0,l),
(616,718,l)
);
},
{
closed = 0;
nodes = (
(40,730,l),
(64,730,l),
(632,0,l),
(607,0,l),
(48,718,l)
);
}
);
};
layerId = m01;
metricLeft = "=|K*2";
shapes = (
{
closed = 1;
nodes = (
(57,0,l),
(331,352,l),
(333,352,l),
(607,0,l),
(632,0,l),
(344,369,l),
(625,730,l),
(600,730,l),
(333,387,l),
(331,387,l),
(64,730,l),
(39,730,l),
(320,369,l),
(32,0,l)
);
}
);
width = 664;
},
{
layerId = m005;
metricLeft = "=|K*2.6";
shapes = (
{
closed = 1;
nodes = (
(148,0,l),
(320,303,l),
(322,303,l),
(494,0,l),
(616,0,l),
(407,367,l),
(614,730,l),
(492,730,l),
(322,430,l),
(320,430,l),
(151,730,l),
(29,730,l),
(236,367,l),
(26,0,l)
);
}
);
width = 642;
},
{
layerId = m006;
metricLeft = "=|K*4";
shapes = (
{
closed = 1;
nodes = (
(246,0,l),
(344,255,l),
(346,255,l),
(444,0,l),
(670,0,l),
(500,365,l),
(670,730,l),
(444,730,l),
(346,475,l),
(344,475,l),
(246,730,l),
(20,730,l),
(190,365,l),
(20,0,l)
);
}
);
width = 690;
},
{
background = {
shapes = (
{
closed = 1;
nodes = (
(43,0,l),
(544,730,l),
(521,730,l),
(19,0,l)
);
},
{
closed = 1;
nodes = (
(549,0,l),
(47,730,l),
(24,730,l),
(525,0,l)
);
}
);
};
layerId = m004;
metricLeft = "=|K*1.2";
name = "Thin F2";
shapes = (
{
closed = 1;
nodes = (
(43,0,l),
(283,351,l),
(285,351,l),
(525,0,l),
(549,0,l),
(296,368,l),
(544,730,l),
(520,730,l),
(285,385,l),
(283,385,l),
(48,730,l),
(24,730,l),
(272,368,l),
(19,0,l)
);
}
);
width = 568;
},
{
layerId = m003;
metricLeft = "=|K*4";
name = "Black F1";
shapes = (
{
closed = 1;
nodes = (
(250,0,l),
(369,245,l),
(371,245,l),
(490,0,l),
(720,0,l),
(520,365,l),
(720,730,l),
(490,730,l),
(371,485,l),
(369,485,l),
(250,730,l),
(20,730,l),
(220,365,l),
(20,0,l)
);
}
);
width = 740;
},
{
layerId = m002;
metricLeft = "=|K*3";
name = "Medium F1";
shapes = (
{
closed = 1;
nodes = (
(156,0,l),
(354,299,l),
(356,299,l),
(554,0,l),
(680,0,l),
(431,367,l),
(676,730,l),
(550,730,l),
(356,436,l),
(354,436,l),
(160,730,l),
(34,730,l),
(279,367,l),
(30,0,l)
);
}
);
width = 710;
}
);
metricLeft = "=|K*2";
metricRight = "=|";
unicode = 88;
},
{
color = 4;
glyphname = Y;
kernLeft = Y;
kernRight = Y;
lastChange = "2026-06-27 23:36:50 +0000";
layers = (
{
layerId = m01;
shapes = (
{
closed = 1;
nodes = (
(352,0,l),
(352,338,l),
(683,730,l),
(657,730,l),
(344,359,l),
(342,359,l),
(29,730,l),
(3,730,l),
(334,338,l),
(334,0,l)
);
}
);
width = 686;
},
{
layerId = m002;
shapes = (
{
closed = 1;
nodes = (
(424,0,l),
(424,309,l),
(733,730,l),
(605,730,l),
(369,406,l),
(367,406,l),
(131,730,l),
(3,730,l),
(312,309,l),
(312,0,l)
);
}
);
width = 736;
},
{
layerId = m003;
shapes = (
{
closed = 1;
nodes = (
(496,0,l),
(496,280,l),
(782,730,l),
(562,730,l),
(393,450,l),
(391,450,l),
(222,730,l),
(2,730,l),
(288,280,l),
(288,0,l)
);
}
);
width = 784;
},
{
layerId = m004;
shapes = (
{
closed = 1;
nodes = (
(312,0,l),
(312,297,l),
(603,730,l),
(579,730,l),
(304,321,l),
(302,321,l),
(27,730,l),
(3,730,l),
(294,297,l),
(294,0,l)
);
}
);
width = 606;
},
{
layerId = m005;
shapes = (
{
closed = 1;
nodes = (
(379,0,l),
(379,274,l),
(643,730,l),
(517,730,l),
(324,393,l),
(322,393,l),
(129,730,l),
(3,730,l),
(267,274,l),
(267,0,l)
);
}
);
width = 646;
},
{
layerId = m006;
shapes = (
{
closed = 1;
nodes = (
(446,0,l),
(446,250,l),
(682,730,l),
(462,730,l),
(343,420,l),
(341,420,l),
(222,730,l),
(2,730,l),
(238,250,l),
(238,0,l)
);
}
);
width = 684;
}
);
metricLeft = "=V*.2";
metricRight = "=|";
unicode = 89;
},
{
color = 4;
glyphname = Z;
kernLeft = Z;
kernRight = Z;
lastChange = "2026-07-02 04:23:19 +0000";
layers = (
{
layerId = m01;
shapes = (
{
closed = 1;
nodes = (
(504,0,l),
(504,20,l),
(88,20,l),
(88,22,l),
(504,710,l),
(504,730,l),
(64,730,l),
(64,710,l),
(480,710,l),
(480,708,l),
(64,20,l),
(64,0,l)
);
}
);
width = 568;
},
{
layerId = m002;
shapes = (
{
closed = 1;
nodes = (
(536,0,l),
(536,98,l),
(188,98,l),
(188,100,l),
(536,632,l),
(536,730,l),
(56,730,l),
(56,632,l),
(404,632,l),
(404,630,l),
(56,98,l),
(56,0,l)
);
}
);
width = 592;
},
{
layerId = m003;
shapes = (
{
closed = 1;
nodes = (
(568,0,l),
(568,175,l),
(284,175,l),
(284,177,l),
(568,555,l),
(568,730,l),
(48,730,l),
(48,555,l),
(332,555,l),
(332,553,l),
(48,175,l),
(48,0,l)
);
}
);
width = 616;
},
{
layerId = m004;
shapes = (
{
closed = 1;
nodes = (
(544,0,l),
(544,20,l),
(89,20,l),
(89,22,l),
(544,710,l),
(544,730,l),
(64,730,l),
(64,710,l),
(519,710,l),
(519,708,l),
(64,20,l),
(64,0,l)
);
}
);
width = 608;
},
{
layerId = m005;
shapes = (
{
closed = 1;
nodes = (
(566,0,l),
(566,98,l),
(188,98,l),
(188,100,l),
(566,632,l),
(566,730,l),
(56,730,l),
(56,632,l),
(434,632,l),
(434,630,l),
(56,98,l),
(56,0,l)
);
}
);
width = 622;
},
{
layerId = m006;
shapes = (
{
closed = 1;
nodes = (
(588,0,l),
(588,175,l),
(288,175,l),
(288,177,l),
(588,555,l),
(588,730,l),
(48,730,l),
(48,555,l),
(348,555,l),
(348,553,l),
(48,175,l),
(48,0,l)
);
}
);
width = 636;
},
{
associatedMasterId = m006;
layerId = "B65A32CE-FC06-4A51-973E-96E9FD023277";
name = "Jul 2, 26 at 13:22";
shapes = (
{
closed = 1;
nodes = (
(568,0,l),
(568,175,l),
(284,175,l),
(284,177,l),
(568,555,l),
(568,730,l),
(48,730,l),
(48,555,l),
(332,555,l),
(332,553,l),
(48,175,l),
(48,0,l)
);
}
);
width = 616;
},
{
associatedMasterId = m005;
layerId = "077951FF-F023-4F11-B14B-82DEFD11EC52";
name = "Jul 2, 26 at 13:22";
shapes = (
{
closed = 1;
nodes = (
(536,0,l),
(536,98,l),
(188,98,l),
(188,100,l),
(536,632,l),
(536,730,l),
(56,730,l),
(56,632,l),
(404,632,l),
(404,630,l),
(56,98,l),
(56,0,l)
);
}
);
width = 592;
},
{
associatedMasterId = m004;
layerId = "2F6DE566-CC26-4FC9-B211-0E12642E4052";
name = "Jul 2, 26 at 13:22";
shapes = (
{
closed = 1;
nodes = (
(504,0,l),
(504,20,l),
(88,20,l),
(88,22,l),
(504,710,l),
(504,730,l),
(64,730,l),
(64,710,l),
(480,710,l),
(480,708,l),
(64,20,l),
(64,0,l)
);
}
);
width = 568;
}
);
metricLeft = "=H*.8";
metricRight = "=|";
unicode = 90;
},
{
color = 6;
export = 0;
glyphname = K.001;
kernLeft = H;
kernRight = X;
lastChange = "2026-07-01 14:09:29 +0000";
layers = (
{
layerId = m01;
metricRight = "=H*.2";
shapes = (
{
closed = 1;
nodes = (
(100,0,l),
(100,365,l),
(102,365,l),
(102,395,l),
(100,395,l),
(100,730,l),
(80,730,l),
(80,0,l)
);
},
{
closed = 1;
nodes = (
(108,374,l),
(108,374,l),
(108,374,l),
(580,730,l),
(547,730,l),
(86,383,l)
);
},
{
closed = 1;
nodes = (
(590,0,l),
(111,384,l),
(87,377,l),
(557,0,l)
);
}
);
width = 606;
},
{
associatedMasterId = m01;
attr = {
axisRules = (
{
},
{
max = 150;
min = 100;
}
);
};
layerId = "4232D787-58A2-40AB-B0C0-C3742F59B9D7";
metricRight = "=H*.2";
name = "Jun 15, 26 at 23:07";
shapes = (
{
closed = 1;
nodes = (
(100,0,l),
(100,0,l),
(100,0,l),
(100,0,l),
(100,0,l),
(100,730,l),
(80,730,l),
(80,0,l)
);
},
{
closed = 1;
nodes = (
(91,280,l),
(242,419,l),
(242,419,l),
(580,730,l),
(549,730,l),
(93,310,l)
);
},
{
closed = 1;
nodes = (
(590,0,l),
(250,432,l),
(233,420,l),
(564,0,l)
);
}
);
width = 606;
},
{
layerId = m002;
metricRight = "=H*.14";
shapes = (
{
closed = 1;
nodes = (
(180,0,l),
(180,356,l),
(182,356,l),
(182,410,l),
(180,410,l),
(180,730,l),
(70,730,l),
(70,0,l)
);
},
{
closed = 1;
nodes = (
(265,353,l),
(265,353,l),
(265,353,l),
(630,730,l),
(492,730,l),
(131,362,l)
);
},
{
closed = 1;
nodes = (
(640,0,l),
(274,405,l),
(141,397,l),
(500,0,l)
);
}
);
width = 650;
},
{
associatedMasterId = m002;
attr = {
axisRules = (
{
},
{
max = 150;
min = 100;
}
);
};
layerId = "CEE02474-A719-4FDD-A14A-D0761A1D484D";
metricRight = "=H*.14";
name = "Jun 15, 26 at 23:07";
shapes = (
{
closed = 1;
nodes = (
(182,0,l),
(182,0,l),
(182,0,l),
(182,0,l),
(180,0,l),
(180,730,l),
(70,730,l),
(70,0,l)
);
},
{
closed = 1;
nodes = (
(161,207,l),
(302,363,l),
(302,363,l),
(635,730,l),
(505,730,l),
(140,328,l)
);
},
{
closed = 1;
nodes = (
(640,0,l),
(344,430,l),
(228,418,l),
(516,0,l)
);
}
);
width = 650;
},
{
layerId = m003;
metricRight = "=H*.08";
name = Black;
shapes = (
{
closed = 1;
nodes = (
(260,0,l),
(260,336,l),
(262,336,l),
(262,416,l),
(260,416,l),
(260,730,l),
(60,730,l),
(60,0,l)
);
},
{
closed = 1;
nodes = (
(434,336,l),
(434,336,l),
(434,336,l),
(710,730,l),
(480,730,l),
(219,354,l)
);
},
{
closed = 1;
nodes = (
(720,0,l),
(427,427,l),
(227,389,l),
(484,0,l)
);
}
);
width = 725;
},
{
associatedMasterId = m003;
attr = {
axisRules = (
{
},
{
max = 150;
min = 100;
}
);
};
layerId = "31B4DD64-0B99-4F67-8117-9E6FEDB30488";
metricRight = "=H*.08";
name = "Jun 15, 26 at 23:07";
shapes = (
{
closed = 1;
nodes = (
(260,0,l),
(260,0,l),
(260,0,l),
(260,0,l),
(260,0,l),
(260,730,l),
(60,730,l),
(60,0,l)
);
},
{
closed = 1;
nodes = (
(196,109,l),
(342,299,l),
(375,281,l),
(720,730,l),
(488,730,l),
(197,345,l)
);
},
{
closed = 1;
nodes = (
(720,0,l),
(455,428,l),
(239,428,l),
(498,0,l)
);
}
);
width = 725;
},
{
layerId = m004;
metricRight = "=H*.2";
shapes = (
{
closed = 1;
nodes = (
(100,0,l),
(100,365,l),
(102,365,l),
(102,395,l),
(100,395,l),
(100,730,l),
(80,730,l),
(80,0,l)
);
},
{
closed = 1;
nodes = (
(108,374,l),
(108,374,l),
(108,374,l),
(570,730,l),
(537,730,l),
(86,383,l)
);
},
{
closed = 1;
nodes = (
(580,0,l),
(112,383,l),
(89,376,l),
(548,0,l)
);
}
);
width = 596;
},
{
background = {
shapes = (
{
closed = 0;
nodes = (
(620,730,l),
(284,369,l)
);
},
{
closed = 0;
nodes = (
(292,383,l),
(630,0,l)
);
}
);
};
layerId = m005;
metricRight = "=H*.14";
shapes = (
{
closed = 1;
nodes = (
(180,0,l),
(180,358,l),
(182,358,l),
(182,406,l),
(180,406,l),
(180,730,l),
(70,730,l),
(70,0,l)
);
},
{
closed = 1;
nodes = (
(268,355,l),
(268,355,l),
(268,355,l),
(620,730,l),
(484,730,l),
(148,369,l)
);
},
{
closed = 1;
nodes = (
(630,0,l),
(270,405,l),
(160,383,l),
(498,0,l)
);
}
);
width = 640;
},
{
associatedMasterId = m005;
attr = {
axisRules = (
{
},
{
max = 150;
min = 100;
}
);
};
layerId = "E874CD02-65E0-4789-BAF0-C0A32AEA5B96";
metricRight = "=H*.14";
name = "Jun 15, 26 at 23:08";
shapes = (
{
closed = 1;
nodes = (
(180,0,l),
(180,0,l),
(180,0,l),
(180,0,l),
(180,0,l),
(180,730,l),
(70,730,l),
(70,0,l)
);
},
{
closed = 1;
nodes = (
(159,207,l),
(298,363,l),
(298,363,l),
(625,730,l),
(495,730,l),
(137,328,l)
);
},
{
closed = 1;
nodes = (
(630,0,l),
(339,430,l),
(223,418,l),
(506,0,l)
);
}
);
width = 640;
},
{
layerId = m006;
metricRight = "=H*.08";
shapes = (
{
closed = 1;
nodes = (
(260,0,l),
(260,350,l),
(262,350,l),
(262,417,l),
(260,417,l),
(260,730,l),
(60,730,l),
(60,0,l)
);
},
{
closed = 1;
nodes = (
(440,336,l),
(440,336,l),
(434,336,l),
(670,730,l),
(446,730,l),
(225,354,l)
);
},
{
closed = 1;
nodes = (
(680,0,l),
(424,427,l),
(240,389,l),
(460,0,l)
);
}
);
width = 685;
},
{
associatedMasterId = m006;
attr = {
axisRules = (
{
},
{
max = 150;
min = 100;
}
);
};
layerId = "D5A57C5D-E6E9-4118-B1E3-B6E75BDA16B4";
metricRight = "=H*.08";
name = "Black F2 [100‹wd‹150] Jun 16, 26 at 20:32";
shapes = (
{
closed = 1;
nodes = (
(260,0,l),
(260,0,l),
(260,0,l),
(260,0,l),
(260,0,l),
(260,730,l),
(60,730,l),
(60,0,l)
);
},
{
closed = 1;
nodes = (
(188,109,l),
(325,299,l),
(356,281,l),
(680,730,l),
(450,730,l),
(180,345,l)
);
},
{
closed = 1;
nodes = (
(680,0,l),
(431,428,l),
(217,428,l),
(460,0,l)
);
}
);
width = 685;
},
{
associatedMasterId = m004;
attr = {
axisRules = (
{
},
{
max = 150;
min = 100;
}
);
};
layerId = "136435BD-4071-4DE5-9A3A-7BF299B36C41";
metricRight = "=H*.2";
name = "Thin F2 [100‹wd‹150] Jun 17, 26 at 15:05";
shapes = (
{
closed = 1;
nodes = (
(100,0,l),
(100,0,l),
(100,0,l),
(100,0,l),
(100,0,l),
(100,730,l),
(80,730,l),
(80,0,l)
);
},
{
closed = 1;
nodes = (
(91,280,l),
(239,419,l),
(239,419,l),
(570,730,l),
(540,730,l),
(93,310,l)
);
},
{
closed = 1;
nodes = (
(580,0,l),
(247,432,l),
(231,420,l),
(555,0,l)
);
}
);
width = 596;
}
);
metricLeft = "=H";
metricRight = "=H*.3";
},
{
export = 0;
glyphname = W.001;
kernLeft = V;
kernRight = V;
lastChange = "2026-07-02 03:47:06 +0000";
layers = (
{
layerId = m002;
shapes = (
{
closed = 1;
nodes = (
(337,0,l),
(488,595,l),
(490,595,l),
(641,0,l),
(777,0,l),
(964,730,l),
(848,730,l),
(725,206,l),
(708,132,l),
(706,132,l),
(688,206,l),
(557,730,l),
(557,730,l),
(557,730,l),
(421,730,l),
(421,730,l),
(421,730,l),
(290,206,l),
(272,132,l),
(270,132,l),
(253,206,l),
(130,730,l),
(14,730,l),
(201,0,l)
);
}
);
width = 978;
},
{
layerId = m004;
shapes = (
{
closed = 1;
nodes = (
(244,0,l),
(425,710,l),
(427,710,l),
(608,0,l),
(638,0,l),
(836,730,l),
(816,730,l),
(633,57,l),
(624,22,l),
(622,22,l),
(611,67,l),
(442,730,l),
(442,730,l),
(442,730,l),
(410,730,l),
(410,730,l),
(410,730,l),
(241,67,l),
(230,22,l),
(228,22,l),
(219,57,l),
(36,730,l),
(16,730,l),
(214,0,l)
);
}
);
width = 852;
},
{
layerId = m005;
shapes = (
{
closed = 1;
nodes = (
(343,0,l),
(463,618,l),
(465,618,l),
(585,0,l),
(734,0,l),
(914,730,l),
(796,730,l),
(676,184,l),
(663,120,l),
(661,120,l),
(649,187,l),
(544,730,l),
(544,730,l),
(544,730,l),
(384,730,l),
(384,730,l),
(384,730,l),
(279,187,l),
(267,120,l),
(265,120,l),
(252,184,l),
(132,730,l),
(14,730,l),
(194,0,l)
);
}
);
width = 928;
},
{
layerId = m006;
shapes = (
{
closed = 1;
nodes = (
(441,0,l),
(501,525,l),
(503,525,l),
(563,0,l),
(830,0,l),
(992,730,l),
(776,730,l),
(713,277,l),
(703,200,l),
(701,200,l),
(693,280,l),
(645,730,l),
(645,730,l),
(645,730,l),
(359,730,l),
(359,730,l),
(359,730,l),
(311,280,l),
(303,200,l),
(301,200,l),
(291,277,l),
(228,730,l),
(12,730,l),
(174,0,l)
);
}
);
width = 1004;
},
{
layerId = m003;
name = "Black F1";
shapes = (
{
closed = 1;
nodes = (
(452,0,l),
(526,510,l),
(528,510,l),
(602,0,l),
(862,0,l),
(1042,730,l),
(828,730,l),
(753,305,l),
(738,215,l),
(736,215,l),
(724,305,l),
(667,730,l),
(667,730,l),
(667,730,l),
(387,730,l),
(387,730,l),
(387,730,l),
(330,305,l),
(318,215,l),
(316,215,l),
(301,305,l),
(226,730,l),
(12,730,l),
(192,0,l)
);
}
);
width = 1054;
},
{
layerId = m01;
name = "Thin F1";
shapes = (
{
closed = 1;
nodes = (
(258,0,l),
(450,710,l),
(452,710,l),
(644,0,l),
(676,0,l),
(886,730,l),
(865,730,l),
(671,55,l),
(661,18,l),
(659,18,l),
(650,53,l),
(467,730,l),
(467,730,l),
(467,730,l),
(435,730,l),
(435,730,l),
(435,730,l),
(252,53,l),
(243,18,l),
(241,18,l),
(231,55,l),
(37,730,l),
(16,730,l),
(226,0,l)
);
}
);
width = 902;
},
{
associatedMasterId = m01;
attr = {
axisRules = (
{
max = 300;
min = 100;
},
{
max = 200;
min = 150;
}
);
};
background = {
shapes = (
{
closed = 1;
nodes = (
(318,0,l),
(616,730,l),
(594,730,l),
(318,52,l),
(307,24,l),
(306,24,l),
(296,52,l),
(38,730,l),
(16,730,l),
(294,0,l)
);
},
{
closed = 1;
nodes = (
(658,0,l),
(936,730,l),
(914,730,l),
(656,52,l),
(646,24,l),
(645,24,l),
(634,52,l),
(358,730,l),
(336,730,l),
(634,0,l)
);
}
);
};
layerId = "339D08D6-CC6C-44DE-95C5-FBF44D72E20E";
name = "Jun 11, 26 at 12:50";
shapes = (
{
closed = 1;
nodes = (
(318,0,l),
(476,387,l),
(634,0,l),
(658,0,l),
(936,730,l),
(914,730,l),
(656,52,l),
(646,24,l),
(645,24,l),
(634,52,l),
(487,414,l),
(616,730,l),
(594,730,l),
(476,440,l),
(358,730,l),
(336,730,l),
(465,414,l),
(318,52,l),
(307,24,l),
(306,24,l),
(296,52,l),
(38,730,l),
(16,730,l),
(294,0,l)
);
}
);
width = 952;
},
{
associatedMasterId = m002;
attr = {
axisRules = (
{
max = 300;
min = 100;
},
{
max = 200;
min = 150;
}
);
};
background = {
shapes = (
{
closed = 1;
nodes = (
(396,0,l),
(684,730,l),
(568,730,l),
(356,180,l),
(330,112,l),
(329,112,l),
(308,180,l),
(134,730,l),
(14,730,l),
(262,0,l)
);
},
{
closed = 1;
nodes = (
(726,0,l),
(974,730,l),
(854,730,l),
(680,180,l),
(659,112,l),
(658,112,l),
(632,180,l),
(420,730,l),
(304,730,l),
(592,0,l)
);
}
);
};
layerId = "8195DE06-0B79-4B96-BC6A-EA23991F1FB1";
name = "Medium F1 [100‹wg‹500, 200‹wd‹200] Jun 11, 26 at 13:37";
shapes = (
{
closed = 1;
nodes = (
(396,0,l),
(494,268,l),
(592,0,l),
(726,0,l),
(974,730,l),
(854,730,l),
(680,180,l),
(659,112,l),
(658,112,l),
(632,180,l),
(550,392,l),
(684,730,l),
(568,730,l),
(494,508,l),
(420,730,l),
(304,730,l),
(438,392,l),
(356,180,l),
(330,112,l),
(329,112,l),
(308,180,l),
(134,730,l),
(14,730,l),
(262,0,l)
);
}
);
width = 988;
},
{
associatedMasterId = m003;
attr = {
axisRules = (
{
max = 300;
min = 100;
},
{
max = 200;
min = 150;
}
);
};
background = {
shapes = (
{
closed = 1;
nodes = (
(452,0,l),
(752,730,l),
(544,730,l),
(343,170,l),
(341,170,l),
(230,730,l),
(12,730,l),
(212,0,l)
);
},
{
closed = 1;
nodes = (
(812,0,l),
(1012,730,l),
(794,730,l),
(683,170,l),
(681,170,l),
(480,730,l),
(272,730,l),
(572,0,l)
);
}
);
};
layerId = "ADB2B8C7-0568-49F9-A0E7-5BB48AC2E76C";
name = "Jun 11, 26 at 13:52";
shapes = (
{
closed = 1;
nodes = (
(452,0,l),
(512,186,l),
(572,0,l),
(812,0,l),
(1012,730,l),
(794,730,l),
(697,241,l),
(683,165,l),
(682,165,l),
(656,241,l),
(607,377,l),
(752,730,l),
(544,730,l),
(512,581,l),
(480,730,l),
(272,730,l),
(417,377,l),
(368,241,l),
(342,165,l),
(341,165,l),
(327,241,l),
(230,730,l),
(12,730,l),
(212,0,l)
);
}
);
width = 1024;
},
{
associatedMasterId = m004;
attr = {
axisRules = (
{
max = 300;
min = 100;
},
{
max = 200;
min = 150;
}
);
};
background = {
shapes = (
{
closed = 1;
nodes = (
(285,0,l),
(551,730,l),
(530,730,l),
(283,53,l),
(275,30,l),
(274,30,l),
(267,52,l),
(37,730,l),
(16,730,l),
(264,0,l)
);
},
{
closed = 1;
nodes = (
(588,0,l),
(836,730,l),
(815,730,l),
(585,52,l),
(578,30,l),
(577,30,l),
(569,53,l),
(322,730,l),
(301,730,l),
(567,0,l)
);
}
);
};
layerId = "E192F69A-8E5D-4218-A70D-FAE34409CC58";
name = "Jun 11, 26 at 17:53";
shapes = (
{
closed = 1;
nodes = (
(285,0,l),
(426,387,l),
(567,0,l),
(588,0,l),
(836,730,l),
(815,730,l),
(585,52,l),
(578,30,l),
(577,30,l),
(569,53,l),
(437,416,l),
(551,730,l),
(530,730,l),
(426,445,l),
(322,730,l),
(301,730,l),
(415,416,l),
(283,53,l),
(275,30,l),
(274,30,l),
(267,52,l),
(37,730,l),
(16,730,l),
(264,0,l)
);
}
);
width = 852;
},
{
associatedMasterId = m005;
attr = {
axisRules = (
{
max = 300;
min = 100;
},
{
max = 200;
min = 150;
}
);
};
layerId = "1250F801-1661-428B-A33C-769B7A1F763A";
name = "Jun 11, 26 at 17:53";
shapes = (
{
closed = 1;
nodes = (
(378,0,l),
(464,258,l),
(550,0,l),
(682,0,l),
(914,730,l),
(796,730,l),
(638,180,l),
(618,110,l),
(617,110,l),
(593,180,l),
(517,392,l),
(642,730,l),
(528,730,l),
(464,518,l),
(400,730,l),
(286,730,l),
(411,392,l),
(335,180,l),
(311,110,l),
(310,110,l),
(290,180,l),
(132,730,l),
(14,730,l),
(246,0,l)
);
}
);
width = 928;
},
{
associatedMasterId = m006;
attr = {
axisRules = (
{
max = 300;
min = 100;
},
{
max = 200;
min = 150;
}
);
};
layerId = "FB91E3A0-BD3D-4955-B8BF-EBB206396752";
name = "Jun 11, 26 at 17:54";
shapes = (
{
closed = 1;
nodes = (
(446,0,l),
(502,186,l),
(558,0,l),
(796,0,l),
(992,730,l),
(776,730,l),
(683,241,l),
(670,165,l),
(669,165,l),
(643,241,l),
(595,377,l),
(737,730,l),
(531,730,l),
(502,581,l),
(473,730,l),
(267,730,l),
(409,377,l),
(361,241,l),
(335,165,l),
(334,165,l),
(321,241,l),
(228,730,l),
(12,730,l),
(208,0,l)
);
}
);
width = 1004;
}
);
metricLeft = "=V";
metricRight = "=|";
},
{
export = 0;
glyphname = W.002;
kernLeft = V;
kernRight = V;
lastChange = "2026-07-02 04:25:35 +0000";
layers = (
{
layerId = m002;
shapes = (
{
closed = 1;
nodes = (
(337,0,l),
(488,595,l),
(490,595,l),
(641,0,l),
(777,0,l),
(964,730,l),
(848,730,l),
(725,206,l),
(708,132,l),
(706,132,l),
(688,206,l),
(557,730,l),
(557,730,l),
(557,730,l),
(421,730,l),
(421,730,l),
(421,730,l),
(290,206,l),
(272,132,l),
(270,132,l),
(253,206,l),
(130,730,l),
(14,730,l),
(201,0,l)
);
}
);
width = 978;
},
{
layerId = m004;
shapes = (
{
closed = 1;
nodes = (
(258,0,l),
(450,710,l),
(452,710,l),
(644,0,l),
(676,0,l),
(886,730,l),
(865,730,l),
(671,55,l),
(661,18,l),
(659,18,l),
(650,53,l),
(467,730,l),
(467,730,l),
(467,730,l),
(435,730,l),
(435,730,l),
(435,730,l),
(252,53,l),
(243,18,l),
(241,18,l),
(231,55,l),
(37,730,l),
(16,730,l),
(226,0,l)
);
}
);
width = 902;
},
{
layerId = m005;
shapes = (
{
closed = 1;
nodes = (
(337,0,l),
(488,595,l),
(490,595,l),
(641,0,l),
(777,0,l),
(964,730,l),
(848,730,l),
(725,206,l),
(708,132,l),
(706,132,l),
(688,206,l),
(557,730,l),
(557,730,l),
(557,730,l),
(421,730,l),
(421,730,l),
(421,730,l),
(290,206,l),
(272,132,l),
(270,132,l),
(253,206,l),
(130,730,l),
(14,730,l),
(201,0,l)
);
}
);
width = 978;
},
{
layerId = m006;
shapes = (
{
closed = 1;
nodes = (
(452,0,l),
(526,510,l),
(528,510,l),
(602,0,l),
(862,0,l),
(1042,730,l),
(828,730,l),
(753,305,l),
(738,215,l),
(736,215,l),
(724,305,l),
(667,730,l),
(667,730,l),
(667,730,l),
(387,730,l),
(387,730,l),
(387,730,l),
(330,305,l),
(318,215,l),
(316,215,l),
(301,305,l),
(226,730,l),
(12,730,l),
(192,0,l)
);
}
);
width = 1054;
},
{
layerId = m003;
name = "Black F1";
shapes = (
{
closed = 1;
nodes = (
(452,0,l),
(526,510,l),
(528,510,l),
(602,0,l),
(862,0,l),
(1042,730,l),
(828,730,l),
(753,305,l),
(738,215,l),
(736,215,l),
(724,305,l),
(667,730,l),
(667,730,l),
(667,730,l),
(387,730,l),
(387,730,l),
(387,730,l),
(330,305,l),
(318,215,l),
(316,215,l),
(301,305,l),
(226,730,l),
(12,730,l),
(192,0,l)
);
}
);
width = 1054;
},
{
layerId = m01;
name = "Thin F1";
shapes = (
{
closed = 1;
nodes = (
(258,0,l),
(450,710,l),
(452,710,l),
(644,0,l),
(676,0,l),
(886,730,l),
(865,730,l),
(671,55,l),
(661,18,l),
(659,18,l),
(650,53,l),
(467,730,l),
(467,730,l),
(467,730,l),
(435,730,l),
(435,730,l),
(435,730,l),
(252,53,l),
(243,18,l),
(241,18,l),
(231,55,l),
(37,730,l),
(16,730,l),
(226,0,l)
);
}
);
width = 902;
},
{
associatedMasterId = m004;
attr = {
axisRules = (
{
max = 300;
min = 100;
},
{
max = 200;
min = 150;
}
);
};
background = {
shapes = (
{
closed = 1;
nodes = (
(318,0,l),
(616,730,l),
(594,730,l),
(318,52,l),
(307,24,l),
(306,24,l),
(296,52,l),
(38,730,l),
(16,730,l),
(294,0,l)
);
},
{
closed = 1;
nodes = (
(658,0,l),
(936,730,l),
(914,730,l),
(656,52,l),
(646,24,l),
(645,24,l),
(634,52,l),
(358,730,l),
(336,730,l),
(634,0,l)
);
}
);
};
layerId = "E192F69A-8E5D-4218-A70D-FAE34409CC58";
name = "Jun 11, 26 at 17:53";
shapes = (
{
closed = 1;
nodes = (
(318,0,l),
(476,387,l),
(634,0,l),
(658,0,l),
(936,730,l),
(914,730,l),
(656,52,l),
(646,24,l),
(645,24,l),
(634,52,l),
(487,414,l),
(616,730,l),
(594,730,l),
(476,440,l),
(358,730,l),
(336,730,l),
(465,414,l),
(318,52,l),
(307,24,l),
(306,24,l),
(296,52,l),
(38,730,l),
(16,730,l),
(294,0,l)
);
}
);
width = 952;
},
{
associatedMasterId = m005;
attr = {
axisRules = (
{
max = 300;
min = 100;
},
{
max = 200;
min = 150;
}
);
};
background = {
shapes = (
{
closed = 1;
nodes = (
(396,0,l),
(684,730,l),
(568,730,l),
(356,180,l),
(330,112,l),
(329,112,l),
(308,180,l),
(134,730,l),
(14,730,l),
(262,0,l)
);
},
{
closed = 1;
nodes = (
(726,0,l),
(974,730,l),
(854,730,l),
(680,180,l),
(659,112,l),
(658,112,l),
(632,180,l),
(420,730,l),
(304,730,l),
(592,0,l)
);
}
);
};
layerId = "1250F801-1661-428B-A33C-769B7A1F763A";
name = "Jun 11, 26 at 17:53";
shapes = (
{
closed = 1;
nodes = (
(396,0,l),
(494,268,l),
(592,0,l),
(726,0,l),
(974,730,l),
(854,730,l),
(680,180,l),
(659,112,l),
(658,112,l),
(632,180,l),
(550,392,l),
(684,730,l),
(568,730,l),
(494,508,l),
(420,730,l),
(304,730,l),
(438,392,l),
(356,180,l),
(330,112,l),
(329,112,l),
(308,180,l),
(134,730,l),
(14,730,l),
(262,0,l)
);
}
);
width = 988;
},
{
associatedMasterId = m01;
attr = {
axisRules = (
{
max = 300;
min = 100;
},
{
max = 200;
min = 150;
}
);
};
background = {
shapes = (
{
closed = 1;
nodes = (
(358,0,l),
(696,730,l),
(674,730,l),
(363,59,l),
(347,22,l),
(345,22,l),
(330,59,l),
(38,730,l),
(16,730,l),
(334,0,l)
);
},
{
closed = 1;
nodes = (
(698,0,l),
(1016,730,l),
(994,730,l),
(702,59,l),
(687,22,l),
(685,22,l),
(669,59,l),
(358,730,l),
(336,730,l),
(674,0,l)
);
}
);
};
layerId = "84745874-0A59-4090-B506-B8B038283198";
name = "Thin F1 [100‹wg‹300, 150‹wd‹200] Jul 2, 26 at 12:49";
shapes = (
{
closed = 1;
nodes = (
(358,0,l),
(516,341,l),
(674,0,l),
(698,0,l),
(1016,730,l),
(994,730,l),
(702,59,l),
(687,22,l),
(685,22,l),
(669,59,l),
(527,365,l),
(696,730,l),
(674,730,l),
(516,389,l),
(358,730,l),
(336,730,l),
(505,365,l),
(363,59,l),
(347,22,l),
(345,22,l),
(330,59,l),
(38,730,l),
(16,730,l),
(334,0,l)
);
}
);
width = 1032;
},
{
associatedMasterId = m002;
attr = {
axisRules = (
{
max = 300;
min = 100;
},
{
max = 200;
min = 150;
}
);
};
background = {
shapes = (
{
closed = 1;
nodes = (
(436,0,l),
(764,730,l),
(648,730,l),
(400,178,l),
(375,121,l),
(373,121,l),
(351,180,l),
(134,730,l),
(14,730,l),
(302,0,l)
);
},
{
closed = 1;
nodes = (
(786,0,l),
(1074,730,l),
(954,730,l),
(737,180,l),
(715,121,l),
(713,121,l),
(688,178,l),
(440,730,l),
(324,730,l),
(652,0,l)
);
}
);
};
layerId = "995D3563-4519-49B2-A080-A616EDADFC3D";
name = "Medium F1 [100‹wg‹300, 150‹wd‹200] Jul 2, 26 at 12:56";
shapes = (
{
closed = 1;
nodes = (
(436,0,l),
(544,260,l),
(652,0,l),
(786,0,l),
(1074,730,l),
(954,730,l),
(737,180,l),
(715,121,l),
(713,121,l),
(688,178,l),
(602,369,l),
(764,730,l),
(648,730,l),
(544,479,l),
(440,730,l),
(324,730,l),
(486,369,l),
(400,178,l),
(375,121,l),
(373,121,l),
(351,180,l),
(134,730,l),
(14,730,l),
(302,0,l)
);
}
);
width = 1088;
}
);
metricLeft = "=V";
metricRight = "=|";
},
{
color = 4;
glyphname = a;
kernLeft = o;
kernRight = u;
lastChange = "2026-07-01 23:43:36 +0000";
layers = (
{
layerId = m01;
shapes = (
{
closed = 1;
nodes = (
(416,-10,o),
(507,46,o),
(547,144,c),
(549,144,l),
(549,0,l),
(569,0,l),
(569,520,l),
(569,520,l),
(569,520,l),
(569,520,l),
(549,520,l),
(549,520,l),
(549,520,l),
(549,520,l),
(549,376,l),
(547,376,l),
(507,474,o),
(416,530,o),
(299,530,cs),
(137,530,o),
(29,422,o),
(29,260,cs),
(29,98,o),
(137,-10,o),
(299,-10,cs)
);
},
{
closed = 1;
nodes = (
(148,10,o),
(49,109,o),
(49,260,cs),
(49,411,o),
(148,510,o),
(299,510,cs),
(450,510,o),
(549,411,o),
(549,260,c),
(549,260,l),
(549,109,o),
(450,10,o),
(299,10,cs)
);
}
);
width = 627;
},
{
associatedMasterId = m01;
attr = {
coordinates = (
200,
200
);
};
layerId = "46F1A50B-7C0C-4B23-8733-B6799256F0FB";
name = "Jun 20, 26 at 14:30";
shapes = (
{
closed = 1;
nodes = (
(403,-10,o),
(494,38,o),
(533,116,c),
(535,116,l),
(535,0,l),
(576,0,l),
(576,520,l),
(576,520,l),
(576,520,l),
(576,520,l),
(533,520,l),
(533,520,l),
(533,520,l),
(533,520,l),
(533,404,l),
(531,404,l),
(493,482,o),
(403,530,o),
(296,530,cs),
(135,530,o),
(28,422,o),
(28,260,cs),
(28,98,o),
(135,-10,o),
(296,-10,cs)
);
},
{
closed = 1;
nodes = (
(162,27,o),
(70,119,o),
(70,260,cs),
(70,401,o),
(162,494,o),
(302,494,cs),
(441,494,o),
(533,401,o),
(533,260,c),
(533,260,l),
(533,119,o),
(441,27,o),
(302,27,cs)
);
}
);
width = 632;
},
{
associatedMasterId = m01;
attr = {
axisRules = (
{
},
{
max = 150;
min = 100;
}
);
};
layerId = "C38710FC-DE03-4402-A680-1BD323331CB3";
name = "Thin F1 [100‹wd‹150] Jun 15, 26 at 20:31";
shapes = (
{
closed = 1;
nodes = (
(311,-10,o),
(393,34,o),
(437,108,c),
(439,108,l),
(439,0,l),
(459,0,l),
(459,325,ls),
(459,476,o),
(409,530,o),
(268,530,cs),
(194,530,o),
(120,515,o),
(52,484,c),
(60,466,l),
(126,496,o),
(196,510,o),
(268,510,cs),
(397,510,o),
(439,465,o),
(439,325,c),
(338,325,ls),
(138,325,o),
(29,262,o),
(29,145,cs),
(29,50,o),
(101,-10,o),
(214,-10,cs)
);
},
{
closed = 1;
nodes = (
(111,10,o),
(49,62,o),
(49,145,cs),
(49,248,o),
(146,305,o),
(338,305,cs),
(439,305,l),
(439,168,l),
(418,74,o),
(327,10,o),
(214,10,cs)
);
}
);
width = 517;
},
{
associatedMasterId = m01;
attr = {
axisRules = (
{
},
{
max = 150;
min = 100;
}
);
coordinates = (
200,
200
);
};
layerId = "0F8FA687-1F62-46B7-84B5-53EEADDCFC1A";
name = "Thin F1 [100‹wd‹120] Jun 13, 26 at 11:54";
shapes = (
{
closed = 1;
nodes = (
(301,-10,o),
(385,29,o),
(427,89,c),
(429,89,l),
(429,0,l),
(469,0,l),
(469,326,ls),
(469,477,o),
(418,530,o),
(273,530,cs),
(197,530,o),
(119,515,o),
(51,485,c),
(61,448,l),
(126,478,o),
(198,493,o),
(269,493,cs),
(387,493,o),
(427,453,o),
(427,329,c),
(331,329,ls),
(136,329,o),
(28,265,o),
(28,147,cs),
(28,51,o),
(100,-10,o),
(212,-10,cs)
);
},
{
closed = 1;
nodes = (
(127,29,o),
(70,75,o),
(70,150,cs),
(70,242,o),
(159,293,o),
(336,293,cs),
(427,293,l),
(427,171,l),
(407,86,o),
(324,29,o),
(221,29,cs)
);
}
);
width = 525;
},
{
layerId = m002;
shapes = (
{
closed = 1;
nodes = (
(370,-10,o),
(450,22,o),
(489,72,c),
(491,72,l),
(491,0,l),
(595,0,l),
(595,520,l),
(595,520,l),
(595,520,l),
(595,520,l),
(486,520,l),
(486,520,l),
(486,520,l),
(486,520,l),
(486,448,l),
(484,448,l),
(447,498,o),
(370,530,o),
(285,530,cs),
(129,530,o),
(25,422,o),
(25,260,cs),
(25,98,o),
(129,-10,o),
(285,-10,cs)
);
},
{
closed = 1;
nodes = (
(205,80,o),
(134,152,o),
(134,260,cs),
(134,368,o),
(205,440,o),
(310,440,cs),
(415,440,o),
(486,368,o),
(486,260,c),
(486,260,l),
(486,152,o),
(415,80,o),
(310,80,cs)
);
}
);
width = 645;
},
{
associatedMasterId = m002;
attr = {
axisRules = (
{
},
{
max = 150;
min = 100;
}
);
};
layerId = "ED553DDA-DF08-4367-81EA-A36C5E5BBDAF";
name = "Jun 13, 26 at 11:16";
shapes = (
{
closed = 1;
nodes = (
(281,-10,o),
(356,22,o),
(395,72,c),
(397,72,l),
(397,0,l),
(500,0,l),
(500,328,ls),
(500,478,o),
(446,530,o),
(288,530,cs),
(206,530,o),
(116,516,o),
(47,489,c),
(64,393,l),
(128,424,o),
(202,440,o),
(271,440,cs),
(357,440,o),
(392,415,o),
(392,342,c),
(309,342,ls),
(127,343,o),
(25,275,o),
(25,154,cs),
(25,54,o),
(95,-10,o),
(204,-10,cs)
);
},
{
closed = 1;
nodes = (
(175,84,o),
(133,114,o),
(133,163,cs),
(133,225,o),
(198,256,o),
(329,256,cs),
(392,256,l),
(392,180,l),
(374,122,o),
(315,84,o),
(241,84,cs)
);
}
);
width = 550;
},
{
layerId = m003;
shapes = (
{
closed = 1;
nodes = (
(321,-10,o),
(390,17,o),
(432,60,c),
(434,60,l),
(434,0,l),
(622,0,l),
(622,520,l),
(622,520,l),
(622,520,l),
(622,520,l),
(424,520,l),
(424,520,l),
(424,520,l),
(424,520,l),
(424,460,l),
(422,460,l),
(380,505,o),
(319,530,o),
(252,530,cs),
(114,530,o),
(22,422,o),
(22,260,cs),
(22,98,o),
(114,-10,o),
(252,-10,cs)
);
},
{
closed = 1;
nodes = (
(262,157,o),
(220,200,o),
(220,260,cs),
(220,320,o),
(262,363,o),
(322,363,cs),
(382,363,o),
(424,320,o),
(424,260,c),
(424,260,l),
(424,200,o),
(382,157,o),
(322,157,cs)
);
}
);
width = 665;
},
{
associatedMasterId = m003;
attr = {
axisRules = (
{
},
{
max = 150;
min = 100;
}
);
};
layerId = "A8E37540-B84B-445C-A393-7F86791583F9";
name = "Jun 13, 26 at 11:16";
shapes = (
{
closed = 1;
nodes = (
(245,-10,o),
(316,19,o),
(353,60,c),
(356,60,l),
(356,0,l),
(542,0,l),
(542,330,ls),
(542,479,o),
(483,530,o),
(309,530,cs),
(218,530,o),
(111,516,o),
(42,493,c),
(65,353,l),
(132,377,o),
(207,390,o),
(276,390,cs),
(335,390,o),
(346,381,o),
(346,338,c),
(281,338,ls),
(115,338,o),
(22,272,o),
(22,153,cs),
(22,55,o),
(85,-10,o),
(181,-10,cs)
);
},
{
closed = 1;
nodes = (
(232,133,o),
(208,150,o),
(208,178,cs),
(208,214,o),
(244,231,o),
(320,231,cs),
(346,231,l),
(346,171,l),
(330,145,o),
(305,133,o),
(271,133,cs)
);
}
);
width = 585;
},
{
layerId = m004;
name = "Thin F2";
shapes = (
{
closed = 1;
nodes = (
(371,-10,o),
(456,35,o),
(497,108,c),
(499,108,l),
(499,0,l),
(519,0,l),
(519,520,l),
(519,520,l),
(519,520,l),
(519,520,l),
(499,520,l),
(499,520,l),
(499,520,l),
(499,520,l),
(499,412,l),
(497,412,l),
(456,485,o),
(371,530,o),
(275,530,cs),
(127,530,o),
(29,422,o),
(29,260,cs),
(29,98,o),
(127,-10,o),
(275,-10,cs)
);
},
{
closed = 1;
nodes = (
(138,10,o),
(49,108,o),
(49,260,cs),
(49,412,o),
(138,510,o),
(275,510,cs),
(388,510,o),
(474,451,o),
(499,355,c),
(499,165,l),
(474,69,o),
(388,10,o),
(275,10,cs)
);
}
);
width = 577;
},
{
associatedMasterId = m004;
attr = {
coordinates = (
200,
100
);
};
background = {
shapes = (
{
closed = 1;
nodes = (
(361,-10,o),
(443,29,o),
(484,89,c),
(486,89,l),
(486,0,l),
(528,0,l),
(528,520,l),
(528,520,l),
(528,520,l),
(528,520,l),
(485,520,l),
(485,520,l),
(485,520,l),
(485,520,l),
(485,431,l),
(483,431,l),
(443,491,o),
(361,530,o),
(272,530,cs),
(125,530,o),
(28,423,o),
(28,260,cs),
(28,97,o),
(125,-10,o),
(272,-10,cs)
);
},
{
closed = 1;
nodes = (
(152,27,o),
(70,117,o),
(70,260,cs),
(70,403,o),
(152,494,o),
(279,494,cs),
(384,494,o),
(463,438,o),
(486,348,c),
(486,173,l),
(463,83,o),
(384,27,o),
(279,27,cs)
);
}
);
};
layerId = "4542052A-5F31-4362-B451-0B9720437F60";
name = "Jun 20, 26 at 14:28";
shapes = (
{
closed = 1;
nodes = (
(361,-10,o),
(444,29,o),
(485,89,c),
(487,89,l),
(487,0,l),
(528,0,l),
(528,520,l),
(528,520,l),
(528,520,l),
(528,520,l),
(486,520,l),
(486,520,l),
(486,520,l),
(486,520,l),
(486,431,l),
(484,431,l),
(444,491,o),
(361,530,o),
(272,530,cs),
(125,530,o),
(28,423,o),
(28,260,cs),
(28,97,o),
(125,-10,o),
(272,-10,cs)
);
},
{
closed = 1;
nodes = (
(152,28,o),
(70,118,o),
(70,260,cs),
(70,402,o),
(152,493,o),
(279,493,cs),
(383,493,o),
(463,436,o),
(486,347,c),
(486,173,l),
(463,84,o),
(383,28,o),
(279,28,cs)
);
}
);
width = 584;
},
{
associatedMasterId = m004;
attr = {
axisRules = (
{
},
{
max = 150;
min = 100;
}
);
};
layerId = "2F6DAC94-11DA-4706-9407-E7CE0C8C551C";
metricLeft = "=o";
name = "Jun 13, 26 at 10:59";
shapes = (
{
closed = 1;
nodes = (
(297,-10,o),
(377,37,o),
(417,108,c),
(419,108,l),
(419,0,l),
(439,0,l),
(439,325,ls),
(439,476,o),
(391,530,o),
(257,530,cs),
(186,530,o),
(116,515,o),
(51,484,c),
(60,466,l),
(123,496,o),
(188,510,o),
(257,510,cs),
(379,510,o),
(419,465,o),
(419,325,c),
(323,325,ls),
(135,325,o),
(29,264,o),
(29,145,cs),
(29,50,o),
(99,-10,o),
(205,-10,cs)
);
},
{
closed = 1;
nodes = (
(109,10,o),
(49,62,o),
(49,145,cs),
(49,250,o),
(143,305,o),
(323,305,cs),
(419,305,l),
(419,168,l),
(399,75,o),
(311,10,o),
(205,10,cs)
);
}
);
width = 497;
},
{
associatedMasterId = m004;
attr = {
axisRules = (
{
},
{
max = 150;
min = 100;
}
);
coordinates = (
200,
100
);
};
layerId = "AB5C3998-141E-4435-A4D0-70B56BE0E087";
name = "Jun 13, 26 at 12:15";
shapes = (
{
closed = 1;
nodes = (
(288,-10,o),
(367,29,o),
(407,89,c),
(409,89,l),
(409,0,l),
(449,0,l),
(449,326,ls),
(449,477,o),
(400,530,o),
(262,530,cs),
(189,530,o),
(115,515,o),
(50,485,c),
(61,448,l),
(123,478,o),
(190,493,o),
(258,493,cs),
(370,493,o),
(407,453,o),
(407,329,c),
(317,329,ls),
(133,329,o),
(28,267,o),
(28,147,cs),
(28,51,o),
(97,-10,o),
(203,-10,cs)
);
},
{
closed = 1;
nodes = (
(125,29,o),
(70,75,o),
(70,150,cs),
(70,244,o),
(156,293,o),
(321,293,cs),
(407,293,l),
(407,171,l),
(388,88,o),
(308,29,o),
(212,29,cs)
);
}
);
width = 505;
},
{
layerId = m005;
shapes = (
{
closed = 1;
nodes = (
(338,-10,o),
(405,20,o),
(449,72,c),
(451,72,l),
(451,0,l),
(555,0,l),
(555,520,l),
(555,520,l),
(555,520,l),
(555,520,l),
(446,520,l),
(446,520,l),
(446,520,l),
(446,520,l),
(446,448,l),
(444,448,l),
(401,501,o),
(337,530,o),
(261,530,cs),
(117,530,o),
(25,425,o),
(25,260,cs),
(25,95,o),
(117,-10,o),
(261,-10,cs)
);
},
{
closed = 1;
nodes = (
(192,80,o),
(134,147,o),
(134,260,cs),
(134,373,o),
(192,440,o),
(290,440,cs),
(369,440,o),
(428,396,o),
(446,324,c),
(446,196,l),
(428,124,o),
(369,80,o),
(290,80,cs)
);
}
);
width = 605;
},
{
associatedMasterId = m005;
attr = {
axisRules = (
{
},
{
max = 150;
min = 100;
}
);
};
layerId = "9EA168CF-1C41-4E56-9DDA-6F50CBAD1343";
name = "Jun 13, 26 at 10:58";
shapes = (
{
closed = 1;
nodes = (
(269,-10,o),
(338,22,o),
(375,72,c),
(377,72,l),
(377,0,l),
(480,0,l),
(480,328,ls),
(480,478,o),
(428,530,o),
(277,530,cs),
(198,530,o),
(112,516,o),
(46,489,c),
(62,393,l),
(124,424,o),
(195,440,o),
(261,440,cs),
(344,440,o),
(372,415,o),
(372,342,c),
(297,342,ls),
(123,343,o),
(25,275,o),
(25,154,cs),
(25,54,o),
(92,-10,o),
(196,-10,cs)
);
},
{
closed = 1;
nodes = (
(171,84,o),
(133,114,o),
(133,163,cs),
(133,225,o),
(193,256,o),
(313,256,cs),
(372,256,l),
(372,180,l),
(355,122,o),
(300,84,o),
(233,84,cs)
);
}
);
width = 530;
},
{
layerId = m006;
name = "Black F2";
shapes = (
{
closed = 1;
nodes = (
(309,-10,o),
(354,10,o),
(402,60,c),
(404,60,l),
(404,0,l),
(592,0,l),
(592,520,l),
(592,520,l),
(592,520,l),
(592,520,l),
(394,520,l),
(394,520,l),
(394,520,l),
(394,520,l),
(394,460,l),
(392,460,l),
(346,511,o),
(307,530,o),
(247,530,cs),
(107,530,o),
(22,428,o),
(22,260,cs),
(22,92,o),
(107,-10,o),
(247,-10,cs)
);
},
{
closed = 1;
nodes = (
(249,142,o),
(220,181,o),
(220,260,cs),
(220,339,o),
(249,378,o),
(307,378,cs),
(349,378,o),
(384,358,o),
(394,327,c),
(394,193,l),
(384,162,o),
(349,142,o),
(307,142,cs)
);
}
);
width = 635;
},
{
associatedMasterId = m006;
attr = {
axisRules = (
{
},
{
max = 150;
min = 100;
}
);
};
layerId = "C7D51260-6CEC-42F1-8753-3096B68C9C5C";
name = "Jun 13, 26 at 10:57";
shapes = (
{
closed = 1;
nodes = (
(235,-10,o),
(299,18,o),
(334,60,c),
(336,60,l),
(336,0,l),
(522,0,l),
(522,330,ls),
(522,479,o),
(465,530,o),
(298,530,cs),
(210,530,o),
(108,516,o),
(41,493,c),
(63,353,l),
(123,375,o),
(203,390,o),
(266,390,cs),
(316,390,o),
(326,381,o),
(326,338,c),
(271,338,ls),
(111,338,o),
(22,272,o),
(22,153,cs),
(22,55,o),
(83,-10,o),
(175,-10,cs)
);
},
{
closed = 1;
nodes = (
(228,133,o),
(208,150,o),
(208,178,cs),
(208,215,o),
(237,231,o),
(304,231,cs),
(326,231,l),
(326,171,l),
(312,146,o),
(290,133,o),
(261,133,cs)
);
}
);
width = 565;
}
);
metricLeft = "=o";
metricRight = "=h";
unicode = 97;
},
{
color = 4;
glyphname = b;
kernLeft = H;
kernRight = o;
lastChange = "2026-07-01 23:44:02 +0000";
layers = (
{
layerId = m01;
shapes = (
{
closed = 1;
nodes = (
(504,-10,o),
(612,98,o),
(612,260,cs),
(612,422,o),
(504,530,o),
(342,530,cs),
(225,530,o),
(134,474,o),
(94,376,c),
(92,376,l),
(92,770,l),
(72,770,l),
(72,0,l),
(92,0,l),
(92,144,l),
(94,144,l),
(134,46,o),
(225,-10,o),
(342,-10,cs)
);
},
{
closed = 1;
nodes = (
(191,10,o),
(92,109,o),
(92,260,c),
(92,260,l),
(92,411,o),
(191,510,o),
(342,510,cs),
(493,510,o),
(592,411,o),
(592,260,cs),
(592,109,o),
(493,10,o),
(342,10,cs)
);
}
);
width = 641;
},
{
associatedMasterId = m01;
attr = {
coordinates = (
200,
200
);
};
layerId = "46F1A50B-7C0C-4B23-8733-B6799256F0FB";
name = "Jun 20, 26 at 14:30";
shapes = (
{
closed = 1;
nodes = (
(511,-10,o),
(618,98,o),
(618,260,cs),
(618,422,o),
(511,530,o),
(351,530,cs),
(243,530,o),
(153,482,o),
(115,404,c),
(113,404,l),
(113,770,l),
(70,770,l),
(71,0,l),
(112,0,l),
(112,116,l),
(114,116,l),
(152,38,o),
(243,-10,o),
(351,-10,cs)
);
},
{
closed = 1;
nodes = (
(205,27,o),
(113,119,o),
(113,260,c),
(113,260,l),
(113,401,o),
(205,494,o),
(344,494,cs),
(484,494,o),
(576,401,o),
(576,260,cs),
(576,119,o),
(484,27,o),
(344,27,cs)
);
}
);
width = 646;
},
{
layerId = m002;
shapes = (
{
closed = 1;
nodes = (
(529,-10,o),
(633,98,o),
(633,260,cs),
(633,422,o),
(529,530,o),
(373,530,cs),
(288,530,o),
(211,498,o),
(174,448,c),
(172,448,l),
(172,770,l),
(63,770,l),
(63,0,l),
(167,0,l),
(167,72,l),
(169,72,l),
(208,22,o),
(288,-10,o),
(373,-10,cs)
);
},
{
closed = 1;
nodes = (
(243,80,o),
(172,152,o),
(172,260,c),
(172,260,l),
(172,368,o),
(243,440,o),
(348,440,cs),
(453,440,o),
(524,368,o),
(524,260,cs),
(524,152,o),
(453,80,o),
(348,80,cs)
);
}
);
width = 658;
},
{
layerId = m003;
shapes = (
{
closed = 1;
nodes = (
(562,-10,o),
(654,98,o),
(654,260,cs),
(654,422,o),
(562,530,o),
(424,530,cs),
(357,530,o),
(296,505,o),
(254,460,c),
(252,460,l),
(252,770,l),
(54,770,l),
(54,0,l),
(242,0,l),
(242,60,l),
(244,60,l),
(286,17,o),
(355,-10,o),
(424,-10,cs)
);
},
{
closed = 1;
nodes = (
(294,157,o),
(252,200,o),
(252,260,c),
(252,260,l),
(252,320,o),
(294,363,o),
(354,363,cs),
(414,363,o),
(456,320,o),
(456,260,cs),
(456,200,o),
(414,157,o),
(354,157,cs)
);
}
);
width = 676;
},
{
layerId = m004;
name = "Thin F2";
shapes = (
{
closed = 1;
nodes = (
(464,-10,o),
(562,98,o),
(562,260,cs),
(562,422,o),
(464,530,o),
(316,530,cs),
(220,530,o),
(135,485,o),
(94,412,c),
(92,412,l),
(92,770,l),
(72,770,l),
(72,0,l),
(92,0,l),
(92,108,l),
(94,108,l),
(135,35,o),
(220,-10,o),
(316,-10,cs)
);
},
{
closed = 1;
nodes = (
(203,10,o),
(117,69,o),
(92,165,c),
(92,355,l),
(117,451,o),
(203,510,o),
(316,510,cs),
(453,510,o),
(542,412,o),
(542,260,cs),
(542,108,o),
(453,10,o),
(316,10,cs)
);
}
);
width = 591;
},
{
associatedMasterId = m004;
attr = {
coordinates = (
200,
100
);
};
layerId = "4542052A-5F31-4362-B451-0B9720437F60";
name = "Jun 20, 26 at 14:28";
shapes = (
{
closed = 1;
nodes = (
(473,-10,o),
(570,97,o),
(570,260,cs),
(570,423,o),
(473,530,o),
(326,530,cs),
(237,530,o),
(154,491,o),
(114,431,c),
(112,431,l),
(112,770,l),
(70,770,l),
(70,0,l),
(111,0,l),
(111,89,l),
(113,89,l),
(154,29,o),
(237,-10,o),
(326,-10,cs)
);
},
{
closed = 1;
nodes = (
(215,28,o),
(135,84,o),
(112,173,c),
(112,347,l),
(135,436,o),
(215,493,o),
(319,493,cs),
(446,493,o),
(528,402,o),
(528,260,cs),
(528,118,o),
(446,28,o),
(319,28,cs)
);
}
);
width = 598;
},
{
layerId = m005;
shapes = (
{
closed = 1;
nodes = (
(501,-10,o),
(593,95,o),
(593,260,cs),
(593,425,o),
(501,530,o),
(358,530,cs),
(281,530,o),
(217,501,o),
(175,448,c),
(173,448,l),
(172,770,l),
(63,770,l),
(63,0,l),
(168,0,l),
(168,72,l),
(170,72,l),
(213,20,o),
(280,-10,o),
(358,-10,cs)
);
},
{
closed = 1;
nodes = (
(249,80,o),
(190,124,o),
(172,196,c),
(172,324,l),
(190,396,o),
(249,440,o),
(328,440,cs),
(426,440,o),
(484,373,o),
(484,260,cs),
(484,147,o),
(426,80,o),
(328,80,cs)
);
}
);
width = 618;
},
{
layerId = m006;
name = "Black F2";
shapes = (
{
closed = 1;
nodes = (
(539,-10,o),
(624,92,o),
(624,260,cs),
(624,428,o),
(539,530,o),
(399,530,cs),
(339,530,o),
(300,511,o),
(254,460,c),
(252,460,l),
(252,770,l),
(54,770,l),
(54,0,l),
(242,0,l),
(242,60,l),
(244,60,l),
(292,10,o),
(337,-10,o),
(399,-10,cs)
);
},
{
closed = 1;
nodes = (
(297,142,o),
(262,162,o),
(252,193,c),
(252,327,l),
(262,358,o),
(297,378,o),
(339,378,cs),
(397,378,o),
(426,339,o),
(426,260,cs),
(426,181,o),
(397,142,o),
(339,142,cs)
);
}
);
width = 646;
}
);
metricLeft = "=h";
metricRight = "=o";
unicode = 98;
},
{
color = 4;
glyphname = c;
kernLeft = o;
kernRight = c;
lastChange = "2026-07-01 23:44:04 +0000";
layers = (
{
layerId = m01;
shapes = (
{
closed = 1;
nodes = (
(378,-20,o),
(448,-3,o),
(499,25,c),
(489,43,l),
(440,16,o),
(375,0,o),
(313,0,cs),
(156,0,o),
(49,105,o),
(49,260,cs),
(49,415,o),
(156,520,o),
(313,520,cs),
(375,520,o),
(440,504,o),
(489,477,c),
(499,495,l),
(448,523,o),
(378,540,o),
(313,540,cs),
(145,540,o),
(29,426,o),
(29,260,cs),
(29,94,o),
(145,-20,o),
(313,-20,cs)
);
}
);
width = 545;
},
{
layerId = m002;
shapes = (
{
closed = 1;
nodes = (
(399,-20,o),
(463,-5,o),
(515,23,c),
(493,113,l),
(437,88,o),
(385,76,o),
(335,76,cs),
(213,76,o),
(137,147,o),
(137,260,cs),
(137,373,o),
(213,444,o),
(335,444,cs),
(385,444,o),
(437,432,o),
(493,407,c),
(515,497,l),
(463,525,o),
(399,540,o),
(329,540,cs),
(142,540,o),
(25,432,o),
(25,260,cs),
(25,88,o),
(142,-20,o),
(329,-20,cs)
);
}
);
width = 555;
},
{
layerId = m003;
shapes = (
{
closed = 1;
nodes = (
(420,-20,o),
(479,-7,o),
(532,21,c),
(500,181,l),
(443,159,o),
(400,150,o),
(358,150,cs),
(272,150,o),
(226,188,o),
(226,260,cs),
(226,332,o),
(272,370,o),
(358,370,cs),
(400,370,o),
(443,361,o),
(500,339,c),
(532,499,l),
(479,527,o),
(420,540,o),
(346,540,cs),
(140,540,o),
(22,438,o),
(22,260,cs),
(22,82,o),
(140,-20,o),
(346,-20,cs)
);
}
);
width = 567;
},
{
layerId = m004;
shapes = (
{
closed = 1;
nodes = (
(348,-20,o),
(412,-3,o),
(459,25,c),
(449,42,l),
(404,15,o),
(345,0,o),
(289,0,cs),
(146,0,o),
(49,104,o),
(49,260,cs),
(49,416,o),
(146,520,o),
(289,520,cs),
(345,520,o),
(404,505,o),
(449,478,c),
(459,495,l),
(412,523,o),
(348,540,o),
(289,540,cs),
(135,540,o),
(29,426,o),
(29,260,cs),
(29,94,o),
(135,-20,o),
(289,-20,cs)
);
}
);
width = 505;
},
{
layerId = m005;
shapes = (
{
closed = 1;
nodes = (
(375,-20,o),
(436,-5,o),
(485,23,c),
(463,113,l),
(412,88,o),
(364,76,o),
(318,76,cs),
(205,76,o),
(135,146,o),
(135,260,cs),
(135,374,o),
(205,444,o),
(318,444,cs),
(364,444,o),
(412,432,o),
(463,407,c),
(485,497,l),
(436,525,o),
(375,540,o),
(310,540,cs),
(135,540,o),
(25,432,o),
(25,260,cs),
(25,88,o),
(135,-20,o),
(310,-20,cs)
);
}
);
width = 525;
},
{
layerId = m006;
shapes = (
{
closed = 1;
nodes = (
(404,-20,o),
(461,-7,o),
(512,21,c),
(480,181,l),
(424,158,o),
(389,150,o),
(347,150,cs),
(266,150,o),
(222,189,o),
(222,260,cs),
(222,331,o),
(266,370,o),
(347,370,cs),
(389,370,o),
(424,362,o),
(480,339,c),
(512,499,l),
(461,527,o),
(404,540,o),
(333,540,cs),
(135,540,o),
(22,438,o),
(22,260,cs),
(22,82,o),
(135,-20,o),
(333,-20,cs)
);
}
);
width = 547;
}
);
metricLeft = "=o";
metricRight = "=|*1.6";
unicode = 99;
},
{
color = 4;
glyphname = d;
kernLeft = o;
kernRight = H;
lastChange = "2026-07-01 23:43:05 +0000";
layers = (
{
layerId = m01;
shapes = (
{
closed = 1;
nodes = (
(416,-10,o),
(507,46,o),
(547,144,c),
(549,144,l),
(549,0,l),
(569,0,l),
(569,770,l),
(549,770,l),
(549,376,l),
(547,376,l),
(507,474,o),
(416,530,o),
(299,530,cs),
(137,530,o),
(29,422,o),
(29,260,cs),
(29,98,o),
(137,-10,o),
(299,-10,cs)
);
},
{
closed = 1;
nodes = (
(148,10,o),
(49,109,o),
(49,260,cs),
(49,411,o),
(148,510,o),
(299,510,cs),
(450,510,o),
(549,411,o),
(549,260,c),
(549,260,l),
(549,109,o),
(450,10,o),
(299,10,cs)
);
}
);
width = 641;
},
{
associatedMasterId = m01;
attr = {
coordinates = (
200,
200
);
};
layerId = "46F1A50B-7C0C-4B23-8733-B6799256F0FB";
name = "Jun 20, 26 at 14:30";
shapes = (
{
closed = 1;
nodes = (
(403,-10,o),
(494,38,o),
(533,116,c),
(535,116,l),
(535,0,l),
(576,0,l),
(576,770,l),
(533,770,l),
(533,404,l),
(531,404,l),
(493,482,o),
(403,530,o),
(296,530,cs),
(135,530,o),
(28,422,o),
(28,260,cs),
(28,98,o),
(135,-10,o),
(296,-10,cs)
);
},
{
closed = 1;
nodes = (
(162,27,o),
(70,119,o),
(70,260,cs),
(70,401,o),
(162,494,o),
(302,494,cs),
(441,494,o),
(533,401,o),
(533,260,c),
(533,260,l),
(533,119,o),
(441,27,o),
(302,27,cs)
);
}
);
width = 646;
},
{
layerId = m002;
shapes = (
{
closed = 1;
nodes = (
(370,-10,o),
(450,22,o),
(489,72,c),
(491,72,l),
(491,0,l),
(595,0,l),
(595,770,l),
(486,770,l),
(486,448,l),
(484,448,l),
(447,498,o),
(370,530,o),
(285,530,cs),
(129,530,o),
(25,422,o),
(25,260,cs),
(25,98,o),
(129,-10,o),
(285,-10,cs)
);
},
{
closed = 1;
nodes = (
(205,80,o),
(134,152,o),
(134,260,cs),
(134,368,o),
(205,440,o),
(310,440,cs),
(415,440,o),
(486,368,o),
(486,260,c),
(486,260,l),
(486,152,o),
(415,80,o),
(310,80,cs)
);
}
);
width = 658;
},
{
layerId = m003;
shapes = (
{
closed = 1;
nodes = (
(321,-10,o),
(390,17,o),
(432,60,c),
(434,60,l),
(434,0,l),
(622,0,l),
(622,770,l),
(424,770,l),
(424,460,l),
(422,460,l),
(380,505,o),
(319,530,o),
(252,530,cs),
(114,530,o),
(22,422,o),
(22,260,cs),
(22,98,o),
(114,-10,o),
(252,-10,cs)
);
},
{
closed = 1;
nodes = (
(262,157,o),
(220,200,o),
(220,260,cs),
(220,320,o),
(262,363,o),
(322,363,cs),
(382,363,o),
(424,320,o),
(424,260,c),
(424,260,l),
(424,200,o),
(382,157,o),
(322,157,cs)
);
}
);
width = 676;
},
{
layerId = m004;
name = "Thin F2";
shapes = (
{
closed = 1;
nodes = (
(371,-10,o),
(456,35,o),
(497,108,c),
(499,108,l),
(499,0,l),
(519,0,l),
(519,770,l),
(499,770,l),
(499,412,l),
(497,412,l),
(456,485,o),
(371,530,o),
(275,530,cs),
(127,530,o),
(29,422,o),
(29,260,cs),
(29,98,o),
(127,-10,o),
(275,-10,cs)
);
},
{
closed = 1;
nodes = (
(138,10,o),
(49,108,o),
(49,260,cs),
(49,412,o),
(138,510,o),
(275,510,cs),
(388,510,o),
(474,451,o),
(499,355,c),
(499,165,l),
(474,69,o),
(388,10,o),
(275,10,cs)
);
}
);
width = 591;
},
{
associatedMasterId = m004;
attr = {
coordinates = (
200,
100
);
};
layerId = "4542052A-5F31-4362-B451-0B9720437F60";
name = "Jun 20, 26 at 14:28";
shapes = (
{
closed = 1;
nodes = (
(361,-10,o),
(444,29,o),
(485,89,c),
(487,89,l),
(487,0,l),
(528,0,l),
(528,770,l),
(486,770,l),
(486,431,l),
(484,431,l),
(444,491,o),
(361,530,o),
(272,530,cs),
(125,530,o),
(28,423,o),
(28,260,cs),
(28,97,o),
(125,-10,o),
(272,-10,cs)
);
},
{
closed = 1;
nodes = (
(152,28,o),
(70,118,o),
(70,260,cs),
(70,402,o),
(152,493,o),
(279,493,cs),
(383,493,o),
(463,436,o),
(486,347,c),
(486,173,l),
(463,84,o),
(383,28,o),
(279,28,cs)
);
}
);
width = 598;
},
{
layerId = m005;
shapes = (
{
closed = 1;
nodes = (
(338,-10,o),
(405,20,o),
(449,72,c),
(451,72,l),
(451,0,l),
(555,0,l),
(555,770,l),
(446,770,l),
(446,448,l),
(444,448,l),
(401,501,o),
(337,530,o),
(261,530,cs),
(117,530,o),
(25,425,o),
(25,260,cs),
(25,95,o),
(117,-10,o),
(261,-10,cs)
);
},
{
closed = 1;
nodes = (
(192,80,o),
(134,147,o),
(134,260,cs),
(134,373,o),
(192,440,o),
(290,440,cs),
(369,440,o),
(428,396,o),
(446,324,c),
(446,196,l),
(428,124,o),
(369,80,o),
(290,80,cs)
);
}
);
width = 618;
},
{
layerId = m006;
name = "Black F2";
shapes = (
{
closed = 1;
nodes = (
(309,-10,o),
(354,10,o),
(402,60,c),
(404,60,l),
(404,0,l),
(592,0,l),
(592,770,l),
(394,770,l),
(394,460,l),
(392,460,l),
(346,511,o),
(307,530,o),
(247,530,cs),
(107,530,o),
(22,428,o),
(22,260,cs),
(22,92,o),
(107,-10,o),
(247,-10,cs)
);
},
{
closed = 1;
nodes = (
(249,142,o),
(220,181,o),
(220,260,cs),
(220,339,o),
(249,378,o),
(307,378,cs),
(349,378,o),
(384,358,o),
(394,327,c),
(394,193,l),
(384,162,o),
(349,142,o),
(307,142,cs)
);
}
);
width = 646;
}
);
metricLeft = "=o";
metricRight = "=|h";
unicode = 100;
},
{
color = 4;
glyphname = e;
kernLeft = o;
kernRight = o;
lastChange = "2026-07-01 23:44:08 +0000";
layers = (
{
layerId = m01;
metricRight = "=|*.8";
shapes = (
{
closed = 1;
nodes = (
(400,-20,o),
(479,3,o),
(534,42,c),
(523,58,l),
(470,21,o),
(397,0,o),
(315,0,cs),
(143,0,o),
(49,92,o),
(49,260,c),
(49,260,l),
(49,428,o),
(136,520,o),
(294,520,cs),
(452,520,o),
(539,430,o),
(539,268,c),
(548,278,l),
(39,278,l),
(39,258,l),
(559,258,l),
(559,263,o),
(559,263,o),
(559,268,cs),
(559,441,o),
(463,540,o),
(294,540,cs),
(125,540,o),
(29,439,o),
(29,260,cs),
(29,81,o),
(132,-20,o),
(315,-20,cs)
);
}
);
width = 582;
},
{
layerId = m002;
shapes = (
{
closed = 1;
nodes = (
(412,-20,o),
(488,-2,o),
(546,31,c),
(526,119,l),
(476,91,o),
(399,74,o),
(330,74,cs),
(201,74,o),
(134,133,o),
(134,246,c),
(134,274,l),
(134,389,o),
(191,448,o),
(302,448,cs),
(412,448,o),
(469,390,o),
(469,278,c),
(484,309,l),
(90,309,l),
(90,215,l),
(573,215,l),
(574,241,o),
(575,256,o),
(575,269,cs),
(575,439,o),
(474,540,o),
(303,540,cs),
(129,540,o),
(25,435,o),
(25,260,cs),
(25,82,o),
(136,-20,o),
(330,-20,cs)
);
}
);
width = 600;
},
{
layerId = m003;
metricRight = "=|*1.2";
shapes = (
{
closed = 1;
nodes = (
(424,-20,o),
(500,-5,o),
(559,19,c),
(529,163,l),
(483,142,o),
(407,128,o),
(348,128,cs),
(257,128,o),
(214,161,o),
(214,230,cs),
(214,290,ls),
(214,363,o),
(244,396,o),
(310,396,cs),
(376,396,o),
(406,363,o),
(406,290,c),
(421,318,l),
(140,318,l),
(140,192,l),
(588,192,l),
(590,212,o),
(592,246,o),
(592,270,cs),
(592,439,o),
(487,540,o),
(312,540,cs),
(132,540,o),
(22,433,o),
(22,260,cs),
(22,82,o),
(139,-20,o),
(345,-20,cs)
);
}
);
width = 618;
},
{
layerId = m004;
metricRight = "=|*.8";
shapes = (
{
closed = 1;
nodes = (
(364,-20,o),
(434,1,o),
(486,42,c),
(474,58,l),
(426,20,o),
(360,0,o),
(288,0,cs),
(134,0,o),
(49,92,o),
(49,260,c),
(49,260,l),
(49,428,o),
(127,520,o),
(269,520,cs),
(411,520,o),
(489,430,o),
(489,268,c),
(497,278,l),
(39,278,l),
(39,258,l),
(509,258,l),
(509,263,o),
(509,263,o),
(509,268,cs),
(509,440,o),
(423,540,o),
(269,540,cs),
(115,540,o),
(29,438,o),
(29,260,cs),
(29,82,o),
(123,-20,o),
(288,-20,cs)
);
}
);
width = 532;
},
{
layerId = m005;
shapes = (
{
closed = 1;
nodes = (
(391,-20,o),
(462,-2,o),
(518,31,c),
(498,119,l),
(449,92,o),
(379,74,o),
(313,74,cs),
(194,74,o),
(134,132,o),
(134,246,c),
(134,274,l),
(134,389,o),
(186,448,o),
(287,448,cs),
(387,448,o),
(439,390,o),
(439,278,c),
(455,309,l),
(88,309,l),
(88,215,l),
(543,215,l),
(544,230,o),
(545,253,o),
(545,269,cs),
(545,441,o),
(451,540,o),
(288,540,cs),
(124,540,o),
(25,435,o),
(25,260,cs),
(25,81,o),
(129,-20,o),
(313,-20,cs)
);
}
);
width = 570;
},
{
layerId = m006;
metricRight = "=|*1.2";
shapes = (
{
closed = 1;
nodes = (
(417,-20,o),
(492,-5,o),
(550,19,c),
(520,163,l),
(475,143,o),
(399,128,o),
(341,128,cs),
(255,128,o),
(214,161,o),
(214,230,cs),
(214,290,ls),
(214,363,o),
(242,396,o),
(305,396,cs),
(368,396,o),
(396,363,o),
(396,290,c),
(414,318,l),
(138,318,l),
(138,192,l),
(578,192,l),
(580,206,o),
(582,246,o),
(582,270,cs),
(582,441,o),
(481,540,o),
(307,540,cs),
(130,540,o),
(22,433,o),
(22,260,cs),
(22,82,o),
(137,-20,o),
(339,-20,cs)
);
}
);
width = 608;
}
);
metricLeft = "=o";
metricRight = "=|";
unicode = 101;
},
{
color = 4;
glyphname = f;
kernLeft = f;
kernRight = f;
lastChange = "2026-07-01 23:44:10 +0000";
layers = (
{
layerId = m01;
shapes = (
{
closed = 1;
nodes = (
(214,0,l),
(214,500,l),
(469,500,l),
(469,520,l),
(214,520,l),
(214,640,ls),
(214,730,o),
(260,770,o),
(370,770,cs),
(403,770,o),
(425,767,o),
(459,756,c),
(459,777,l),
(427,786,o),
(403,790,o),
(370,790,cs),
(250,790,o),
(194,742,o),
(194,640,cs),
(194,520,l),
(29,520,l),
(29,500,l),
(194,500,l),
(194,0,l)
);
}
);
width = 498;
},
{
layerId = m002;
shapes = (
{
closed = 1;
nodes = (
(270,0,l),
(270,430,l),
(485,430,l),
(485,520,l),
(270,520,l),
(270,600,ls),
(270,674,o),
(302,702,o),
(386,702,cs),
(414,702,o),
(441,699,o),
(475,690,c),
(475,778,l),
(438,786,o),
(401,790,o),
(367,790,cs),
(231,790,o),
(161,727,o),
(161,605,cs),
(161,520,l),
(25,520,l),
(25,430,l),
(161,430,l),
(161,0,l)
);
}
);
width = 510;
},
{
layerId = m003;
shapes = (
{
closed = 1;
nodes = (
(327,0,l),
(327,360,l),
(502,360,l),
(502,520,l),
(327,520,l),
(327,560,ls),
(327,616,o),
(345,634,o),
(402,634,cs),
(429,634,o),
(461,630,o),
(492,624,c),
(492,778,l),
(449,786,o),
(399,790,o),
(365,790,cs),
(213,790,o),
(129,712,o),
(129,570,cs),
(129,520,l),
(22,520,l),
(22,360,l),
(129,360,l),
(129,0,l)
);
}
);
width = 524;
},
{
layerId = m004;
shapes = (
{
closed = 1;
nodes = (
(234,0,l),
(234,500,l),
(489,500,l),
(489,520,l),
(234,520,l),
(234,640,ls),
(234,730,o),
(277,770,o),
(377,770,cs),
(406,770,o),
(425,768,o),
(459,756,c),
(459,777,l),
(427,787,o),
(405,790,o),
(377,790,cs),
(266,790,o),
(214,742,o),
(214,640,cs),
(214,520,l),
(29,520,l),
(29,500,l),
(214,500,l),
(214,0,l)
);
}
);
width = 518;
},
{
layerId = m005;
shapes = (
{
closed = 1;
nodes = (
(290,0,l),
(290,430,l),
(505,430,l),
(505,520,l),
(290,520,l),
(290,600,ls),
(290,674,o),
(319,702,o),
(395,702,cs),
(420,702,o),
(444,699,o),
(475,690,c),
(475,778,l),
(440,786,o),
(406,790,o),
(374,790,cs),
(247,790,o),
(181,727,o),
(181,605,cs),
(181,520,l),
(25,520,l),
(25,430,l),
(181,430,l),
(181,0,l)
);
}
);
width = 530;
},
{
layerId = m006;
shapes = (
{
closed = 1;
nodes = (
(347,0,l),
(347,360,l),
(522,360,l),
(522,520,l),
(347,520,l),
(347,560,ls),
(347,616,o),
(363,634,o),
(413,634,cs),
(437,634,o),
(465,630,o),
(492,624,c),
(492,778,l),
(451,786,o),
(404,790,o),
(372,790,cs),
(228,790,o),
(149,712,o),
(149,570,cs),
(149,520,l),
(22,520,l),
(22,360,l),
(149,360,l),
(149,0,l)
);
}
);
width = 544;
}
);
metricLeft = "=h*.4";
metricRight = "=|";
unicode = 102;
},
{
color = 4;
glyphname = g;
kernLeft = o;
kernRight = u;
lastChange = "2026-07-01 23:44:12 +0000";
layers = (
{
layerId = m01;
shapes = (
{
closed = 1;
nodes = (
(148,10,o),
(49,109,o),
(49,260,cs),
(49,411,o),
(148,510,o),
(299,510,cs),
(450,510,o),
(549,411,o),
(549,260,c),
(549,260,l),
(549,109,o),
(450,10,o),
(299,10,cs)
);
},
{
closed = 1;
nodes = (
(473,-270,o),
(567,-173,o),
(567,20,cs),
(569,520,l),
(549,520,l),
(549,376,l),
(547,376,l),
(507,474,o),
(416,530,o),
(299,530,cs),
(137,530,o),
(29,422,o),
(29,260,cs),
(29,98,o),
(137,-10,o),
(299,-10,cs),
(416,-10,o),
(507,46,o),
(547,144,c),
(549,144,l),
(547,20,ls),
(547,-162,o),
(462,-250,o),
(284,-250,cs),
(200,-250,o),
(134,-230,o),
(82,-187,c),
(69,-202,l),
(126,-249,o),
(196,-270,o),
(284,-270,cs)
);
}
);
width = 627;
},
{
associatedMasterId = m01;
attr = {
coordinates = (
200,
200
);
};
layerId = "46F1A50B-7C0C-4B23-8733-B6799256F0FB";
name = "Jun 20, 26 at 14:30";
shapes = (
{
closed = 1;
nodes = (
(162,26,o),
(70,119,o),
(70,260,cs),
(70,401,o),
(162,493,o),
(302,493,cs),
(441,493,o),
(533,401,o),
(533,260,c),
(533,260,l),
(533,119,o),
(441,26,o),
(302,26,cs)
);
},
{
closed = 1;
nodes = (
(478,-270,o),
(575,-171,o),
(575,25,cs),
(575,520,l),
(534,520,l),
(534,404,l),
(532,404,l),
(494,482,o),
(403,530,o),
(295,530,cs),
(135,530,o),
(28,422,o),
(28,260,cs),
(28,98,o),
(135,-10,o),
(295,-10,cs),
(403,-10,o),
(493,38,o),
(531,116,c),
(533,116,l),
(533,25,ls),
(533,-149,o),
(452,-231,o),
(282,-231,cs),
(201,-231,o),
(138,-213,o),
(85,-172,c),
(70,-205,l),
(127,-250,o),
(196,-270,o),
(284,-270,cs)
);
}
);
width = 631;
},
{
layerId = m002;
shapes = (
{
closed = 1;
nodes = (
(205,80,o),
(134,152,o),
(134,260,cs),
(134,368,o),
(205,440,o),
(310,440,cs),
(415,440,o),
(486,368,o),
(486,260,c),
(486,260,l),
(486,152,o),
(415,80,o),
(310,80,cs)
);
},
{
closed = 1;
nodes = (
(489,-270,o),
(595,-166,o),
(595,40,cs),
(595,520,l),
(491,520,l),
(491,448,l),
(489,448,l),
(450,498,o),
(370,530,o),
(285,530,cs),
(129,530,o),
(25,422,o),
(25,260,cs),
(25,98,o),
(129,-10,o),
(285,-10,cs),
(370,-10,o),
(447,22,o),
(484,72,c),
(486,72,l),
(486,39,ls),
(486,-109,o),
(419,-176,o),
(272,-176,cs),
(200,-176,o),
(143,-160,o),
(91,-126,c),
(69,-216,l),
(122,-252,o),
(191,-270,o),
(279,-270,cs)
);
}
);
width = 645;
},
{
layerId = m003;
shapes = (
{
closed = 1;
nodes = (
(262,157,o),
(220,200,o),
(220,260,cs),
(220,320,o),
(262,363,o),
(322,363,cs),
(382,363,o),
(424,320,o),
(424,260,c),
(424,260,l),
(424,200,o),
(382,157,o),
(322,157,cs)
);
},
{
closed = 1;
nodes = (
(504,-270,o),
(622,-159,o),
(622,60,cs),
(622,520,l),
(434,520,l),
(434,460,l),
(432,460,l),
(390,503,o),
(321,530,o),
(252,530,cs),
(114,530,o),
(22,422,o),
(22,260,cs),
(22,98,o),
(114,-10,o),
(252,-10,cs),
(319,-10,o),
(380,15,o),
(422,60,c),
(424,60,l),
(424,58,l),
(424,-64,o),
(376,-114,o),
(259,-114,cs),
(202,-114,o),
(150,-102,o),
(101,-78,c),
(67,-226,l),
(119,-255,o),
(188,-270,o),
(273,-270,cs)
);
}
);
width = 665;
},
{
layerId = m004;
name = "Thin F2";
shapes = (
{
closed = 1;
nodes = (
(138,10,o),
(49,108,o),
(49,260,cs),
(49,412,o),
(138,510,o),
(275,510,cs),
(388,510,o),
(474,451,o),
(499,355,c),
(499,165,l),
(474,69,o),
(388,10,o),
(275,10,cs)
);
},
{
closed = 1;
nodes = (
(434,-270,o),
(519,-173,o),
(519,20,cs),
(519,520,l),
(499,520,l),
(499,412,l),
(497,412,l),
(456,485,o),
(370,530,o),
(275,530,cs),
(127,530,o),
(29,422,o),
(29,260,cs),
(29,98,o),
(127,-10,o),
(275,-10,cs),
(371,-10,o),
(456,35,o),
(497,108,c),
(499,108,l),
(499,20,ls),
(499,-163,o),
(422,-250,o),
(264,-250,cs),
(187,-250,o),
(132,-230,o),
(84,-187,c),
(71,-202,l),
(122,-248,o),
(183,-270,o),
(264,-270,cs)
);
}
);
width = 577;
},
{
associatedMasterId = m004;
attr = {
coordinates = (
200,
100
);
};
layerId = "4542052A-5F31-4362-B451-0B9720437F60";
name = "Jun 20, 26 at 14:28";
shapes = (
{
closed = 1;
nodes = (
(152,27,o),
(70,118,o),
(70,260,cs),
(70,402,o),
(152,492,o),
(279,492,cs),
(383,492,o),
(463,436,o),
(486,347,c),
(486,173,l),
(463,84,o),
(383,27,o),
(279,27,cs)
);
},
{
closed = 1;
nodes = (
(440,-270,o),
(528,-171,o),
(528,25,cs),
(528,520,l),
(487,520,l),
(487,431,l),
(485,431,l),
(444,491,o),
(361,530,o),
(272,530,cs),
(125,530,o),
(28,423,o),
(28,260,cs),
(28,97,o),
(125,-10,o),
(272,-10,cs),
(361,-10,o),
(444,29,o),
(484,89,c),
(486,89,l),
(486,25,ls),
(486,-149,o),
(413,-231,o),
(262,-231,cs),
(188,-231,o),
(134,-213,o),
(86,-172,c),
(71,-205,l),
(121,-249,o),
(183,-270,o),
(264,-270,cs)
);
}
);
width = 584;
},
{
layerId = m005;
shapes = (
{
closed = 1;
nodes = (
(192,80,o),
(134,147,o),
(134,260,cs),
(134,373,o),
(192,440,o),
(290,440,cs),
(369,440,o),
(428,396,o),
(446,324,c),
(446,196,l),
(428,124,o),
(369,80,o),
(290,80,cs)
);
},
{
closed = 1;
nodes = (
(457,-270,o),
(555,-166,o),
(555,40,cs),
(555,520,l),
(450,520,l),
(450,448,l),
(448,448,l),
(405,500,o),
(338,530,o),
(260,530,cs),
(117,530,o),
(25,425,o),
(25,260,cs),
(25,95,o),
(117,-10,o),
(260,-10,cs),
(337,-10,o),
(401,19,o),
(443,72,c),
(445,72,l),
(445,39,ls),
(445,-109,o),
(385,-176,o),
(254,-176,cs),
(190,-176,o),
(138,-160,o),
(91,-126,c),
(69,-216,l),
(118,-252,o),
(182,-270,o),
(263,-270,cs)
);
}
);
width = 605;
},
{
layerId = m006;
name = "Black F2";
shapes = (
{
closed = 1;
nodes = (
(249,142,o),
(220,181,o),
(220,260,cs),
(220,339,o),
(249,378,o),
(307,378,cs),
(349,378,o),
(384,358,o),
(394,327,c),
(394,193,l),
(384,162,o),
(349,142,o),
(307,142,cs)
);
},
{
closed = 1;
nodes = (
(481,-270,o),
(592,-159,o),
(592,60,cs),
(592,520,l),
(404,520,l),
(404,460,l),
(402,460,l),
(354,510,o),
(309,530,o),
(247,530,cs),
(107,530,o),
(22,428,o),
(22,260,cs),
(22,92,o),
(107,-10,o),
(247,-10,cs),
(307,-10,o),
(346,9,o),
(392,60,c),
(394,60,l),
(394,58,ls),
(394,-64,o),
(350,-114,o),
(244,-114,cs),
(192,-114,o),
(145,-102,o),
(101,-78,c),
(67,-226,l),
(116,-255,o),
(182,-270,o),
(262,-270,cs)
);
}
);
width = 635;
}
);
metricLeft = "=o";
metricRight = "=h";
unicode = 103;
},
{
color = 4;
glyphname = h;
kernLeft = H;
kernRight = h;
lastChange = "2026-07-01 23:41:40 +0000";
layers = (
{
layerId = m01;
shapes = (
{
closed = 1;
nodes = (
(92,0,l),
(92,306,ls),
(92,432,o),
(174,510,o),
(307,510,cs),
(434,510,o),
(502,439,o),
(502,306,cs),
(502,0,l),
(522,0,l),
(522,306,ls),
(522,450,o),
(445,530,o),
(307,530,cs),
(207,530,o),
(131,488,o),
(94,412,c),
(92,412,l),
(92,770,l),
(72,770,l),
(72,0,l)
);
}
);
width = 580;
},
{
layerId = m002;
shapes = (
{
closed = 1;
nodes = (
(172,0,l),
(172,256,ls),
(172,367,o),
(233,434,o),
(333,434,cs),
(419,434,o),
(464,383,o),
(464,286,cs),
(464,0,l),
(573,0,l),
(573,313,ls),
(573,447,o),
(491,530,o),
(359,530,cs),
(280,530,o),
(212,500,o),
(174,448,c),
(172,448,l),
(172,770,l),
(63,770,l),
(63,0,l)
);
}
);
width = 623;
},
{
layerId = m003;
shapes = (
{
closed = 1;
nodes = (
(252,0,l),
(252,265,ls),
(252,325,o),
(282,358,o),
(339,358,cs),
(396,358,o),
(426,325,o),
(426,265,cs),
(426,0,l),
(624,0,l),
(624,320,ls),
(624,444,o),
(537,530,o),
(411,530,cs),
(347,530,o),
(295,507,o),
(254,460,c),
(252,460,l),
(252,770,l),
(54,770,l),
(54,0,l)
);
}
);
width = 667;
},
{
layerId = m004;
name = "Thin F2";
shapes = (
{
closed = 1;
nodes = (
(92,0,l),
(92,355,l),
(120,451,o),
(203,510,o),
(308,510,cs),
(415,510,o),
(462,449,o),
(462,300,cs),
(462,0,l),
(482,0,l),
(482,300,ls),
(482,458,o),
(428,530,o),
(308,530,cs),
(214,530,o),
(134,486,o),
(94,412,c),
(92,412,l),
(92,770,l),
(72,770,l),
(72,0,l)
);
}
);
width = 540;
},
{
layerId = m005;
shapes = (
{
closed = 1;
nodes = (
(172,0,l),
(172,334,l),
(197,396,o),
(256,434,o),
(328,434,cs),
(397,434,o),
(424,394,o),
(424,290,cs),
(424,0,l),
(533,0,l),
(533,300,ls),
(533,457,o),
(480,530,o),
(366,530,cs),
(292,530,o),
(218,499,o),
(174,448,c),
(172,448,l),
(172,770,l),
(63,770,l),
(63,0,l)
);
}
);
width = 583;
},
{
layerId = m006;
name = "Black F2";
shapes = (
{
closed = 1;
nodes = (
(252,0,l),
(252,315,l),
(261,346,o),
(291,366,o),
(327,366,cs),
(367,366,o),
(386,341,o),
(386,288,cs),
(386,0,l),
(584,0,l),
(584,300,ls),
(584,454,o),
(531,530,o),
(423,530,cs),
(361,530,o),
(302,505,o),
(254,460,c),
(252,460,l),
(252,770,l),
(54,770,l),
(54,0,l)
);
}
);
width = 627;
},
{
associatedMasterId = m004;
attr = {
coordinates = (
200,
100
);
};
layerId = "DBFFBCB2-45B6-47F5-99BE-56E40808C34B";
name = "Jun 21, 26 at 16:31";
shapes = (
{
closed = 1;
nodes = (
(113,0,l),
(113,347,l),
(140,435,o),
(216,491,o),
(313,491,cs),
(410,491,o),
(452,435,o),
(452,298,cs),
(452,0,l),
(495,0,l),
(495,300,ls),
(495,458,o),
(441,530,o),
(322,530,cs),
(237,530,o),
(154,493,o),
(113,431,c),
(111,431,l),
(111,770,l),
(70,770,l),
(70,0,l)
);
}
);
width = 551;
},
{
associatedMasterId = m01;
attr = {
coordinates = (
200,
200
);
};
layerId = "466FB072-3C8F-46C9-ADE0-E318C4508BE2";
name = "Jun 21, 26 at 20:33";
shapes = (
{
closed = 1;
nodes = (
(113,0,l),
(113,294,ls),
(113,416,o),
(190,491,o),
(313,491,cs),
(430,491,o),
(492,425,o),
(492,301,cs),
(492,0,l),
(535,0,l),
(535,308,ls),
(535,449,o),
(456,530,o),
(320,530,cs),
(228,530,o),
(149,493,o),
(113,431,c),
(112,431,l),
(111,770,l),
(70,770,l),
(70,0,l)
);
}
);
width = 591;
}
);
metricLeft = "=H*.9";
metricRight = "=|*.8";
unicode = 104;
},
{
color = 4;
glyphname = i;
kernLeft = I;
kernRight = I;
lastChange = "2026-07-01 23:41:58 +0000";
layers = (
{
layerId = m01;
shapes = (
{
closed = 1;
nodes = (
(90,0,l),
(90,520,l),
(70,520,l),
(70,0,l)
);
},
{
closed = 1;
nodes = (
(97,682,o),
(110,694,o),
(110,711,cs),
(110,728,o),
(97,740,o),
(80,740,cs),
(63,740,o),
(50,728,o),
(50,711,cs),
(50,694,o),
(63,682,o),
(80,682,cs)
);
}
);
width = 160;
},
{
layerId = m002;
shapes = (
{
closed = 1;
nodes = (
(174,0,l),
(174,520,l),
(64,520,l),
(64,0,l)
);
},
{
closed = 1;
nodes = (
(163,636,o),
(194,666,o),
(194,708,cs),
(194,750,o),
(163,780,o),
(119,780,cs),
(75,780,o),
(44,750,o),
(44,708,cs),
(44,666,o),
(75,636,o),
(119,636,cs)
);
}
);
width = 238;
},
{
layerId = m003;
shapes = (
{
closed = 1;
nodes = (
(258,0,l),
(258,520,l),
(58,520,l),
(58,0,l)
);
},
{
closed = 1;
nodes = (
(228,590,o),
(278,638,o),
(278,705,cs),
(278,772,o),
(228,820,o),
(158,820,cs),
(88,820,o),
(38,772,o),
(38,705,cs),
(38,638,o),
(88,590,o),
(158,590,cs)
);
}
);
width = 316;
},
{
layerId = m004;
shapes = (
{
closed = 1;
nodes = (
(90,0,l),
(90,520,l),
(70,520,l),
(70,0,l)
);
},
{
closed = 1;
nodes = (
(97,682,o),
(110,694,o),
(110,711,cs),
(110,728,o),
(97,740,o),
(80,740,cs),
(63,740,o),
(50,728,o),
(50,711,cs),
(50,694,o),
(63,682,o),
(80,682,cs)
);
}
);
width = 160;
},
{
layerId = m005;
shapes = (
{
closed = 1;
nodes = (
(174,0,l),
(174,520,l),
(64,520,l),
(64,0,l)
);
},
{
closed = 1;
nodes = (
(163,636,o),
(194,666,o),
(194,708,cs),
(194,750,o),
(163,780,o),
(119,780,cs),
(75,780,o),
(44,750,o),
(44,708,cs),
(44,666,o),
(75,636,o),
(119,636,cs)
);
}
);
width = 238;
},
{
layerId = m006;
shapes = (
{
closed = 1;
nodes = (
(258,0,l),
(258,520,l),
(58,520,l),
(58,0,l)
);
},
{
closed = 1;
nodes = (
(228,590,o),
(278,638,o),
(278,705,cs),
(278,772,o),
(228,820,o),
(158,820,cs),
(88,820,o),
(38,772,o),
(38,705,cs),
(38,638,o),
(88,590,o),
(158,590,cs)
);
}
);
width = 316;
}
);
metricLeft = "=h*.7";
metricRight = "=|";
unicode = 105;
},
{
color = 4;
glyphname = j;
kernLeft = I;
kernRight = I;
lastChange = "2026-07-02 11:53:18 +0000";
layers = (
{
layerId = m01;
metricLeft = "=i-130";
shapes = (
{
closed = 1;
nodes = (
(117,682,o),
(130,694,o),
(130,711,cs),
(130,728,o),
(117,740,o),
(100,740,cs),
(83,740,o),
(70,728,o),
(70,711,cs),
(70,694,o),
(83,682,o),
(100,682,cs)
);
},
{
closed = 1;
nodes = (
(63,-151,o),
(110,-64,o),
(110,104,cs),
(110,520,l),
(90,520,l),
(90,104,ls),
(90,-57,o),
(46,-138,o),
(-80,-213,c),
(-70,-230,l)
);
}
);
width = 180;
},
{
layerId = m002;
metricLeft = "=i-120";
shapes = (
{
closed = 1;
nodes = (
(186,636,o),
(217,666,o),
(217,708,cs),
(217,750,o),
(186,780,o),
(142,780,cs),
(98,780,o),
(67,750,o),
(67,708,cs),
(67,666,o),
(98,636,o),
(142,636,cs)
);
},
{
closed = 1;
nodes = (
(147,-122,o),
(197,-20,o),
(197,174,cs),
(197,520,l),
(87,520,l),
(87,174,ls),
(87,18,o),
(49,-57,o),
(-76,-146,c),
(-2,-230,l)
);
}
);
width = 261;
},
{
layerId = m003;
metricLeft = "=i-110";
shapes = (
{
closed = 1;
nodes = (
(253,590,o),
(303,638,o),
(303,705,cs),
(303,772,o),
(253,820,o),
(183,820,cs),
(113,820,o),
(63,772,o),
(63,705,cs),
(63,638,o),
(113,590,o),
(183,590,cs)
);
},
{
closed = 1;
nodes = (
(229,-94,o),
(283,24,o),
(283,244,cs),
(283,520,l),
(83,520,l),
(83,244,ls),
(83,89,o),
(51,22,o),
(-72,-80,c),
(66,-230,l)
);
}
);
width = 341;
},
{
layerId = m004;
metricLeft = "=i-160";
shapes = (
{
closed = 1;
nodes = (
(115,682,o),
(128,694,o),
(128,711,cs),
(128,728,o),
(115,740,o),
(98,740,cs),
(81,740,o),
(68,728,o),
(68,711,cs),
(68,694,o),
(81,682,o),
(98,682,cs)
);
},
{
closed = 1;
nodes = (
(53,-162,o),
(108,-74,o),
(108,104,cs),
(108,520,l),
(88,520,l),
(88,104,ls),
(88,-66,o),
(38,-147,o),
(-110,-212,c),
(-102,-230,l)
);
}
);
width = 178;
},
{
layerId = m005;
metricLeft = "=i-150";
shapes = (
{
closed = 1;
nodes = (
(185,636,o),
(216,666,o),
(216,708,cs),
(216,750,o),
(185,780,o),
(141,780,cs),
(97,780,o),
(66,750,o),
(66,708,cs),
(66,666,o),
(97,636,o),
(141,636,cs)
);
},
{
closed = 1;
nodes = (
(136,-128,o),
(196,-25,o),
(196,174,cs),
(196,520,l),
(86,520,l),
(86,174,ls),
(86,12,o),
(42,-61,o),
(-106,-143,c),
(-40,-230,l)
);
}
);
width = 260;
},
{
layerId = m006;
metricLeft = "=i-140";
shapes = (
{
closed = 1;
nodes = (
(253,590,o),
(303,638,o),
(303,705,cs),
(303,772,o),
(253,820,o),
(183,820,cs),
(113,820,o),
(63,772,o),
(63,705,cs),
(63,638,o),
(113,590,o),
(183,590,cs)
);
},
{
closed = 1;
nodes = (
(220,-94,o),
(283,23,o),
(283,244,cs),
(283,520,l),
(83,520,l),
(83,244,ls),
(83,89,o),
(45,23,o),
(-102,-78,c),
(28,-230,l)
);
}
);
width = 341;
}
);
metricLeft = "=H*.7";
metricRight = "=i";
unicode = 106;
},
{
color = 4;
glyphname = k;
kernLeft = H;
kernRight = x;
lastChange = "2026-07-02 07:22:15 +0000";
layers = (
{
layerId = m01;
shapes = (
{
closed = 1;
nodes = (
(92,0,l),
(92,770,l),
(72,770,l),
(72,0,l)
);
},
{
closed = 1;
nodes = (
(108,265,l),
(108,265,l),
(108,265,l),
(474,520,l),
(440,520,l),
(86,273,l)
);
},
{
closed = 1;
nodes = (
(492,0,l),
(108,279,l),
(86,270,l),
(458,0,l)
);
}
);
width = 506;
},
{
layerId = m002;
shapes = (
{
closed = 1;
nodes = (
(172,0,l),
(172,770,l),
(63,770,l),
(63,0,l)
);
},
{
closed = 1;
nodes = (
(246,232,l),
(246,232,l),
(246,232,l),
(552,520,l),
(424,520,l),
(148,263,l)
);
},
{
closed = 1;
nodes = (
(563,0,l),
(258,294,l),
(160,262,l),
(436,0,l)
);
}
);
width = 576;
},
{
layerId = m003;
shapes = (
{
closed = 1;
nodes = (
(252,0,l),
(252,770,l),
(54,770,l),
(54,0,l)
);
},
{
closed = 1;
nodes = (
(383,199,l),
(383,199,l),
(383,199,l),
(629,520,l),
(407,520,l),
(209,253,l)
);
},
{
closed = 1;
nodes = (
(634,0,l),
(408,308,l),
(234,254,l),
(414,0,l)
);
}
);
width = 645;
},
{
layerId = m005;
shapes = (
{
closed = 1;
nodes = (
(172,0,l),
(172,770,l),
(63,770,l),
(63,0,l)
);
},
{
closed = 1;
nodes = (
(244,232,l),
(244,232,l),
(244,232,l),
(542,520,l),
(414,520,l),
(148,263,l)
);
},
{
closed = 1;
nodes = (
(553,0,l),
(256,294,l),
(160,262,l),
(426,0,l)
);
}
);
width = 566;
},
{
layerId = m006;
shapes = (
{
closed = 1;
nodes = (
(252,0,l),
(252,770,l),
(54,770,l),
(54,0,l)
);
},
{
closed = 1;
nodes = (
(379,199,l),
(379,199,l),
(379,199,l),
(609,520,l),
(387,520,l),
(209,253,l)
);
},
{
closed = 1;
nodes = (
(614,0,l),
(404,308,l),
(234,254,l),
(394,0,l)
);
}
);
width = 625;
},
{
layerId = m004;
name = "Thin F2";
shapes = (
{
closed = 1;
nodes = (
(92,0,l),
(92,770,l),
(72,770,l),
(72,0,l)
);
},
{
closed = 1;
nodes = (
(108,265,l),
(108,265,l),
(108,265,l),
(474,520,l),
(440,520,l),
(86,273,l)
);
},
{
closed = 1;
nodes = (
(492,0,l),
(108,279,l),
(86,270,l),
(458,0,l)
);
}
);
width = 506;
}
);
metricLeft = "=h";
metricRight = "=|*.2";
unicode = 107;
},
{
color = 4;
glyphname = l;
kernLeft = I;
kernRight = I;
lastChange = "2026-07-01 23:42:14 +0000";
layers = (
{
layerId = m01;
shapes = (
{
closed = 1;
nodes = (
(92,0,l),
(92,770,l),
(72,770,l),
(72,0,l)
);
}
);
width = 164;
},
{
layerId = m002;
shapes = (
{
closed = 1;
nodes = (
(173,0,l),
(173,770,l),
(63,770,l),
(63,0,l)
);
}
);
width = 236;
},
{
layerId = m003;
shapes = (
{
closed = 1;
nodes = (
(254,0,l),
(254,770,l),
(54,770,l),
(54,0,l)
);
}
);
width = 308;
},
{
layerId = m004;
shapes = (
{
closed = 1;
nodes = (
(92,0,l),
(92,770,l),
(72,770,l),
(72,0,l)
);
}
);
width = 164;
},
{
layerId = m005;
shapes = (
{
closed = 1;
nodes = (
(173,0,l),
(173,770,l),
(63,770,l),
(63,0,l)
);
}
);
width = 236;
},
{
layerId = m006;
shapes = (
{
closed = 1;
nodes = (
(254,0,l),
(254,770,l),
(54,770,l),
(54,0,l)
);
}
);
width = 308;
}
);
metricLeft = "=h";
metricRight = "=|";
unicode = 108;
},
{
color = 4;
glyphname = m;
kernLeft = m;
kernRight = h;
lastChange = "2026-07-01 23:42:20 +0000";
layers = (
{
layerId = m002;
shapes = (
{
closed = 1;
nodes = (
(171,0,l),
(171,256,ls),
(171,370,o),
(221,434,o),
(310,434,cs),
(394,434,o),
(439,382,o),
(439,286,cs),
(439,0,l),
(547,0,l),
(547,256,ls),
(547,370,o),
(597,434,o),
(686,434,cs),
(770,434,o),
(815,382,o),
(815,286,cs),
(815,0,l),
(923,0,l),
(923,313,ls),
(923,450,o),
(849,530,o),
(722,530,cs),
(635,530,o),
(555,492,o),
(515,432,c),
(513,432,l),
(482,497,o),
(425,530,o),
(345,530,cs),
(268,530,o),
(201,499,o),
(168,448,c),
(166,448,l),
(166,520,l),
(63,520,l),
(63,0,l)
);
}
);
width = 973;
},
{
layerId = m003;
shapes = (
{
closed = 1;
nodes = (
(251,0,l),
(251,265,ls),
(251,326,o),
(278,358,o),
(329,358,cs),
(380,358,o),
(407,326,o),
(407,265,cs),
(407,0,l),
(601,0,l),
(601,265,ls),
(601,326,o),
(628,358,o),
(679,358,cs),
(730,358,o),
(757,326,o),
(757,265,cs),
(757,0,l),
(954,0,l),
(954,320,ls),
(954,450,o),
(877,530,o),
(752,530,cs),
(678,530,o),
(598,502,o),
(553,460,c),
(551,460,l),
(515,505,o),
(461,530,o),
(398,530,cs),
(336,530,o),
(282,506,o),
(243,460,c),
(241,460,l),
(241,520,l),
(54,520,l),
(54,0,l)
);
}
);
width = 997;
},
{
layerId = m004;
name = "Thin F2";
shapes = (
{
closed = 1;
nodes = (
(92,0,l),
(92,355,l),
(119,451,o),
(197,510,o),
(296,510,cs),
(399,510,o),
(442,448,o),
(442,300,cs),
(442,0,l),
(462,0,l),
(462,355,l),
(488,451,o),
(566,510,o),
(666,510,cs),
(769,510,o),
(812,448,o),
(812,300,cs),
(812,0,l),
(832,0,l),
(832,300,ls),
(832,457,o),
(782,530,o),
(666,530,cs),
(570,530,o),
(492,478,o),
(456,394,c),
(454,394,l),
(436,486,o),
(386,530,o),
(296,530,cs),
(207,530,o),
(133,485,o),
(94,412,c),
(92,412,l),
(92,520,l),
(72,520,l),
(72,0,l)
);
}
);
width = 890;
},
{
layerId = m005;
shapes = (
{
closed = 1;
nodes = (
(172,0,l),
(172,334,l),
(190,393,o),
(255,438,o),
(322,438,cs),
(387,438,o),
(414,396,o),
(414,294,cs),
(414,0,l),
(522,0,l),
(522,334,l),
(540,393,o),
(605,438,o),
(672,438,cs),
(737,438,o),
(764,396,o),
(764,294,cs),
(764,0,l),
(873,0,l),
(873,300,ls),
(873,464,o),
(826,530,o),
(710,530,cs),
(627,530,o),
(549,496,o),
(499,440,c),
(497,440,l),
(473,504,o),
(433,530,o),
(360,530,cs),
(284,530,o),
(216,501,o),
(169,448,c),
(167,448,l),
(167,520,l),
(63,520,l),
(63,0,l)
);
}
);
width = 923;
},
{
layerId = m006;
name = "Black F2";
shapes = (
{
closed = 1;
nodes = (
(252,0,l),
(252,315,l),
(261,346,o),
(291,366,o),
(327,366,cs),
(367,366,o),
(386,341,o),
(386,288,cs),
(386,0,l),
(582,0,l),
(582,315,l),
(591,346,o),
(621,366,o),
(657,366,cs),
(697,366,o),
(716,341,o),
(716,288,cs),
(716,0,l),
(914,0,l),
(914,300,ls),
(914,458,o),
(863,530,o),
(753,530,cs),
(685,530,o),
(606,503,o),
(552,460,c),
(550,460,l),
(524,507,o),
(482,530,o),
(423,530,cs),
(361,530,o),
(295,505,o),
(244,460,c),
(242,460,l),
(242,520,l),
(54,520,l),
(54,0,l)
);
}
);
width = 957;
},
{
layerId = m01;
name = "Thin F1";
shapes = (
{
closed = 1;
nodes = (
(92,0,l),
(92,306,ls),
(92,436,o),
(166,510,o),
(292,510,cs),
(411,510,o),
(472,441,o),
(472,306,cs),
(472,0,l),
(492,0,l),
(492,306,ls),
(492,432,o),
(569,510,o),
(692,510,cs),
(809,510,o),
(872,439,o),
(872,306,cs),
(872,0,l),
(892,0,l),
(892,306,ls),
(892,449,o),
(821,530,o),
(692,530,cs),
(587,530,o),
(512,477,o),
(484,388,c),
(482,388,l),
(460,481,o),
(395,530,o),
(292,530,cs),
(194,530,o),
(122,487,o),
(94,412,c),
(92,412,l),
(92,520,l),
(72,520,l),
(72,0,l)
);
}
);
width = 950;
},
{
associatedMasterId = m01;
attr = {
coordinates = (
200,
200
);
};
background = {
shapes = (
{
closed = 0;
nodes = (
(484,384,l),
(482,384,l)
);
}
);
};
layerId = "99584B94-22D3-449D-AA18-0BDC02D7093F";
name = "Jun 29, 26 at 16:22";
shapes = (
{
closed = 1;
nodes = (
(112,0,l),
(112,294,ls),
(112,420,o),
(180,491,o),
(296,491,cs),
(407,491,o),
(464,426,o),
(464,301,cs),
(464,0,l),
(506,0,l),
(506,294,ls),
(506,417,o),
(576,491,o),
(690,491,cs),
(799,491,o),
(858,425,o),
(858,301,cs),
(858,0,l),
(900,0,l),
(900,308,ls),
(900,449,o),
(828,530,o),
(699,530,cs),
(603,530,o),
(524,485,o),
(488,411,c),
(486,411,l),
(459,490,o),
(397,530,o),
(305,530,cs),
(215,530,o),
(141,492,o),
(112,431,c),
(110,431,l),
(110,520,l),
(70,520,l),
(70,0,l)
);
}
);
width = 956;
}
);
metricLeft = "=h";
metricRight = "=|*.8";
unicode = 109;
},
{
color = 4;
glyphname = n;
kernLeft = m;
kernRight = h;
lastChange = "2026-07-01 23:42:26 +0000";
layers = (
{
layerId = m01;
shapes = (
{
closed = 1;
nodes = (
(92,0,l),
(92,306,ls),
(92,432,o),
(174,510,o),
(307,510,cs),
(434,510,o),
(502,439,o),
(502,306,cs),
(502,0,l),
(522,0,l),
(522,306,ls),
(522,450,o),
(445,530,o),
(307,530,cs),
(207,530,o),
(131,488,o),
(94,412,c),
(92,412,l),
(92,520,l),
(72,520,l),
(72,0,l)
);
}
);
width = 580;
},
{
layerId = m002;
shapes = (
{
closed = 1;
nodes = (
(172,0,l),
(172,256,ls),
(172,367,o),
(233,434,o),
(333,434,cs),
(419,434,o),
(464,383,o),
(464,286,cs),
(464,0,l),
(573,0,l),
(573,313,ls),
(573,447,o),
(491,530,o),
(359,530,cs),
(278,530,o),
(207,499,o),
(169,448,c),
(167,448,l),
(167,520,l),
(63,520,l),
(63,0,l)
);
}
);
width = 623;
},
{
layerId = m003;
shapes = (
{
closed = 1;
nodes = (
(252,0,l),
(252,265,ls),
(252,325,o),
(282,358,o),
(339,358,cs),
(396,358,o),
(426,325,o),
(426,265,cs),
(426,0,l),
(624,0,l),
(624,320,ls),
(624,444,o),
(537,530,o),
(411,530,cs),
(344,530,o),
(286,506,o),
(244,460,c),
(242,460,l),
(242,520,l),
(54,520,l),
(54,0,l)
);
}
);
width = 667;
},
{
layerId = m004;
name = "Thin F2";
shapes = (
{
closed = 1;
nodes = (
(92,0,l),
(92,355,l),
(120,451,o),
(203,510,o),
(308,510,cs),
(415,510,o),
(462,449,o),
(462,300,cs),
(462,0,l),
(482,0,l),
(482,300,ls),
(482,458,o),
(428,530,o),
(308,530,cs),
(214,530,o),
(134,486,o),
(94,412,c),
(92,412,l),
(92,520,l),
(72,520,l),
(72,0,l)
);
}
);
width = 540;
},
{
layerId = m005;
shapes = (
{
closed = 1;
nodes = (
(172,0,l),
(172,334,l),
(197,396,o),
(256,434,o),
(328,434,cs),
(397,434,o),
(424,394,o),
(424,290,cs),
(424,0,l),
(533,0,l),
(533,300,ls),
(533,457,o),
(480,530,o),
(366,530,cs),
(291,530,o),
(213,498,o),
(169,448,c),
(167,448,l),
(167,520,l),
(63,520,l),
(63,0,l)
);
}
);
width = 583;
},
{
layerId = m006;
name = "Black F2";
shapes = (
{
closed = 1;
nodes = (
(252,0,l),
(252,315,l),
(261,346,o),
(291,366,o),
(327,366,cs),
(367,366,o),
(386,341,o),
(386,288,cs),
(386,0,l),
(584,0,l),
(584,300,ls),
(584,454,o),
(531,530,o),
(423,530,cs),
(361,530,o),
(295,505,o),
(244,460,c),
(242,460,l),
(242,520,l),
(54,520,l),
(54,0,l)
);
}
);
width = 627;
},
{
associatedMasterId = m004;
attr = {
coordinates = (
200,
100
);
};
layerId = "DBFFBCB2-45B6-47F5-99BE-56E40808C34B";
name = "Jun 21, 26 at 16:31";
shapes = (
{
closed = 1;
nodes = (
(113,0,l),
(113,347,l),
(140,435,o),
(216,491,o),
(313,491,cs),
(410,491,o),
(452,435,o),
(452,298,cs),
(452,0,l),
(495,0,l),
(495,300,ls),
(495,458,o),
(441,530,o),
(322,530,cs),
(237,530,o),
(154,493,o),
(113,431,c),
(111,431,l),
(111,520,l),
(70,520,l),
(70,0,l)
);
}
);
width = 551;
},
{
associatedMasterId = m01;
attr = {
coordinates = (
200,
200
);
};
layerId = "81FA8989-86D4-442E-9BF5-DE0B1DCBA8C0";
name = "Jun 21, 26 at 20:34";
shapes = (
{
closed = 1;
nodes = (
(113,0,l),
(113,294,ls),
(113,416,o),
(190,491,o),
(313,491,cs),
(430,491,o),
(492,425,o),
(492,301,cs),
(492,0,l),
(535,0,l),
(535,308,ls),
(535,449,o),
(456,530,o),
(320,530,cs),
(228,530,o),
(149,493,o),
(113,431,c),
(112,431,l),
(111,520,l),
(70,520,l),
(70,0,l)
);
}
);
width = 591;
}
);
metricLeft = "=h";
metricRight = "=|*.8";
unicode = 110;
},
{
color = 4;
glyphname = o;
kernLeft = o;
kernRight = o;
lastChange = "2026-07-01 23:42:35 +0000";
layers = (
{
layerId = m01;
shapes = (
{
closed = 1;
nodes = (
(485,-20,o),
(599,92,o),
(599,260,cs),
(599,428,o),
(485,540,o),
(314,540,cs),
(143,540,o),
(29,428,o),
(29,260,cs),
(29,92,o),
(143,-20,o),
(314,-20,cs)
);
},
{
closed = 1;
nodes = (
(154,0,o),
(49,103,o),
(49,260,cs),
(49,417,o),
(154,520,o),
(314,520,cs),
(474,520,o),
(579,417,o),
(579,260,cs),
(579,103,o),
(474,0,o),
(314,0,cs)
);
}
);
width = 628;
},
{
layerId = m002;
shapes = (
{
closed = 1;
nodes = (
(489,-20,o),
(605,92,o),
(605,260,cs),
(605,428,o),
(489,540,o),
(315,540,cs),
(141,540,o),
(25,428,o),
(25,260,cs),
(25,92,o),
(141,-20,o),
(315,-20,cs)
);
},
{
closed = 1;
nodes = (
(204,76,o),
(134,147,o),
(134,260,cs),
(134,373,o),
(204,444,o),
(315,444,cs),
(426,444,o),
(496,373,o),
(496,260,cs),
(496,147,o),
(426,76,o),
(315,76,cs)
);
}
);
width = 630;
},
{
layerId = m003;
shapes = (
{
closed = 1;
nodes = (
(494,-20,o),
(612,92,o),
(612,260,cs),
(612,428,o),
(494,540,o),
(317,540,cs),
(140,540,o),
(22,428,o),
(22,260,cs),
(22,92,o),
(140,-20,o),
(317,-20,cs)
);
},
{
closed = 1;
nodes = (
(252,152,o),
(214,192,o),
(214,260,cs),
(214,328,o),
(252,368,o),
(317,368,cs),
(382,368,o),
(420,328,o),
(420,260,cs),
(420,192,o),
(382,152,o),
(317,152,cs)
);
}
);
width = 634;
},
{
layerId = m004;
shapes = (
{
closed = 1;
nodes = (
(444,-20,o),
(539,84,o),
(539,260,cs),
(539,436,o),
(444,540,o),
(284,540,cs),
(124,540,o),
(29,436,o),
(29,260,cs),
(29,84,o),
(124,-20,o),
(284,-20,cs)
);
},
{
closed = 1;
nodes = (
(135,0,o),
(49,94,o),
(49,260,cs),
(49,426,o),
(135,520,o),
(284,520,cs),
(433,520,o),
(519,426,o),
(519,260,cs),
(519,94,o),
(433,0,o),
(284,0,cs)
);
}
);
width = 568;
},
{
layerId = m005;
shapes = (
{
closed = 1;
nodes = (
(463,-20,o),
(565,86,o),
(565,260,cs),
(565,434,o),
(463,540,o),
(295,540,cs),
(127,540,o),
(25,434,o),
(25,260,cs),
(25,86,o),
(127,-20,o),
(295,-20,cs)
);
},
{
closed = 1;
nodes = (
(191,76,o),
(134,142,o),
(134,260,cs),
(134,379,o),
(191,444,o),
(295,444,cs),
(399,444,o),
(456,379,o),
(456,260,cs),
(456,141,o),
(399,76,o),
(295,76,cs)
);
}
);
width = 590;
},
{
layerId = m006;
shapes = (
{
closed = 1;
nodes = (
(483,-20,o),
(592,87,o),
(592,260,cs),
(592,433,o),
(483,540,o),
(307,540,cs),
(131,540,o),
(22,433,o),
(22,260,cs),
(22,87,o),
(131,-20,o),
(307,-20,cs)
);
},
{
closed = 1;
nodes = (
(245,144,o),
(214,183,o),
(214,260,cs),
(214,337,o),
(245,376,o),
(307,376,cs),
(369,376,o),
(400,337,o),
(400,260,cs),
(400,183,o),
(369,144,o),
(307,144,cs)
);
}
);
width = 614;
}
);
metricLeft = "=h*.4";
metricRight = "=|";
unicode = 111;
},
{
color = 4;
glyphname = p;
kernLeft = n;
kernRight = o;
lastChange = "2026-07-01 23:42:41 +0000";
layers = (
{
layerId = m01;
shapes = (
{
closed = 1;
nodes = (
(225,530,o),
(134,474,o),
(94,376,c),
(92,376,l),
(92,520,l),
(72,520,l),
(72,-250,l),
(92,-250,l),
(92,144,l),
(94,144,l),
(134,46,o),
(225,-10,o),
(342,-10,cs),
(504,-10,o),
(612,98,o),
(612,260,cs),
(612,422,o),
(504,530,o),
(342,530,cs)
);
},
{
closed = 1;
nodes = (
(493,510,o),
(592,411,o),
(592,260,cs),
(592,109,o),
(493,10,o),
(342,10,cs),
(191,10,o),
(92,109,o),
(92,260,c),
(92,260,l),
(92,411,o),
(191,510,o),
(342,510,cs)
);
}
);
width = 641;
},
{
associatedMasterId = m01;
attr = {
coordinates = (
200,
200
);
};
layerId = "46F1A50B-7C0C-4B23-8733-B6799256F0FB";
name = "Jun 20, 26 at 14:30";
shapes = (
{
closed = 1;
nodes = (
(243,530,o),
(152,482,o),
(114,404,c),
(112,404,l),
(112,520,l),
(71,520,l),
(70,-250,l),
(113,-250,l),
(113,116,l),
(115,116,l),
(153,38,o),
(243,-10,o),
(351,-10,cs),
(511,-10,o),
(618,98,o),
(618,260,cs),
(618,422,o),
(511,530,o),
(351,530,cs)
);
},
{
closed = 1;
nodes = (
(484,493,o),
(576,401,o),
(576,260,cs),
(576,119,o),
(484,26,o),
(344,26,cs),
(205,26,o),
(113,119,o),
(113,260,c),
(113,260,l),
(113,401,o),
(205,493,o),
(344,493,cs)
);
}
);
width = 646;
},
{
layerId = m002;
shapes = (
{
closed = 1;
nodes = (
(288,530,o),
(208,498,o),
(169,448,c),
(167,448,l),
(167,520,l),
(63,520,l),
(63,-250,l),
(172,-250,l),
(172,72,l),
(174,72,l),
(211,22,o),
(288,-10,o),
(373,-10,cs),
(529,-10,o),
(633,98,o),
(633,260,cs),
(633,422,o),
(529,530,o),
(373,530,cs)
);
},
{
closed = 1;
nodes = (
(453,440,o),
(524,368,o),
(524,260,cs),
(524,152,o),
(453,80,o),
(348,80,cs),
(243,80,o),
(172,152,o),
(172,260,c),
(172,260,l),
(172,368,o),
(243,440,o),
(348,440,cs)
);
}
);
width = 658;
},
{
layerId = m003;
shapes = (
{
closed = 1;
nodes = (
(355,530,o),
(286,503,o),
(244,460,c),
(242,460,l),
(242,520,l),
(54,520,l),
(54,-250,l),
(252,-250,l),
(252,60,l),
(254,60,l),
(296,15,o),
(357,-10,o),
(424,-10,cs),
(562,-10,o),
(654,98,o),
(654,260,cs),
(654,422,o),
(562,530,o),
(424,530,cs)
);
},
{
closed = 1;
nodes = (
(414,363,o),
(456,320,o),
(456,260,cs),
(456,200,o),
(414,157,o),
(354,157,cs),
(294,157,o),
(252,200,o),
(252,260,c),
(252,260,l),
(252,320,o),
(294,363,o),
(354,363,cs)
);
}
);
width = 676;
},
{
layerId = m004;
name = "Thin F2";
shapes = (
{
closed = 1;
nodes = (
(220,530,o),
(135,485,o),
(94,412,c),
(92,412,l),
(92,520,l),
(72,520,l),
(72,-250,l),
(92,-250,l),
(92,108,l),
(94,108,l),
(135,35,o),
(220,-10,o),
(316,-10,cs),
(464,-10,o),
(562,98,o),
(562,260,cs),
(562,422,o),
(464,530,o),
(316,530,cs)
);
},
{
closed = 1;
nodes = (
(453,510,o),
(542,412,o),
(542,260,cs),
(542,108,o),
(453,10,o),
(316,10,cs),
(203,10,o),
(117,69,o),
(92,165,c),
(92,355,l),
(117,451,o),
(203,510,o),
(316,510,cs)
);
}
);
width = 591;
},
{
associatedMasterId = m004;
attr = {
coordinates = (
200,
100
);
};
layerId = "4542052A-5F31-4362-B451-0B9720437F60";
name = "Jun 20, 26 at 14:28";
shapes = (
{
closed = 1;
nodes = (
(237,530,o),
(154,491,o),
(113,431,c),
(111,431,l),
(111,520,l),
(70,520,l),
(70,-250,l),
(112,-250,l),
(112,89,l),
(114,89,l),
(154,29,o),
(237,-10,o),
(326,-10,cs),
(473,-10,o),
(570,97,o),
(570,260,cs),
(570,423,o),
(473,530,o),
(326,530,cs)
);
},
{
closed = 1;
nodes = (
(446,492,o),
(528,402,o),
(528,260,cs),
(528,118,o),
(446,27,o),
(319,27,cs),
(215,27,o),
(135,84,o),
(112,173,c),
(112,347,l),
(135,436,o),
(215,492,o),
(319,492,cs)
);
}
);
width = 598;
},
{
layerId = m005;
shapes = (
{
closed = 1;
nodes = (
(280,530,o),
(213,500,o),
(170,448,c),
(168,448,l),
(168,520,l),
(63,520,l),
(63,-250,l),
(172,-250,l),
(173,72,l),
(175,72,l),
(217,19,o),
(281,-10,o),
(358,-10,cs),
(501,-10,o),
(593,95,o),
(593,260,cs),
(593,425,o),
(501,530,o),
(358,530,cs)
);
},
{
closed = 1;
nodes = (
(426,440,o),
(484,373,o),
(484,260,cs),
(484,147,o),
(426,80,o),
(328,80,cs),
(249,80,o),
(190,124,o),
(172,196,c),
(172,324,l),
(190,396,o),
(249,440,o),
(328,440,cs)
);
}
);
width = 618;
},
{
layerId = m006;
name = "Black F2";
shapes = (
{
closed = 1;
nodes = (
(337,530,o),
(292,510,o),
(244,460,c),
(242,460,l),
(242,520,l),
(54,520,l),
(54,-250,l),
(252,-250,l),
(252,60,l),
(254,60,l),
(300,9,o),
(339,-10,o),
(399,-10,cs),
(539,-10,o),
(624,92,o),
(624,260,cs),
(624,428,o),
(539,530,o),
(399,530,cs)
);
},
{
closed = 1;
nodes = (
(397,378,o),
(426,339,o),
(426,260,cs),
(426,181,o),
(397,142,o),
(339,142,cs),
(297,142,o),
(262,162,o),
(252,193,c),
(252,327,l),
(262,358,o),
(297,378,o),
(339,378,cs)
);
}
);
width = 646;
}
);
metricLeft = "=h";
metricRight = "=o";
unicode = 112;
},
{
color = 4;
glyphname = q;
kernLeft = o;
kernRight = u;
lastChange = "2026-07-01 23:42:55 +0000";
layers = (
{
layerId = m01;
shapes = (
{
closed = 1;
nodes = (
(137,530,o),
(29,422,o),
(29,260,cs),
(29,98,o),
(137,-10,o),
(299,-10,cs),
(416,-10,o),
(507,46,o),
(547,144,c),
(549,144,l),
(549,-250,l),
(569,-250,l),
(569,520,l),
(549,520,l),
(549,376,l),
(547,376,l),
(507,474,o),
(416,530,o),
(299,530,cs)
);
},
{
closed = 1;
nodes = (
(450,510,o),
(549,411,o),
(549,260,c),
(549,260,l),
(549,109,o),
(450,10,o),
(299,10,cs),
(148,10,o),
(49,109,o),
(49,260,cs),
(49,411,o),
(148,510,o),
(299,510,cs)
);
}
);
width = 641;
},
{
associatedMasterId = m01;
attr = {
coordinates = (
200,
200
);
};
layerId = "46F1A50B-7C0C-4B23-8733-B6799256F0FB";
name = "Jun 20, 26 at 14:30";
shapes = (
{
closed = 1;
nodes = (
(135,530,o),
(28,422,o),
(28,260,cs),
(28,98,o),
(135,-10,o),
(295,-10,cs),
(403,-10,o),
(493,38,o),
(531,116,c),
(533,116,l),
(533,-250,l),
(576,-250,l),
(575,520,l),
(534,520,l),
(534,404,l),
(532,404,l),
(494,482,o),
(403,530,o),
(295,530,cs)
);
},
{
closed = 1;
nodes = (
(441,493,o),
(533,401,o),
(533,260,c),
(533,260,l),
(533,119,o),
(441,26,o),
(302,26,cs),
(162,26,o),
(70,119,o),
(70,260,cs),
(70,401,o),
(162,493,o),
(302,493,cs)
);
}
);
width = 646;
},
{
layerId = m002;
shapes = (
{
closed = 1;
nodes = (
(129,530,o),
(25,422,o),
(25,260,cs),
(25,98,o),
(129,-10,o),
(285,-10,cs),
(370,-10,o),
(447,22,o),
(484,72,c),
(486,72,l),
(486,-250,l),
(595,-250,l),
(595,520,l),
(491,520,l),
(491,448,l),
(489,448,l),
(450,498,o),
(370,530,o),
(285,530,cs)
);
},
{
closed = 1;
nodes = (
(415,440,o),
(486,368,o),
(486,260,c),
(486,260,l),
(486,152,o),
(415,80,o),
(310,80,cs),
(205,80,o),
(134,152,o),
(134,260,cs),
(134,368,o),
(205,440,o),
(310,440,cs)
);
}
);
width = 658;
},
{
layerId = m003;
shapes = (
{
closed = 1;
nodes = (
(114,530,o),
(22,422,o),
(22,260,cs),
(22,98,o),
(114,-10,o),
(252,-10,cs),
(319,-10,o),
(380,15,o),
(422,60,c),
(424,60,l),
(424,-250,l),
(622,-250,l),
(622,520,l),
(434,520,l),
(434,460,l),
(432,460,l),
(390,503,o),
(321,530,o),
(252,530,cs)
);
},
{
closed = 1;
nodes = (
(382,363,o),
(424,320,o),
(424,260,c),
(424,260,l),
(424,200,o),
(382,157,o),
(322,157,cs),
(262,157,o),
(220,200,o),
(220,260,cs),
(220,320,o),
(262,363,o),
(322,363,cs)
);
}
);
width = 676;
},
{
layerId = m004;
name = "Thin F2";
shapes = (
{
closed = 1;
nodes = (
(127,530,o),
(29,422,o),
(29,260,cs),
(29,98,o),
(127,-10,o),
(275,-10,cs),
(371,-10,o),
(456,35,o),
(497,108,c),
(499,108,l),
(499,-250,l),
(519,-250,l),
(519,520,l),
(499,520,l),
(499,412,l),
(497,412,l),
(456,485,o),
(371,530,o),
(275,530,cs)
);
},
{
closed = 1;
nodes = (
(388,510,o),
(474,451,o),
(499,355,c),
(499,165,l),
(474,69,o),
(388,10,o),
(275,10,cs),
(138,10,o),
(49,108,o),
(49,260,cs),
(49,412,o),
(138,510,o),
(275,510,cs)
);
}
);
width = 591;
},
{
associatedMasterId = m004;
attr = {
coordinates = (
200,
100
);
};
layerId = "4542052A-5F31-4362-B451-0B9720437F60";
name = "Jun 20, 26 at 14:28";
shapes = (
{
closed = 1;
nodes = (
(125,530,o),
(28,423,o),
(28,260,cs),
(28,97,o),
(125,-10,o),
(272,-10,cs),
(361,-10,o),
(444,29,o),
(484,89,c),
(486,89,l),
(486,-250,l),
(528,-250,l),
(528,520,l),
(487,520,l),
(487,431,l),
(485,431,l),
(444,491,o),
(361,530,o),
(272,530,cs)
);
},
{
closed = 1;
nodes = (
(383,492,o),
(463,436,o),
(486,347,c),
(486,173,l),
(463,84,o),
(383,27,o),
(279,27,cs),
(152,27,o),
(70,118,o),
(70,260,cs),
(70,402,o),
(152,492,o),
(279,492,cs)
);
}
);
width = 598;
},
{
layerId = m005;
shapes = (
{
closed = 1;
nodes = (
(117,530,o),
(25,425,o),
(25,260,cs),
(25,95,o),
(117,-10,o),
(260,-10,cs),
(337,-10,o),
(401,19,o),
(443,72,c),
(445,72,l),
(446,-250,l),
(555,-250,l),
(555,520,l),
(450,520,l),
(450,448,l),
(448,448,l),
(405,500,o),
(338,530,o),
(260,530,cs)
);
},
{
closed = 1;
nodes = (
(369,440,o),
(428,396,o),
(446,324,c),
(446,196,l),
(428,124,o),
(369,80,o),
(290,80,cs),
(192,80,o),
(134,147,o),
(134,260,cs),
(134,373,o),
(192,440,o),
(290,440,cs)
);
}
);
width = 618;
},
{
layerId = m006;
name = "Black F2";
shapes = (
{
closed = 1;
nodes = (
(107,530,o),
(22,428,o),
(22,260,cs),
(22,92,o),
(107,-10,o),
(247,-10,cs),
(307,-10,o),
(346,9,o),
(392,60,c),
(394,60,l),
(394,-250,l),
(592,-250,l),
(592,520,l),
(404,520,l),
(404,460,l),
(402,460,l),
(354,510,o),
(309,530,o),
(247,530,cs)
);
},
{
closed = 1;
nodes = (
(349,378,o),
(384,358,o),
(394,327,c),
(394,193,l),
(384,162,o),
(349,142,o),
(307,142,cs),
(249,142,o),
(220,181,o),
(220,260,cs),
(220,339,o),
(249,378,o),
(307,378,cs)
);
}
);
width = 646;
}
);
metricLeft = "=o";
metricRight = "=|h";
unicode = 113;
},
{
color = 4;
glyphname = r;
kernLeft = m;
kernRight = r;
lastChange = "2026-07-01 23:43:17 +0000";
layers = (
{
layerId = m01;
shapes = (
{
closed = 1;
nodes = (
(92,0,l),
(92,240,ls),
(92,417,o),
(178,510,o),
(342,510,c),
(342,530,l),
(215,530,o),
(131,478,o),
(94,376,c),
(92,376,l),
(92,520,l),
(72,520,l),
(72,0,l)
);
}
);
width = 358;
},
{
layerId = m002;
shapes = (
{
closed = 1;
nodes = (
(172,0,l),
(172,220,ls),
(172,367,o),
(245,435,o),
(403,435,c),
(403,530,l),
(298,530,o),
(218,495,o),
(169,428,c),
(167,428,l),
(167,520,l),
(63,520,l),
(63,0,l)
);
}
);
width = 417;
},
{
layerId = m003;
shapes = (
{
closed = 1;
nodes = (
(252,0,l),
(252,200,ls),
(252,316,o),
(310,360,o),
(464,360,c),
(464,530,l),
(381,530,o),
(305,499,o),
(244,440,c),
(242,440,l),
(242,520,l),
(54,520,l),
(54,0,l)
);
}
);
width = 476;
},
{
layerId = m004;
shapes = (
{
closed = 1;
nodes = (
(92,0,l),
(92,310,l),
(121,442,o),
(220,510,o),
(382,510,c),
(382,530,l),
(240,530,o),
(137,476,o),
(94,376,c),
(92,376,l),
(92,520,l),
(72,520,l),
(72,0,l)
);
}
);
width = 398;
},
{
layerId = m005;
shapes = (
{
closed = 1;
nodes = (
(172,0,l),
(172,298,l),
(201,391,o),
(288,435,o),
(443,435,c),
(443,530,l),
(324,530,o),
(227,494,o),
(169,428,c),
(167,428,l),
(167,520,l),
(63,520,l),
(63,0,l)
);
}
);
width = 457;
},
{
layerId = m006;
shapes = (
{
closed = 1;
nodes = (
(252,0,l),
(252,265,l),
(282,334,o),
(351,360,o),
(504,360,c),
(504,530,l),
(405,530,o),
(316,499,o),
(244,440,c),
(242,440,l),
(242,520,l),
(54,520,l),
(54,0,l)
);
}
);
width = 516;
}
);
metricLeft = "=h";
metricRight = "=H*.2";
unicode = 114;
},
{
color = 4;
glyphname = s;
kernLeft = s;
kernRight = s;
lastChange = "2026-07-01 23:43:24 +0000";
layers = (
{
background = {
shapes = (
{
closed = 1;
nodes = (
(335,-10,o),
(406,43,o),
(406,132,cs),
(406,228,o),
(328,255,o),
(218,281,cs),
(129,302,o),
(56,320,o),
(56,398,cs),
(56,467,o),
(114,510,o),
(219,510,cs),
(280,510,o),
(344,495,o),
(380,473,c),
(390,490,l),
(351,514,o),
(283,530,o),
(219,530,cs),
(105,530,o),
(36,480,o),
(36,398,cs),
(36,211,o),
(386,311,o),
(386,132,cs),
(386,56,o),
(326,10,o),
(216,10,cs),
(154,10,o),
(91,25,o),
(47,50,c),
(37,33,l),
(85,6,o),
(151,-10,o),
(216,-10,cs)
);
}
);
};
layerId = m01;
shapes = (
{
closed = 1;
nodes = (
(335,-10,o),
(406,43,o),
(406,132,cs),
(406,331,o),
(56,232,o),
(56,398,cs),
(56,467,o),
(114,510,o),
(219,510,cs),
(280,510,o),
(344,495,o),
(380,473,c),
(390,490,l),
(351,514,o),
(283,530,o),
(219,530,cs),
(105,530,o),
(36,480,o),
(36,398,cs),
(36,211,o),
(386,311,o),
(386,132,cs),
(386,56,o),
(326,10,o),
(216,10,cs),
(154,10,o),
(91,25,o),
(47,50,c),
(37,33,l),
(85,6,o),
(151,-10,o),
(216,-10,cs)
);
}
);
width = 442;
},
{
background = {
shapes = (
{
closed = 1;
nodes = (
(371,-10,o),
(452,47,o),
(452,143,cs),
(452,331,o),
(137,281,o),
(137,383,cs),
(137,420,o),
(175,440,o),
(244,440,cs),
(299,440,o),
(360,427,o),
(417,404,c),
(435,491,l),
(379,517,o),
(316,530,o),
(247,530,cs),
(109,530,o),
(32,478,o),
(32,385,cs),
(32,198,o),
(345,251,o),
(345,144,cs),
(345,101,o),
(312,80,o),
(238,80,cs),
(178,80,o),
(111,94,o),
(52,119,c),
(34,32,l),
(89,6,o),
(164,-10,o),
(235,-10,cs)
);
}
);
};
layerId = m002;
shapes = (
{
closed = 1;
nodes = (
(371,-10,o),
(452,47,o),
(452,143,cs),
(452,335,o),
(137,285,o),
(137,383,cs),
(137,420,o),
(175,440,o),
(244,440,cs),
(299,440,o),
(360,427,o),
(417,405,c),
(435,491,l),
(379,517,o),
(316,530,o),
(247,530,cs),
(109,530,o),
(32,478,o),
(32,385,cs),
(32,194,o),
(345,247,o),
(345,144,cs),
(345,101,o),
(312,80,o),
(238,80,cs),
(178,80,o),
(111,94,o),
(52,118,c),
(34,32,l),
(89,6,o),
(164,-10,o),
(235,-10,cs)
);
}
);
width = 484;
},
{
layerId = m003;
shapes = (
{
closed = 1;
nodes = (
(415,-10,o),
(497,47,o),
(497,153,cs),
(497,336,o),
(227,302,o),
(227,367,cs),
(227,384,o),
(241,390,o),
(279,390,cs),
(325,390,o),
(380,379,o),
(449,356,c),
(479,492,l),
(408,520,o),
(356,530,o),
(285,530,cs),
(119,530,o),
(27,474,o),
(27,372,cs),
(27,188,o),
(294,215,o),
(294,155,cs),
(294,135,o),
(285,130,o),
(249,130,cs),
(197,130,o),
(129,143,o),
(61,166,c),
(31,30,l),
(93,6,o),
(185,-10,o),
(264,-10,cs)
);
}
);
width = 524;
},
{
layerId = m004;
shapes = (
{
closed = 1;
nodes = (
(351,-10,o),
(426,43,o),
(426,132,cs),
(426,330,o),
(56,235,o),
(56,398,cs),
(56,466,o),
(118,510,o),
(229,510,cs),
(294,510,o),
(361,495,o),
(399,473,c),
(409,490,l),
(368,514,o),
(297,530,o),
(229,530,cs),
(109,530,o),
(36,480,o),
(36,398,cs),
(36,211,o),
(406,311,o),
(406,132,cs),
(406,56,o),
(342,10,o),
(226,10,cs),
(161,10,o),
(95,25,o),
(46,51,c),
(37,33,l),
(88,6,o),
(158,-10,o),
(226,-10,cs)
);
}
);
width = 462;
},
{
layerId = m005;
shapes = (
{
closed = 1;
nodes = (
(387,-10,o),
(472,47,o),
(472,143,cs),
(472,331,o),
(142,281,o),
(142,383,cs),
(142,420,o),
(182,440,o),
(254,440,cs),
(312,440,o),
(376,427,o),
(435,404,c),
(454,491,l),
(395,517,o),
(329,530,o),
(257,530,cs),
(113,530,o),
(32,478,o),
(32,385,cs),
(32,198,o),
(360,251,o),
(360,144,cs),
(360,101,o),
(325,80,o),
(248,80,cs),
(185,80,o),
(115,94,o),
(53,119,c),
(34,32,l),
(92,6,o),
(170,-10,o),
(245,-10,cs)
);
}
);
width = 504;
},
{
layerId = m006;
shapes = (
{
closed = 1;
nodes = (
(425,-10,o),
(517,49,o),
(517,153,cs),
(517,336,o),
(227,302,o),
(227,367,cs),
(227,384,o),
(241,390,o),
(279,390,cs),
(330,390,o),
(392,379,o),
(469,356,c),
(499,492,l),
(423,519,o),
(361,530,o),
(285,530,cs),
(117,530,o),
(27,475,o),
(27,372,cs),
(27,188,o),
(314,215,o),
(314,155,cs),
(314,135,o),
(305,130,o),
(269,130,cs),
(211,130,o),
(136,143,o),
(61,166,c),
(31,30,l),
(95,5,o),
(182,-10,o),
(264,-10,cs)
);
}
);
width = 544;
}
);
metricLeft = "=h*.5";
metricRight = "=|";
unicode = 115;
},
{
color = 4;
glyphname = t;
kernLeft = f;
kernRight = c;
lastChange = "2026-07-01 23:44:49 +0000";
layers = (
{
layerId = m01;
shapes = (
{
closed = 1;
nodes = (
(348,-10,o),
(380,-7,o),
(409,3,c),
(409,25,l),
(381,15,o),
(349,10,o),
(313,10,cs),
(215,10,o),
(180,47,o),
(180,150,cs),
(180,500,l),
(419,500,l),
(419,520,l),
(180,520,l),
(180,690,l),
(160,690,l),
(160,520,l),
(29,520,l),
(29,500,l),
(160,500,l),
(160,150,ls),
(160,36,o),
(204,-10,o),
(313,-10,cs)
);
}
);
width = 465;
},
{
layerId = m002;
shapes = (
{
closed = 1;
nodes = (
(357,-10,o),
(395,-5,o),
(435,6,c),
(435,96,l),
(406,86,o),
(370,81,o),
(338,81,cs),
(268,81,o),
(246,105,o),
(246,181,cs),
(246,430,l),
(445,430,l),
(445,520,l),
(246,520,l),
(246,690,l),
(137,690,l),
(137,520,l),
(25,520,l),
(25,430,l),
(137,430,l),
(137,160,ls),
(137,38,o),
(188,-10,o),
(316,-10,cs)
);
}
);
width = 485;
},
{
layerId = m003;
shapes = (
{
closed = 1;
nodes = (
(368,-10,o),
(411,-4,o),
(462,10,c),
(462,166,l),
(428,157,o),
(392,151,o),
(364,151,cs),
(323,151,o),
(312,163,o),
(312,211,cs),
(312,360,l),
(472,360,l),
(472,520,l),
(312,520,l),
(312,690,l),
(114,690,l),
(114,520,l),
(22,520,l),
(22,360,l),
(114,360,l),
(114,170,ls),
(114,42,o),
(173,-10,o),
(319,-10,cs)
);
}
);
width = 507;
},
{
layerId = m004;
shapes = (
{
closed = 1;
nodes = (
(352,-10,o),
(384,-6,o),
(409,3,c),
(409,25,l),
(385,16,o),
(354,10,o),
(321,10,cs),
(230,10,o),
(200,44,o),
(200,150,cs),
(200,500,l),
(439,500,l),
(439,520,l),
(200,520,l),
(200,690,l),
(180,690,l),
(180,520,l),
(29,520,l),
(29,500,l),
(180,500,l),
(180,150,ls),
(180,33,o),
(218,-10,o),
(321,-10,cs)
);
}
);
width = 485;
},
{
layerId = m005;
shapes = (
{
closed = 1;
nodes = (
(363,-10,o),
(400,-5,o),
(435,6,c),
(435,96,l),
(410,87,o),
(380,81,o),
(348,81,cs),
(285,81,o),
(266,104,o),
(266,181,cs),
(266,430,l),
(465,430,l),
(465,520,l),
(266,520,l),
(266,690,l),
(157,690,l),
(157,520,l),
(25,520,l),
(25,430,l),
(157,430,l),
(157,160,ls),
(157,38,o),
(204,-10,o),
(324,-10,cs)
);
}
);
width = 505;
},
{
layerId = m006;
shapes = (
{
closed = 1;
nodes = (
(373,-10,o),
(414,-4,o),
(462,10,c),
(462,166,l),
(438,157,o),
(404,151,o),
(377,151,cs),
(342,151,o),
(332,164,o),
(332,211,cs),
(332,360,l),
(492,360,l),
(492,520,l),
(332,520,l),
(332,690,l),
(134,690,l),
(134,520,l),
(22,520,l),
(22,360,l),
(134,360,l),
(134,170,ls),
(134,42,o),
(190,-10,o),
(327,-10,cs)
);
}
);
width = 527;
}
);
metricLeft = "=f";
metricRight = "=c";
unicode = 116;
},
{
color = 4;
glyphname = u;
kernLeft = u;
kernRight = n;
lastChange = "2026-07-01 23:43:31 +0000";
layers = (
{
layerId = m01;
shapes = (
{
closed = 1;
nodes = (
(366,-10,o),
(440,32,o),
(476,108,c),
(478,108,l),
(478,0,l),
(498,0,l),
(498,520,l),
(478,520,l),
(478,214,ls),
(478,88,o),
(398,10,o),
(268,10,cs),
(144,10,o),
(78,81,o),
(78,214,cs),
(78,520,l),
(58,520,l),
(58,214,ls),
(58,70,o),
(133,-10,o),
(268,-10,cs)
);
}
);
width = 570;
},
{
layerId = m002;
shapes = (
{
closed = 1;
nodes = (
(338,-10,o),
(407,21,o),
(444,72,c),
(446,72,l),
(446,0,l),
(550,0,l),
(550,520,l),
(441,520,l),
(441,265,ls),
(441,154,o),
(382,86,o),
(286,86,cs),
(202,86,o),
(159,137,o),
(159,235,cs),
(159,520,l),
(50,520,l),
(50,207,ls),
(50,73,o),
(130,-10,o),
(259,-10,cs)
);
}
);
width = 613;
},
{
layerId = m003;
shapes = (
{
closed = 1;
nodes = (
(315,-10,o),
(372,14,o),
(413,60,c),
(415,60,l),
(415,0,l),
(603,0,l),
(603,520,l),
(405,520,l),
(405,255,ls),
(405,194,o),
(376,162,o),
(323,162,cs),
(270,162,o),
(241,194,o),
(241,255,cs),
(241,520,l),
(43,520,l),
(43,200,ls),
(43,75,o),
(127,-10,o),
(250,-10,cs)
);
}
);
width = 657;
},
{
layerId = m004;
name = "Thin F2";
shapes = (
{
closed = 1;
nodes = (
(319,-10,o),
(397,34,o),
(436,108,c),
(438,108,l),
(438,0,l),
(458,0,l),
(458,520,l),
(438,520,l),
(438,165,l),
(411,69,o),
(330,10,o),
(227,10,cs),
(123,10,o),
(78,70,o),
(78,220,cs),
(78,520,l),
(58,520,l),
(58,220,ls),
(58,61,o),
(110,-10,o),
(227,-10,cs)
);
}
);
width = 530;
},
{
layerId = m005;
shapes = (
{
closed = 1;
nodes = (
(286,-10,o),
(361,22,o),
(404,72,c),
(406,72,l),
(406,0,l),
(510,0,l),
(510,520,l),
(401,520,l),
(401,186,l),
(377,125,o),
(320,86,o),
(252,86,cs),
(184,86,o),
(159,125,o),
(159,230,cs),
(159,520,l),
(50,520,l),
(50,220,ls),
(50,63,o),
(102,-10,o),
(213,-10,cs)
);
}
);
width = 573;
},
{
layerId = m006;
name = "Black F2";
shapes = (
{
closed = 1;
nodes = (
(260,-10,o),
(325,16,o),
(373,60,c),
(375,60,l),
(375,0,l),
(563,0,l),
(563,520,l),
(365,520,l),
(365,205,l),
(357,174,o),
(329,154,o),
(296,154,cs),
(259,154,o),
(241,179,o),
(241,232,cs),
(241,520,l),
(43,520,l),
(43,220,ls),
(43,66,o),
(94,-10,o),
(199,-10,cs)
);
}
);
width = 617;
},
{
associatedMasterId = m004;
attr = {
coordinates = (
200,
100
);
};
layerId = "DBFFBCB2-45B6-47F5-99BE-56E40808C34B";
name = "Jun 21, 26 at 16:31";
shapes = (
{
closed = 1;
nodes = (
(309,-10,o),
(389,29,o),
(428,89,c),
(430,89,l),
(430,0,l),
(471,0,l),
(471,520,l),
(429,520,l),
(429,170,l),
(403,84,o),
(328,29,o),
(233,29,cs),
(138,29,o),
(98,84,o),
(98,223,cs),
(98,520,l),
(56,520,l),
(56,220,ls),
(56,62,o),
(108,-10,o),
(224,-10,cs)
);
}
);
width = 541;
},
{
associatedMasterId = m01;
attr = {
coordinates = (
200,
200
);
};
layerId = "81FA8989-86D4-442E-9BF5-DE0B1DCBA8C0";
name = "Jun 21, 26 at 20:34";
shapes = (
{
closed = 1;
nodes = (
(357,-10,o),
(433,27,o),
(468,89,c),
(470,89,l),
(470,0,l),
(511,0,l),
(511,520,l),
(469,520,l),
(469,227,ls),
(469,105,o),
(394,29,o),
(273,29,cs),
(159,29,o),
(98,95,o),
(98,219,cs),
(98,520,l),
(56,520,l),
(56,212,ls),
(56,71,o),
(132,-10,o),
(266,-10,cs)
);
}
);
width = 581;
}
);
metricLeft = "=|n";
metricRight = "=|n";
unicode = 117;
},
{
color = 4;
glyphname = v;
kernLeft = v;
kernRight = v;
lastChange = "2026-07-02 07:22:47 +0000";
layers = (
{
layerId = m01;
shapes = (
{
closed = 1;
nodes = (
(279,0,l),
(527,520,l),
(504,520,l),
(278,44,l),
(268,23,l),
(266,23,l),
(256,44,l),
(30,520,l),
(7,520,l),
(255,0,l)
);
}
);
width = 534;
},
{
layerId = m002;
shapes = (
{
closed = 1;
nodes = (
(366,0,l),
(576,520,l),
(460,520,l),
(313,142,l),
(292,87,l),
(290,87,l),
(269,142,l),
(122,520,l),
(6,520,l),
(216,0,l)
);
}
);
width = 582;
},
{
layerId = m003;
shapes = (
{
closed = 1;
nodes = (
(452,0,l),
(625,520,l),
(415,520,l),
(328,197,l),
(316,150,l),
(314,150,l),
(302,197,l),
(215,520,l),
(5,520,l),
(178,0,l)
);
}
);
width = 630;
},
{
layerId = m004;
shapes = (
{
closed = 1;
nodes = (
(257,0,l),
(477,520,l),
(455,520,l),
(251,36,l),
(243,17,l),
(241,17,l),
(233,36,l),
(29,520,l),
(7,520,l),
(227,0,l)
);
}
);
width = 484;
},
{
layerId = m005;
shapes = (
{
closed = 1;
nodes = (
(342,0,l),
(526,520,l),
(410,520,l),
(285,135,l),
(267,79,l),
(265,79,l),
(247,135,l),
(122,520,l),
(6,520,l),
(190,0,l)
);
}
);
width = 532;
},
{
layerId = m006;
shapes = (
{
closed = 1;
nodes = (
(427,0,l),
(575,520,l),
(365,520,l),
(300,187,l),
(291,140,l),
(289,140,l),
(280,187,l),
(215,520,l),
(5,520,l),
(153,0,l)
);
}
);
width = 580;
}
);
metricLeft = "=h*.1";
metricRight = "=|";
unicode = 118;
},
{
color = 4;
glyphname = w;
kernLeft = v;
kernRight = v;
lastChange = "2026-07-02 06:26:02 +0000";
layers = (
{
layerId = m01;
shapes = (
{
closed = 1;
nodes = (
(256,0,l),
(453,501,l),
(455,501,l),
(652,0,l),
(682,0,l),
(894,520,l),
(872,520,l),
(679,46,l),
(668,19,l),
(666,19,l),
(655,47,l),
(469,520,l),
(469,520,l),
(469,520,l),
(439,520,l),
(439,520,l),
(439,520,l),
(253,47,l),
(242,19,l),
(240,19,l),
(229,46,l),
(36,520,l),
(14,520,l),
(226,0,l)
);
}
);
width = 908;
},
{
associatedMasterId = m01;
attr = {
axisRules = (
{
max = 300;
min = 100;
},
{
max = 200;
min = 150;
}
);
};
background = {
shapes = (
{
closed = 1;
nodes = (
(280,0,l),
(591,520,l),
(568,520,l),
(290,55,l),
(270,20,l),
(268,20,l),
(242,76,l),
(36,520,l),
(14,520,l),
(255,0,l)
);
},
{
closed = 1;
nodes = (
(613,0,l),
(854,520,l),
(832,520,l),
(626,76,l),
(600,20,l),
(598,20,l),
(578,55,l),
(300,520,l),
(277,520,l),
(588,0,l)
);
}
);
};
layerId = "5BFF2A28-A5EB-47F3-BC50-DE6A2FB4DB15";
name = "Jul 2, 26 at 14:32";
shapes = (
{
closed = 1;
nodes = (
(280,0,l),
(434,257,l),
(588,0,l),
(613,0,l),
(854,520,l),
(832,520,l),
(626,76,l),
(600,20,l),
(598,20,l),
(578,55,l),
(445,277,l),
(591,520,l),
(568,520,l),
(434,296,l),
(300,520,l),
(277,520,l),
(423,277,l),
(290,55,l),
(270,20,l),
(268,20,l),
(242,76,l),
(36,520,l),
(14,520,l),
(255,0,l)
);
}
);
width = 868;
},
{
layerId = m002;
shapes = (
{
closed = 1;
nodes = (
(334,0,l),
(462,415,l),
(464,415,l),
(592,0,l),
(732,0,l),
(913,520,l),
(796,520,l),
(680,159,l),
(663,105,l),
(661,105,l),
(646,154,l),
(533,520,l),
(533,520,l),
(533,520,l),
(393,520,l),
(393,520,l),
(393,520,l),
(280,154,l),
(265,105,l),
(263,105,l),
(246,159,l),
(130,520,l),
(13,520,l),
(194,0,l)
);
}
);
width = 926;
},
{
associatedMasterId = m002;
attr = {
axisRules = (
{
max = 300;
min = 100;
},
{
max = 200;
min = 150;
}
);
};
background = {
shapes = (
{
closed = 1;
nodes = (
(383,0,l),
(673,520,l),
(559,520,l),
(346,138,l),
(315,79,l),
(313,79,l),
(292,130,l),
(127,520,l),
(13,520,l),
(233,0,l)
);
},
{
closed = 1;
nodes = (
(713,0,l),
(933,520,l),
(819,520,l),
(654,130,l),
(633,79,l),
(631,79,l),
(600,138,l),
(387,520,l),
(273,520,l),
(563,0,l)
);
}
);
};
layerId = "7F389CAB-D9EF-4772-B934-62F4EF3EEBF2";
name = "Jul 2, 26 at 14:32";
shapes = (
{
closed = 1;
nodes = (
(383,0,l),
(473,181,l),
(563,0,l),
(713,0,l),
(933,520,l),
(819,520,l),
(654,130,l),
(633,79,l),
(631,79,l),
(600,138,l),
(530,264,l),
(673,520,l),
(559,520,l),
(473,346,l),
(387,520,l),
(273,520,l),
(416,264,l),
(346,138,l),
(315,79,l),
(313,79,l),
(292,130,l),
(127,520,l),
(13,520,l),
(233,0,l)
);
}
);
width = 946;
},
{
background = {
shapes = (
{
closed = 1;
nodes = (
(410,0,l),
(470,350,l),
(472,350,l),
(532,0,l),
(782,0,l),
(931,520,l),
(719,520,l),
(659,170,l),
(657,170,l),
(597,520,l),
(597,520,l),
(597,520,l),
(597,520,l),
(597,520,l),
(345,520,l),
(345,520,l),
(345,520,l),
(345,520,l),
(345,520,l),
(285,170,l),
(283,170,l),
(223,520,l),
(11,520,l),
(160,0,l)
);
}
);
};
layerId = m003;
shapes = (
{
closed = 1;
nodes = (
(410,0,l),
(470,350,l),
(472,350,l),
(532,0,l),
(782,0,l),
(931,520,l),
(719,520,l),
(667,218,l),
(659,170,l),
(657,170,l),
(649,218,l),
(597,520,l),
(597,520,l),
(597,520,l),
(345,520,l),
(345,520,l),
(345,520,l),
(293,218,l),
(285,170,l),
(283,170,l),
(275,218,l),
(223,520,l),
(11,520,l),
(160,0,l)
);
}
);
width = 942;
},
{
layerId = m004;
name = "Thin F2";
shapes = (
{
closed = 1;
nodes = (
(256,0,l),
(453,501,l),
(455,501,l),
(652,0,l),
(682,0,l),
(894,520,l),
(872,520,l),
(679,46,l),
(668,19,l),
(666,19,l),
(655,47,l),
(469,520,l),
(469,520,l),
(469,520,l),
(439,520,l),
(439,520,l),
(439,520,l),
(253,47,l),
(242,19,l),
(240,19,l),
(229,46,l),
(36,520,l),
(14,520,l),
(226,0,l)
);
}
);
width = 908;
},
{
associatedMasterId = m004;
attr = {
axisRules = (
{
max = 300;
min = 100;
},
{
max = 200;
min = 150;
}
);
};
background = {
shapes = (
{
closed = 1;
nodes = (
(280,0,l),
(571,520,l),
(548,520,l),
(296,70,l),
(269,21,l),
(267,21,l),
(242,76,l),
(36,520,l),
(14,520,l),
(255,0,l)
);
},
{
closed = 1;
nodes = (
(573,0,l),
(814,520,l),
(792,520,l),
(586,76,l),
(561,21,l),
(559,21,l),
(532,70,l),
(280,520,l),
(257,520,l),
(548,0,l)
);
}
);
};
layerId = "FD7FF068-7DB1-4934-B33C-DDACFAB29FC6";
name = "Jul 2, 26 at 14:53";
shapes = (
{
closed = 1;
nodes = (
(280,0,l),
(414,239,l),
(548,0,l),
(573,0,l),
(814,520,l),
(792,520,l),
(586,76,l),
(561,21,l),
(559,21,l),
(532,70,l),
(426,260,l),
(571,520,l),
(548,520,l),
(414,281,l),
(280,520,l),
(257,520,l),
(402,260,l),
(296,70,l),
(269,21,l),
(267,21,l),
(242,76,l),
(36,520,l),
(14,520,l),
(255,0,l)
);
}
);
width = 828;
},
{
layerId = m005;
name = "Medium F2";
shapes = (
{
closed = 1;
nodes = (
(334,0,l),
(462,415,l),
(464,415,l),
(592,0,l),
(732,0,l),
(913,520,l),
(796,520,l),
(680,159,l),
(663,105,l),
(661,105,l),
(645,158,l),
(533,520,l),
(533,520,l),
(533,520,l),
(393,520,l),
(393,520,l),
(393,520,l),
(281,158,l),
(265,105,l),
(263,105,l),
(246,159,l),
(130,520,l),
(13,520,l),
(194,0,l)
);
}
);
width = 926;
},
{
associatedMasterId = m005;
attr = {
axisRules = (
{
max = 300;
min = 100;
},
{
max = 200;
min = 150;
}
);
};
background = {
shapes = (
{
closed = 1;
nodes = (
(373,0,l),
(653,520,l),
(539,520,l),
(327,126,l),
(305,82,l),
(303,82,l),
(284,131,l),
(127,520,l),
(13,520,l),
(223,0,l)
);
},
{
closed = 1;
nodes = (
(683,0,l),
(893,520,l),
(779,520,l),
(622,131,l),
(603,82,l),
(601,82,l),
(579,126,l),
(367,520,l),
(253,520,l),
(533,0,l)
);
}
);
};
layerId = "54609187-C85F-413B-BF59-C07B1D964E2A";
name = "Jul 2, 26 at 14:54";
shapes = (
{
closed = 1;
nodes = (
(373,0,l),
(453,169,l),
(533,0,l),
(683,0,l),
(893,520,l),
(779,520,l),
(622,131,l),
(603,82,l),
(601,82,l),
(579,126,l),
(510,254,l),
(653,520,l),
(539,520,l),
(453,340,l),
(367,520,l),
(253,520,l),
(396,254,l),
(327,126,l),
(305,82,l),
(303,82,l),
(284,131,l),
(127,520,l),
(13,520,l),
(223,0,l)
);
}
);
width = 906;
},
{
layerId = m006;
name = "Black F2";
shapes = (
{
closed = 1;
nodes = (
(410,0,l),
(470,350,l),
(472,350,l),
(532,0,l),
(782,0,l),
(931,520,l),
(719,520,l),
(667,218,l),
(659,170,l),
(657,170,l),
(649,218,l),
(597,520,l),
(597,520,l),
(597,520,l),
(345,520,l),
(345,520,l),
(345,520,l),
(293,218,l),
(285,170,l),
(283,170,l),
(275,218,l),
(223,520,l),
(11,520,l),
(160,0,l)
);
}
);
width = 942;
}
);
metricLeft = "=h*.2";
metricRight = "=|";
unicode = 119;
},
{
color = 4;
glyphname = x;
kernLeft = x;
kernRight = x;
lastChange = "2026-07-02 07:46:41 +0000";
layers = (
{
layerId = m01;
shapes = (
{
closed = 1;
nodes = (
(45,0,l),
(273,247,l),
(275,247,l),
(503,0,l),
(534,0,l),
(288,263,l),
(529,520,l),
(498,520,l),
(275,279,l),
(273,279,l),
(50,520,l),
(19,520,l),
(260,263,l),
(14,0,l)
);
}
);
width = 548;
},
{
layerId = m002;
shapes = (
{
closed = 1;
nodes = (
(139,0,l),
(291,214,l),
(295,214,l),
(447,0,l),
(573,0,l),
(375,262,l),
(571,520,l),
(445,520,l),
(295,310,l),
(291,310,l),
(141,520,l),
(15,520,l),
(211,262,l),
(13,0,l)
);
}
);
width = 586;
},
{
layerId = m003;
shapes = (
{
closed = 1;
nodes = (
(225,0,l),
(310,180,l),
(312,180,l),
(397,0,l),
(611,0,l),
(461,260,l),
(611,520,l),
(397,520,l),
(312,340,l),
(310,340,l),
(225,520,l),
(11,520,l),
(161,260,l),
(11,0,l)
);
}
);
width = 622;
},
{
layerId = m004;
shapes = (
{
closed = 1;
nodes = (
(40,0,l),
(233,247,l),
(235,247,l),
(428,0,l),
(454,0,l),
(247,263,l),
(449,520,l),
(423,520,l),
(235,279,l),
(233,279,l),
(45,520,l),
(19,520,l),
(221,263,l),
(14,0,l)
);
}
);
width = 468;
},
{
layerId = m005;
shapes = (
{
closed = 1;
nodes = (
(137,0,l),
(257,204,l),
(259,204,l),
(379,0,l),
(503,0,l),
(332,262,l),
(501,520,l),
(377,520,l),
(259,320,l),
(257,320,l),
(139,520,l),
(15,520,l),
(184,262,l),
(13,0,l)
);
}
);
width = 516;
},
{
layerId = m006;
shapes = (
{
closed = 1;
nodes = (
(213,0,l),
(280,160,l),
(282,160,l),
(349,0,l),
(551,0,l),
(416,260,l),
(551,520,l),
(349,520,l),
(282,360,l),
(280,360,l),
(213,520,l),
(11,520,l),
(146,260,l),
(11,0,l)
);
}
);
width = 562;
}
);
metricLeft = "=|k";
metricRight = "=|";
unicode = 120;
},
{
color = 4;
glyphname = y;
kernLeft = v;
kernRight = v;
lastChange = "2026-07-02 11:51:35 +0000";
layers = (
{
background = {
shapes = (
{
closed = 0;
nodes = (
(136,-201,l),
(489,529,l)
);
},
{
closed = 0;
nodes = (
(25,528,l),
(260,9,l)
);
}
);
};
layerId = m01;
shapes = (
{
closed = 1;
nodes = (
(154,-210,l),
(181,-155,o),
(208,-100,o),
(234,-45,c),
(507,520,l),
(484,520,l),
(268,72,l),
(250,34,l),
(248,34,l),
(236,62,l),
(29,520,l),
(7,520,l),
(242,1,l),
(239,12,l),
(203,-62,o),
(168,-136,o),
(132,-210,c)
);
}
);
width = 514;
},
{
background = {
shapes = (
{
closed = 1;
nodes = (
(251,-210,l),
(251,-210,l),
(251,-210,l),
(251,-210,l),
(566,520,l),
(450,520,l),
(310,171,l),
(284,106,l),
(282,106,l),
(257,173,l),
(122,520,l),
(6,520,l),
(246,-41,l),
(250,51,l),
(212,-36,o),
(175,-123,o),
(137,-210,c)
);
}
);
};
layerId = m002;
shapes = (
{
closed = 1;
nodes = (
(251,-210,l),
(272,-161,o),
(293,-113,o),
(314,-64,c),
(566,520,l),
(450,520,l),
(310,171,l),
(284,106,l),
(282,106,l),
(257,173,l),
(122,520,l),
(6,520,l),
(246,-41,l),
(250,51,l),
(212,-36,o),
(175,-123,o),
(137,-210,c)
);
}
);
width = 572;
},
{
background = {
shapes = (
{
closed = 1;
nodes = (
(349,-210,l),
(349,-210,l),
(349,-210,l),
(349,-210,l),
(625,520,l),
(415,520,l),
(333,219,l),
(320,170,l),
(318,170,l),
(304,219,l),
(215,520,l),
(5,520,l),
(250,-84,l),
(258,84,l),
(220,-14,o),
(181,-112,o),
(143,-210,c)
);
}
);
};
layerId = m003;
shapes = (
{
closed = 1;
nodes = (
(349,-210,l),
(370,-155,o),
(390,-101,o),
(411,-46,c),
(625,520,l),
(415,520,l),
(333,219,l),
(320,170,l),
(318,170,l),
(304,219,l),
(215,520,l),
(5,520,l),
(250,-84,l),
(258,84,l),
(220,-14,o),
(181,-112,o),
(143,-210,c)
);
}
);
width = 630;
},
{
layerId = m004;
shapes = (
{
closed = 1;
nodes = (
(145,-210,l),
(171,-155,o),
(196,-100,o),
(220,-45,c),
(477,520,l),
(455,520,l),
(252,73,l),
(236,37,l),
(234,37,l),
(223,63,l),
(28,520,l),
(7,520,l),
(228,1,l),
(227,18,l),
(192,-58,o),
(158,-134,o),
(123,-210,c)
);
}
);
width = 484;
},
{
layerId = m005;
shapes = (
{
closed = 1;
nodes = (
(239,-210,l),
(262,-155,o),
(284,-100,o),
(306,-45,c),
(536,520,l),
(420,520,l),
(285,147,l),
(271,107,l),
(269,107,l),
(257,142,l),
(122,520,l),
(6,520,l),
(233,-41,l),
(232,51,l),
(196,-36,o),
(160,-123,o),
(125,-210,c)
);
}
);
width = 542;
},
{
layerId = m006;
shapes = (
{
closed = 1;
nodes = (
(332,-210,l),
(352,-155,o),
(371,-101,o),
(391,-46,c),
(595,520,l),
(385,520,l),
(317,220,l),
(305,166,l),
(303,166,l),
(290,220,l),
(215,520,l),
(5,520,l),
(238,-84,l),
(236,84,l),
(200,-14,o),
(162,-112,o),
(126,-210,c)
);
}
);
width = 600;
},
{
associatedMasterId = m01;
attr = {
axisRules = (
{
},
{
max = 150;
min = 100;
}
);
};
layerId = "05AD52A5-A688-442F-8632-3D991EBE4103";
name = "Jul 2, 26 at 17:43";
shapes = (
{
closed = 1;
nodes = (
(39,-230,l),
(136,-206,o),
(198,-141,o),
(258,1,cs),
(477,520,l),
(455,520,l),
(256,45,l),
(248,26,l),
(246,26,l),
(239,42,l),
(29,520,l),
(7,520,l),
(241,-10,l),
(240,9,l),
(182,-128,o),
(125,-188,o),
(34,-211,c)
);
}
);
width = 484;
},
{
associatedMasterId = m002;
attr = {
axisRules = (
{
},
{
max = 150;
min = 100;
}
);
};
background = {
shapes = (
{
closed = 1;
nodes = (
(251,-210,l),
(251,-210,l),
(251,-210,l),
(251,-210,l),
(566,520,l),
(450,520,l),
(310,171,l),
(284,106,l),
(282,106,l),
(257,173,l),
(122,520,l),
(6,520,l),
(246,-41,l),
(250,51,l),
(212,-36,o),
(175,-123,o),
(137,-210,c)
);
}
);
};
layerId = "62C5FE96-8B67-416E-8B85-F331AD4025BA";
name = "Jul 2, 26 at 17:43";
shapes = (
{
closed = 1;
nodes = (
(70,-230,l),
(206,-206,o),
(277,-144,o),
(334,1,cs),
(536,520,l),
(420,520,l),
(295,159,l),
(278,108,l),
(276,108,l),
(258,159,l),
(122,520,l),
(6,520,l),
(245,-35,l),
(240,48,l),
(211,-72,o),
(164,-119,o),
(48,-140,c)
);
}
);
width = 542;
},
{
associatedMasterId = m003;
attr = {
axisRules = (
{
},
{
max = 150;
min = 100;
}
);
};
background = {
shapes = (
{
closed = 1;
nodes = (
(349,-210,l),
(349,-210,l),
(349,-210,l),
(349,-210,l),
(625,520,l),
(415,520,l),
(333,219,l),
(320,170,l),
(318,170,l),
(304,219,l),
(215,520,l),
(5,520,l),
(250,-84,l),
(258,84,l),
(220,-14,o),
(181,-112,o),
(143,-210,c)
);
}
);
};
layerId = "E71C6179-5698-4260-8380-EB811EB30242";
name = "Jul 2, 26 at 17:43";
shapes = (
{
closed = 1;
nodes = (
(100,-230,l),
(277,-205,o),
(356,-146,o),
(409,1,c),
(595,520,l),
(385,520,l),
(318,227,l),
(308,181,l),
(306,181,l),
(294,227,l),
(215,520,l),
(5,520,l),
(248,-60,l),
(238,77,l),
(238,-27,o),
(200,-61,o),
(60,-80,c)
);
}
);
width = 600;
},
{
associatedMasterId = m004;
attr = {
axisRules = (
{
},
{
max = 150;
min = 100;
}
);
};
layerId = "2802E16B-0A01-49A9-BE12-C95984A7E899";
name = "Jul 2, 26 at 17:43";
shapes = (
{
closed = 1;
nodes = (
(39,-230,l),
(136,-206,o),
(198,-141,o),
(258,1,cs),
(477,520,l),
(455,520,l),
(256,45,l),
(248,26,l),
(246,26,l),
(239,42,l),
(29,520,l),
(7,520,l),
(241,-10,l),
(240,9,l),
(182,-128,o),
(125,-188,o),
(34,-211,c)
);
}
);
width = 484;
},
{
associatedMasterId = m005;
attr = {
axisRules = (
{
},
{
max = 150;
min = 100;
}
);
};
layerId = "7D002933-CA8D-43F0-96CF-AA0618A9A1A3";
name = "Jul 2, 26 at 17:43";
shapes = (
{
closed = 1;
nodes = (
(70,-230,l),
(206,-206,o),
(277,-144,o),
(334,1,cs),
(536,520,l),
(420,520,l),
(295,159,l),
(278,108,l),
(276,108,l),
(258,159,l),
(122,520,l),
(6,520,l),
(245,-35,l),
(240,48,l),
(211,-72,o),
(164,-119,o),
(48,-140,c)
);
}
);
width = 542;
},
{
associatedMasterId = m006;
attr = {
axisRules = (
{
},
{
max = 150;
min = 100;
}
);
};
layerId = "74E36A52-9B46-4EA2-BEDA-BF5042DE2688";
name = "Jul 2, 26 at 17:45";
shapes = (
{
closed = 1;
nodes = (
(100,-230,l),
(277,-205,o),
(356,-146,o),
(409,1,c),
(595,520,l),
(385,520,l),
(318,227,l),
(308,181,l),
(306,181,l),
(294,227,l),
(215,520,l),
(5,520,l),
(248,-60,l),
(238,77,l),
(238,-27,o),
(200,-61,o),
(60,-80,c)
);
}
);
width = 600;
}
);
metricLeft = "=v";
metricRight = "=|";
unicode = 121;
},
{
color = 4;
glyphname = z;
kernLeft = z;
kernRight = z;
lastChange = "2026-07-02 07:45:24 +0000";
layers = (
{
layerId = m01;
shapes = (
{
closed = 1;
nodes = (
(413,0,l),
(413,20,l),
(69,20,l),
(69,22,l),
(413,500,l),
(413,520,l),
(43,520,l),
(43,500,l),
(387,500,l),
(387,498,l),
(43,20,l),
(43,0,l)
);
}
);
width = 456;
},
{
layerId = m002;
shapes = (
{
closed = 1;
nodes = (
(448,0,l),
(448,88,l),
(174,88,l),
(174,90,l),
(448,432,l),
(448,520,l),
(38,520,l),
(38,432,l),
(312,432,l),
(312,430,l),
(38,88,l),
(38,0,l)
);
}
);
width = 486;
},
{
layerId = m003;
shapes = (
{
closed = 1;
nodes = (
(482,0,l),
(482,156,l),
(274,156,l),
(274,158,l),
(482,364,l),
(482,520,l),
(32,520,l),
(32,364,l),
(240,364,l),
(240,362,l),
(32,156,l),
(32,0,l)
);
}
);
width = 514;
},
{
layerId = m004;
shapes = (
{
closed = 1;
nodes = (
(433,0,l),
(433,20,l),
(70,20,l),
(70,22,l),
(433,500,l),
(433,520,l),
(43,520,l),
(43,500,l),
(406,500,l),
(406,498,l),
(43,20,l),
(43,0,l)
);
}
);
width = 476;
},
{
background = {
shapes = (
{
closed = 1;
nodes = (
(468,0,l),
(468,90,l),
(179,90,l),
(179,92,l),
(468,430,l),
(468,520,l),
(38,520,l),
(38,430,l),
(327,430,l),
(327,428,l),
(38,90,l),
(38,0,l)
);
}
);
};
layerId = m005;
shapes = (
{
closed = 1;
nodes = (
(468,0,l),
(468,88,l),
(174,88,l),
(174,90,l),
(468,432,l),
(468,520,l),
(38,520,l),
(38,432,l),
(332,432,l),
(332,430,l),
(38,88,l),
(38,0,l)
);
}
);
width = 506;
},
{
layerId = m006;
shapes = (
{
closed = 1;
nodes = (
(502,0,l),
(502,156,l),
(282,156,l),
(282,158,l),
(502,364,l),
(502,520,l),
(32,520,l),
(32,364,l),
(252,364,l),
(252,362,l),
(32,156,l),
(32,0,l)
);
}
);
width = 534;
}
);
metricLeft = "=h*.6";
metricRight = "=|";
unicode = 122;
},
{
export = 0;
glyphname = f.001;
kernLeft = f;
kernRight = f;
lastChange = "2026-07-01 23:24:01 +0000";
layers = (
{
layerId = m01;
shapes = (
{
closed = 1;
nodes = (
(217,0,l),
(217,500,l),
(472,500,l),
(472,520,l),
(217,520,l),
(217,640,ls),
(217,730,o),
(263,770,o),
(373,770,cs),
(406,770,o),
(428,767,o),
(462,756,c),
(462,777,l),
(430,786,o),
(406,790,o),
(373,790,cs),
(253,790,o),
(197,742,o),
(197,640,cs),
(197,520,l),
(32,520,l),
(32,500,l),
(197,500,l),
(197,0,l)
);
}
);
width = 504;
},
{
layerId = m002;
shapes = (
{
closed = 1;
nodes = (
(273,0,l),
(273,430,l),
(488,430,l),
(488,520,l),
(273,520,l),
(273,600,ls),
(273,674,o),
(305,702,o),
(389,702,cs),
(417,702,o),
(444,699,o),
(478,690,c),
(478,778,l),
(441,786,o),
(404,790,o),
(370,790,cs),
(234,790,o),
(164,727,o),
(164,605,cs),
(164,520,l),
(28,520,l),
(28,430,l),
(164,430,l),
(164,0,l)
);
}
);
width = 516;
},
{
layerId = m003;
shapes = (
{
closed = 1;
nodes = (
(329,0,l),
(329,360,l),
(504,360,l),
(504,520,l),
(329,520,l),
(329,560,ls),
(329,616,o),
(347,634,o),
(404,634,cs),
(431,634,o),
(463,630,o),
(494,624,c),
(494,778,l),
(451,786,o),
(401,790,o),
(367,790,cs),
(215,790,o),
(131,712,o),
(131,570,cs),
(131,520,l),
(24,520,l),
(24,360,l),
(131,360,l),
(131,0,l)
);
}
);
width = 528;
},
{
layerId = m004;
shapes = (
{
closed = 1;
nodes = (
(237,0,l),
(237,500,l),
(492,500,l),
(492,520,l),
(237,520,l),
(237,640,ls),
(237,730,o),
(283,770,o),
(393,770,cs),
(426,770,o),
(448,767,o),
(482,756,c),
(482,777,l),
(450,786,o),
(426,790,o),
(393,790,cs),
(273,790,o),
(217,742,o),
(217,640,cs),
(217,520,l),
(32,520,l),
(32,500,l),
(217,500,l),
(217,0,l)
);
}
);
width = 524;
},
{
layerId = m005;
shapes = (
{
closed = 1;
nodes = (
(293,0,l),
(293,430,l),
(508,430,l),
(508,520,l),
(293,520,l),
(293,600,ls),
(293,674,o),
(325,702,o),
(409,702,cs),
(437,702,o),
(464,699,o),
(498,690,c),
(498,778,l),
(461,786,o),
(424,790,o),
(390,790,cs),
(254,790,o),
(184,727,o),
(184,605,cs),
(184,520,l),
(28,520,l),
(28,430,l),
(184,430,l),
(184,0,l)
);
}
);
width = 536;
},
{
layerId = m006;
shapes = (
{
closed = 1;
nodes = (
(349,0,l),
(349,360,l),
(524,360,l),
(524,520,l),
(349,520,l),
(349,560,ls),
(349,616,o),
(367,634,o),
(424,634,cs),
(451,634,o),
(483,630,o),
(514,624,c),
(514,778,l),
(471,786,o),
(421,790,o),
(387,790,cs),
(235,790,o),
(151,712,o),
(151,570,cs),
(151,520,l),
(24,520,l),
(24,360,l),
(151,360,l),
(151,0,l)
);
}
);
width = 548;
}
);
metricLeft = "=H*.4";
metricRight = "=|";
},
